{"glyphs":{"0":{"ha":764,"x_min":38,"x_max":726,"o":"m 382 -24 q 121 91 204 -24 q 38 467 38 206 q 122 839 38 722 q 382 956 206 956 q 640 838 553 956 q 726 467 726 719 q 640 92 726 208 q 382 -24 554 -24 m 382 188 q 435 210 414 188 q 467 294 456 233 q 479 467 479 356 q 455 685 479 625 q 382 744 431 744 q 326 721 347 744 q 295 638 306 697 q 285 467 285 578 q 295 294 285 354 q 326 210 306 233 q 382 188 347 188 z "},"1":{"ha":764,"x_min":85,"x_max":707,"o":"m 707 214 l 707 0 l 85 0 l 85 214 l 274 214 l 274 722 l 113 722 l 113 936 l 518 936 l 518 214 l 707 214 z "},"2":{"ha":764,"x_min":58,"x_max":726,"o":"m 58 214 q 303 424 229 358 q 414 541 376 490 q 451 636 451 592 q 417 717 451 690 q 322 744 382 744 q 93 688 207 744 l 93 904 q 229 944 161 933 q 376 956 297 956 q 609 879 519 956 q 699 661 699 803 q 667 515 699 581 q 567 381 635 449 q 374 214 499 314 l 726 214 l 726 0 l 58 0 l 58 214 z "},"3":{"ha":764,"x_min":65,"x_max":713,"o":"m 535 489 q 666 410 619 468 q 713 257 713 353 q 615 52 713 128 q 350 -24 518 -24 q 65 25 182 -24 l 65 242 q 177 202 118 217 q 294 188 236 188 q 420 214 375 188 q 465 292 465 240 q 432 359 465 336 q 335 382 399 382 l 176 382 l 176 593 l 335 593 q 451 667 451 593 q 415 724 451 704 q 311 744 379 744 q 79 696 176 744 l 79 913 q 350 956 186 956 q 605 890 511 956 q 699 714 699 825 q 657 568 699 621 q 535 489 615 515 z "},"4":{"ha":764,"x_min":14,"x_max":754,"o":"m 754 181 l 653 181 l 653 -24 l 408 -24 l 408 181 l 14 181 l 14 381 l 325 949 l 653 949 l 653 381 l 754 381 l 754 181 m 408 381 l 408 647 l 267 381 l 408 381 z "},"5":{"ha":764,"x_min":72,"x_max":719,"o":"m 389 610 q 633 525 546 610 q 719 300 719 440 q 620 60 719 143 q 333 -24 521 -24 q 72 17 190 -24 l 72 232 q 188 199 124 210 q 307 188 253 188 q 472 300 472 188 q 436 373 472 347 q 333 399 400 399 q 201 388 267 399 q 88 357 135 376 l 97 936 l 665 936 l 665 722 l 336 722 l 333 608 q 389 610 353 610 z "},"6":{"ha":764,"x_min":24,"x_max":738,"o":"m 444 594 q 600 557 533 594 q 702 454 667 519 q 738 307 738 389 q 693 132 738 207 q 570 17 649 57 q 392 -24 492 -24 q 117 72 210 -24 q 24 350 24 168 q 141 692 24 543 q 481 953 258 840 l 643 804 q 445 674 513 724 q 340 576 378 625 q 444 594 389 594 m 386 174 q 462 204 433 174 q 490 293 490 235 q 463 379 490 347 q 385 411 435 411 q 272 383 328 411 q 271 325 271 365 q 300 213 271 251 q 386 174 329 174 z "},"7":{"ha":764,"x_min":60,"x_max":701,"o":"m 701 936 l 701 722 l 367 -24 l 93 -24 l 446 722 l 60 722 l 60 936 l 701 936 z "},"8":{"ha":764,"x_min":28,"x_max":736,"o":"m 560 486 q 690 393 644 456 q 736 246 736 331 q 642 49 736 122 q 382 -24 549 -24 q 118 48 208 -24 q 28 246 28 119 q 70 394 28 332 q 197 486 113 456 q 94 574 129 518 q 58 704 58 631 q 141 887 58 818 q 382 956 224 956 q 556 923 482 956 q 667 833 629 890 q 706 704 706 776 q 668 575 706 632 q 560 486 631 518 m 382 758 q 326 734 346 758 q 306 669 306 710 q 326 605 306 629 q 382 581 346 581 q 438 605 418 581 q 458 669 458 629 q 438 734 458 710 q 382 758 418 758 m 382 174 q 458 203 428 174 q 489 281 489 232 q 458 358 489 329 q 382 388 428 388 q 306 358 336 388 q 275 281 275 329 q 306 203 275 232 q 382 174 336 174 z "},"9":{"ha":764,"x_min":26,"x_max":740,"o":"m 372 953 q 647 857 554 953 q 740 579 740 761 q 623 238 740 386 q 283 -24 506 89 l 121 125 q 319 255 251 206 q 424 353 386 304 q 319 335 375 335 q 164 372 231 335 q 62 475 97 410 q 26 622 26 540 q 71 797 26 722 q 194 913 115 872 q 372 953 272 953 m 379 518 q 492 546 436 518 q 493 604 493 564 q 464 717 493 678 q 378 756 435 756 q 302 725 331 756 q 274 636 274 694 q 301 550 274 582 q 379 518 329 518 z "},"\r":{"ha":833,"x_min":0,"x_max":0,"o":""}," ":{"ha":306,"x_min":0,"x_max":0,"o":""},"A":{"ha":1138,"x_min":42,"x_max":1096,"o":"m 772 214 l 365 214 l 292 0 l 42 0 l 410 1065 l 726 1065 l 1096 0 l 846 0 l 772 214 m 700 428 l 568 811 l 438 428 l 700 428 z "},"Á":{"ha":1138,"x_min":42,"x_max":1096,"o":"m 42 0 m 772 214 l 365 214 l 292 0 l 42 0 l 410 1065 l 726 1065 l 1096 0 l 846 0 l 772 214 m 700 428 l 568 811 l 438 428 l 700 428 m 586 1374 l 861 1374 l 693 1161 l 450 1161 l 586 1374 z "},"Ă":{"ha":1138,"x_min":42,"x_max":1096,"o":"m 42 0 m 772 214 l 365 214 l 292 0 l 42 0 l 410 1065 l 726 1065 l 1096 0 l 846 0 l 772 214 m 700 428 l 568 811 l 438 428 l 700 428 m 571 1150 q 335 1340 335 1150 l 335 1371 l 515 1371 l 515 1346 q 528 1300 515 1314 q 571 1286 542 1286 q 613 1300 600 1286 q 626 1346 626 1314 l 626 1371 l 807 1371 l 807 1340 q 571 1150 807 1150 z "},"Â":{"ha":1138,"x_min":42,"x_max":1096,"o":"m 42 0 m 772 214 l 365 214 l 292 0 l 42 0 l 410 1065 l 726 1065 l 1096 0 l 846 0 l 772 214 m 700 428 l 568 811 l 438 428 l 700 428 m 625 1161 l 569 1288 l 513 1161 l 279 1161 l 406 1374 l 732 1374 l 858 1161 l 625 1161 z "},"Ä":{"ha":1138,"x_min":42,"x_max":1096,"o":"m 42 0 m 772 214 l 365 214 l 292 0 l 42 0 l 410 1065 l 726 1065 l 1096 0 l 846 0 l 772 214 m 700 428 l 568 811 l 438 428 l 700 428 m 618 1371 l 832 1371 l 832 1161 l 618 1161 l 618 1371 m 313 1371 l 526 1371 l 526 1161 l 313 1161 l 313 1371 z "},"À":{"ha":1138,"x_min":42,"x_max":1096,"o":"m 42 0 m 772 214 l 365 214 l 292 0 l 42 0 l 410 1065 l 726 1065 l 1096 0 l 846 0 l 772 214 m 700 428 l 568 811 l 438 428 l 700 428 m 288 1374 l 563 1374 l 699 1161 l 456 1161 l 288 1374 z "},"Ā":{"ha":1138,"x_min":42,"x_max":1096,"o":"m 42 0 m 772 214 l 365 214 l 292 0 l 42 0 l 410 1065 l 726 1065 l 1096 0 l 846 0 l 772 214 m 700 428 l 568 811 l 438 428 l 700 428 m 354 1343 l 783 1343 l 783 1193 l 354 1193 l 354 1343 z "},"Ą":{"ha":1138,"x_min":42,"x_max":1096,"o":"m 42 0 m 772 214 l 365 214 l 292 0 l 42 0 l 410 1065 l 726 1065 l 1096 0 l 846 0 l 772 214 m 700 428 l 568 811 l 438 428 l 700 428 m 982 -365 q 834 -328 883 -365 q 785 -222 785 -290 q 815 -106 785 -164 q 908 0 846 -49 l 1096 0 q 967 -182 967 -100 q 1022 -231 967 -231 q 1096 -214 1058 -231 l 1096 -346 q 982 -365 1038 -365 z "},"Å":{"ha":1138,"x_min":42,"x_max":1096,"o":"m 42 0 m 772 214 l 365 214 l 292 0 l 42 0 l 410 1065 l 726 1065 l 1096 0 l 846 0 l 772 214 m 700 428 l 568 811 l 438 428 l 700 428 m 569 1139 q 440 1174 482 1139 q 399 1267 399 1208 q 439 1359 399 1325 q 569 1393 479 1393 q 698 1359 657 1393 q 739 1267 739 1325 q 698 1174 739 1208 q 569 1139 657 1139 m 569 1232 q 613 1267 613 1232 q 569 1300 613 1300 q 525 1267 525 1300 q 569 1232 525 1232 z "},"Ã":{"ha":1138,"x_min":42,"x_max":1096,"o":"m 42 0 m 772 214 l 365 214 l 292 0 l 42 0 l 410 1065 l 726 1065 l 1096 0 l 846 0 l 772 214 m 700 428 l 568 811 l 438 428 l 700 428 m 304 1160 q 344 1322 304 1278 q 456 1365 385 1365 q 536 1351 494 1365 l 588 1335 q 640 1322 629 1322 q 667 1365 667 1322 l 833 1365 q 793 1203 833 1247 q 682 1160 753 1160 q 601 1174 643 1160 l 550 1190 q 497 1203 508 1203 q 471 1160 471 1203 l 304 1160 z "},"Æ":{"ha":1558,"x_min":35,"x_max":1475,"o":"m 1475 200 l 1475 0 l 772 0 l 772 283 l 468 283 l 310 0 l 35 0 l 640 1053 l 1468 1053 l 1468 853 l 1022 853 l 1022 629 l 1399 629 l 1399 429 l 1022 429 l 1022 200 l 1475 200 m 772 483 l 772 831 l 579 483 l 772 483 z "},"B":{"ha":1036,"x_min":111,"x_max":967,"o":"m 778 535 q 917 444 867 506 q 967 294 967 383 q 871 73 967 146 q 551 0 775 0 l 111 0 l 111 1053 l 551 1053 q 840 981 754 1053 q 925 771 925 908 q 890 626 925 685 q 778 535 856 568 m 361 626 l 551 626 q 672 740 671 626 q 644 828 672 801 q 551 856 615 856 l 361 856 l 361 626 m 714 314 q 673 401 714 374 q 551 429 632 429 l 361 429 l 361 197 l 551 197 q 677 225 640 197 q 714 314 714 253 z "},"C":{"ha":990,"x_min":49,"x_max":942,"o":"m 603 -24 q 187 122 325 -24 q 49 524 49 268 q 111 803 49 679 q 299 1000 174 928 q 603 1072 424 1072 q 734 1060 676 1072 q 858 1021 792 1049 l 858 804 q 610 861 740 861 q 449 817 519 861 q 340 697 379 774 q 301 525 301 621 q 381 280 301 372 q 603 188 461 188 q 733 208 669 188 q 868 265 797 228 l 942 61 q 772 -2 861 19 q 603 -24 683 -24 z "},"Ć":{"ha":990,"x_min":49,"x_max":942,"o":"m 49 0 m 603 -24 q 187 122 325 -24 q 49 524 49 268 q 111 803 49 679 q 299 1000 174 928 q 603 1072 424 1072 q 734 1060 676 1072 q 858 1021 792 1049 l 858 804 q 610 861 740 861 q 449 817 519 861 q 340 697 379 774 q 301 525 301 621 q 381 280 301 372 q 603 188 461 188 q 733 208 669 188 q 868 265 797 228 l 942 61 q 772 -2 861 19 q 603 -24 683 -24 m 564 1374 l 839 1374 l 671 1161 l 428 1161 l 564 1374 z "},"Č":{"ha":990,"x_min":49,"x_max":942,"o":"m 49 0 m 603 -24 q 187 122 325 -24 q 49 524 49 268 q 111 803 49 679 q 299 1000 174 928 q 603 1072 424 1072 q 734 1060 676 1072 q 858 1021 792 1049 l 858 804 q 610 861 740 861 q 449 817 519 861 q 340 697 379 774 q 301 525 301 621 q 381 280 301 372 q 603 188 461 188 q 733 208 669 188 q 868 265 797 228 l 942 61 q 772 -2 861 19 q 603 -24 683 -24 m 836 1374 l 710 1161 l 383 1161 l 257 1374 l 490 1374 l 547 1247 l 603 1374 l 836 1374 z "},"Ç":{"ha":990,"x_min":49,"x_max":942,"o":"m 614 -61 q 723 -101 685 -62 q 761 -204 761 -140 q 711 -322 761 -278 q 564 -365 661 -365 q 482 -360 518 -365 q 408 -337 446 -354 l 408 -206 q 536 -235 472 -235 q 581 -228 568 -235 q 593 -210 593 -222 q 578 -190 593 -196 q 528 -183 564 -183 q 425 -199 471 -183 l 476 -15 q 155 158 261 17 q 49 524 49 300 q 111 803 49 679 q 299 1000 174 928 q 603 1072 424 1072 q 734 1060 676 1072 q 858 1021 792 1049 l 858 804 q 610 861 740 861 q 449 817 519 861 q 340 697 379 774 q 301 525 301 621 q 381 280 301 372 q 603 188 461 188 q 733 208 669 188 q 868 265 797 228 l 942 61 q 785 1 867 22 q 626 -24 703 -21 l 614 -61 z "},"Ċ":{"ha":990,"x_min":49,"x_max":942,"o":"m 49 0 m 603 -24 q 187 122 325 -24 q 49 524 49 268 q 111 803 49 679 q 299 1000 174 928 q 603 1072 424 1072 q 734 1060 676 1072 q 858 1021 792 1049 l 858 804 q 610 861 740 861 q 449 817 519 861 q 340 697 379 774 q 301 525 301 621 q 381 280 301 372 q 603 188 461 188 q 733 208 669 188 q 868 265 797 228 l 942 61 q 772 -2 861 19 q 603 -24 683 -24 m 429 1371 l 671 1371 l 671 1161 l 429 1161 l 429 1371 z "},"D":{"ha":1113,"x_min":111,"x_max":1064,"o":"m 482 1053 q 917 919 771 1053 q 1064 525 1064 785 q 918 132 1064 264 q 482 0 772 0 l 111 0 l 111 1053 l 482 1053 m 811 529 q 731 767 811 692 q 482 842 650 842 l 361 842 l 361 211 l 482 211 q 732 287 653 211 q 811 529 811 363 z "},"Ð":{"ha":1113,"x_min":10,"x_max":1064,"o":"m 482 1053 q 917 919 771 1053 q 1064 525 1064 785 q 918 132 1064 264 q 482 0 772 0 l 111 0 l 111 440 l 10 440 l 10 618 l 111 618 l 111 1053 l 482 1053 m 811 529 q 731 767 811 692 q 482 842 650 842 l 361 842 l 361 618 l 567 618 l 567 440 l 361 440 l 361 211 l 482 211 q 732 287 653 211 q 811 529 811 363 z "},"Ď":{"ha":1113,"x_min":111,"x_max":1064,"o":"m 111 0 m 482 1053 q 917 919 771 1053 q 1064 525 1064 785 q 918 132 1064 264 q 482 0 772 0 l 111 0 l 111 1053 l 482 1053 m 811 529 q 731 767 811 692 q 482 842 650 842 l 361 842 l 361 211 l 482 211 q 732 287 653 211 q 811 529 811 363 m 846 1374 l 719 1161 l 393 1161 l 267 1374 l 500 1374 l 557 1247 l 613 1374 l 846 1374 z "},"Đ":{"ha":1113,"x_min":10,"x_max":1064,"o":"m 10 0 m 482 1053 q 917 919 771 1053 q 1064 525 1064 785 q 918 132 1064 264 q 482 0 772 0 l 111 0 l 111 440 l 10 440 l 10 618 l 111 618 l 111 1053 l 482 1053 m 811 529 q 731 767 811 692 q 482 842 650 842 l 361 842 l 361 618 l 567 618 l 567 440 l 361 440 l 361 211 l 482 211 q 732 287 653 211 q 811 529 811 363 z "},"E":{"ha":897,"x_min":111,"x_max":814,"o":"m 814 200 l 814 0 l 111 0 l 111 1053 l 807 1053 l 807 853 l 361 853 l 361 629 l 738 629 l 738 429 l 361 429 l 361 200 l 814 200 z "},"É":{"ha":897,"x_min":111,"x_max":814,"o":"m 111 0 m 814 200 l 814 0 l 111 0 l 111 1053 l 807 1053 l 807 853 l 361 853 l 361 629 l 738 629 l 738 429 l 361 429 l 361 200 l 814 200 m 479 1374 l 754 1374 l 586 1161 l 343 1161 l 479 1374 z "},"Ě":{"ha":897,"x_min":111,"x_max":814,"o":"m 111 0 m 814 200 l 814 0 l 111 0 l 111 1053 l 807 1053 l 807 853 l 361 853 l 361 629 l 738 629 l 738 429 l 361 429 l 361 200 l 814 200 m 751 1374 l 625 1161 l 299 1161 l 172 1374 l 406 1374 l 463 1247 l 518 1374 l 751 1374 z "},"Ê":{"ha":897,"x_min":111,"x_max":814,"o":"m 111 0 m 814 200 l 814 0 l 111 0 l 111 1053 l 807 1053 l 807 853 l 361 853 l 361 629 l 738 629 l 738 429 l 361 429 l 361 200 l 814 200 m 518 1161 l 463 1288 l 406 1161 l 172 1161 l 299 1374 l 625 1374 l 751 1161 l 518 1161 z "},"Ë":{"ha":897,"x_min":111,"x_max":814,"o":"m 111 0 m 814 200 l 814 0 l 111 0 l 111 1053 l 807 1053 l 807 853 l 361 853 l 361 629 l 738 629 l 738 429 l 361 429 l 361 200 l 814 200 m 511 1371 l 725 1371 l 725 1161 l 511 1161 l 511 1371 m 206 1371 l 419 1371 l 419 1161 l 206 1161 l 206 1371 z "},"Ė":{"ha":897,"x_min":111,"x_max":814,"o":"m 111 0 m 814 200 l 814 0 l 111 0 l 111 1053 l 807 1053 l 807 853 l 361 853 l 361 629 l 738 629 l 738 429 l 361 429 l 361 200 l 814 200 m 344 1371 l 586 1371 l 586 1161 l 344 1161 l 344 1371 z "},"È":{"ha":897,"x_min":111,"x_max":814,"o":"m 111 0 m 814 200 l 814 0 l 111 0 l 111 1053 l 807 1053 l 807 853 l 361 853 l 361 629 l 738 629 l 738 429 l 361 429 l 361 200 l 814 200 m 181 1374 l 456 1374 l 592 1161 l 349 1161 l 181 1374 z "},"Ē":{"ha":897,"x_min":111,"x_max":814,"o":"m 111 0 m 247 1343 l 676 1343 l 676 1193 l 247 1193 l 247 1343 m 814 200 l 814 0 l 111 0 l 111 1053 l 807 1053 l 807 853 l 361 853 l 361 629 l 738 629 l 738 429 l 361 429 l 361 200 l 814 200 z "},"Ę":{"ha":897,"x_min":111,"x_max":814,"o":"m 111 0 m 814 200 l 814 0 l 111 0 l 111 1053 l 807 1053 l 807 853 l 361 853 l 361 629 l 738 629 l 738 429 l 361 429 l 361 200 l 814 200 m 700 -365 q 552 -328 601 -365 q 503 -222 503 -290 q 533 -106 503 -164 q 626 0 564 -49 l 814 0 q 685 -182 685 -100 q 740 -231 685 -231 q 814 -214 776 -231 l 814 -346 q 700 -365 756 -365 z "},"F":{"ha":863,"x_min":111,"x_max":807,"o":"m 361 839 l 361 608 l 738 608 l 738 394 l 361 394 l 361 0 l 111 0 l 111 1053 l 807 1053 l 807 839 l 361 839 z "},"G":{"ha":1049,"x_min":49,"x_max":965,"o":"m 965 643 l 965 74 q 784 1 881 26 q 603 -24 688 -24 q 299 45 424 -24 q 111 238 174 114 q 49 525 49 361 q 109 804 49 681 q 294 1000 169 928 q 603 1072 418 1072 q 758 1055 694 1072 q 900 1003 821 1038 l 900 782 q 760 841 829 821 q 603 861 692 861 q 441 819 510 861 q 337 701 372 776 q 301 529 301 625 q 381 281 301 374 q 603 188 460 188 q 721 207 667 188 l 721 429 l 458 429 l 458 643 l 965 643 z "},"Ğ":{"ha":1049,"x_min":49,"x_max":965,"o":"m 49 0 m 965 643 l 965 74 q 784 1 881 26 q 603 -24 688 -24 q 299 45 424 -24 q 111 238 174 114 q 49 525 49 361 q 109 804 49 681 q 294 1000 169 928 q 603 1072 418 1072 q 758 1055 694 1072 q 900 1003 821 1038 l 900 782 q 760 841 829 821 q 603 861 692 861 q 441 819 510 861 q 337 701 372 776 q 301 529 301 625 q 381 281 301 374 q 603 188 460 188 q 721 207 667 188 l 721 429 l 458 429 l 458 643 l 965 643 m 582 1150 q 346 1340 346 1150 l 346 1371 l 526 1371 l 526 1346 q 540 1300 526 1314 q 582 1286 553 1286 q 624 1300 611 1286 q 638 1346 638 1314 l 638 1371 l 818 1371 l 818 1340 q 582 1150 818 1150 z "},"Ģ":{"ha":1049,"x_min":49,"x_max":965,"o":"m 49 0 m 965 643 l 965 74 q 784 1 881 26 q 603 -24 688 -24 q 299 45 424 -24 q 111 238 174 114 q 49 525 49 361 q 109 804 49 681 q 294 1000 169 928 q 603 1072 418 1072 q 758 1055 694 1072 q 900 1003 821 1038 l 900 782 q 760 841 829 821 q 603 861 692 861 q 441 819 510 861 q 337 701 372 776 q 301 529 301 625 q 381 281 301 374 q 603 188 460 188 q 721 207 667 188 l 721 429 l 458 429 l 458 643 l 965 643 m 461 -111 l 711 -111 l 644 -342 l 417 -342 l 461 -111 z "},"Ġ":{"ha":1049,"x_min":49,"x_max":965,"o":"m 49 0 m 965 643 l 965 74 q 784 1 881 26 q 603 -24 688 -24 q 299 45 424 -24 q 111 238 174 114 q 49 525 49 361 q 109 804 49 681 q 294 1000 169 928 q 603 1072 418 1072 q 758 1055 694 1072 q 900 1003 821 1038 l 900 782 q 760 841 829 821 q 603 861 692 861 q 441 819 510 861 q 337 701 372 776 q 301 529 301 625 q 381 281 301 374 q 603 188 460 188 q 721 207 667 188 l 721 429 l 458 429 l 458 643 l 965 643 m 463 1371 l 704 1371 l 704 1161 l 463 1161 l 463 1371 z "},"H":{"ha":1138,"x_min":111,"x_max":1026,"o":"m 1026 1053 l 1026 0 l 776 0 l 776 422 l 361 422 l 361 0 l 111 0 l 111 1053 l 361 1053 l 361 636 l 776 636 l 776 1053 l 1026 1053 z "},"Ħ":{"ha":1076,"x_min":111,"x_max":1026,"o":"m 1026 1053 l 1026 0 l 776 0 l 776 422 l 361 422 l 361 0 l 111 0 l 111 1053 l 361 1053 l 361 942 l 776 942 l 776 1053 l 1026 1053 m 776 636 l 776 731 l 361 731 l 361 636 l 776 636 z "},"I":{"ha":472,"x_min":111,"x_max":361,"o":"m 111 1053 l 361 1053 l 361 0 l 111 0 l 111 1053 z "},"Ĳ":{"ha":986,"x_min":111,"x_max":875,"o":"m 111 0 m 111 1053 l 361 1053 l 361 0 l 111 0 l 111 1053 m 600 -251 q 474 -240 528 -251 l 474 -31 q 549 -37 508 -37 q 595 -27 579 -37 q 618 10 611 -17 q 625 92 625 38 l 625 1053 l 875 1053 l 875 83 q 851 -122 875 -51 q 769 -222 828 -193 q 600 -251 711 -251 z "},"Í":{"ha":472,"x_min":111,"x_max":528,"o":"m 111 0 m 111 1053 l 361 1053 l 361 0 l 111 0 l 111 1053 m 253 1374 l 528 1374 l 360 1161 l 117 1161 l 253 1374 z "},"Î":{"ha":472,"x_min":-54,"x_max":525,"o":"m 0 0 m 111 1053 l 361 1053 l 361 0 l 111 0 l 111 1053 m 292 1161 l 236 1288 l 179 1161 l -54 1161 l 72 1374 l 399 1374 l 525 1161 l 292 1161 z "},"Ï":{"ha":472,"x_min":-21,"x_max":499,"o":"m 0 0 m 111 1053 l 361 1053 l 361 0 l 111 0 l 111 1053 m 285 1371 l 499 1371 l 499 1161 l 285 1161 l 285 1371 m -21 1371 l 193 1371 l 193 1161 l -21 1161 l -21 1371 z "},"İ":{"ha":472,"x_min":111,"x_max":361,"o":"m 111 0 m 111 1053 l 361 1053 l 361 0 l 111 0 l 111 1053 m 118 1371 l 360 1371 l 360 1161 l 118 1161 l 118 1371 z "},"Ì":{"ha":472,"x_min":-46,"x_max":365,"o":"m 0 0 m 111 1053 l 361 1053 l 361 0 l 111 0 l 111 1053 m -46 1374 l 229 1374 l 365 1161 l 122 1161 l -46 1374 z "},"Ī":{"ha":472,"x_min":21,"x_max":450,"o":"m 21 0 m 111 1053 l 361 1053 l 361 0 l 111 0 l 111 1053 m 21 1343 l 450 1343 l 450 1193 l 21 1193 l 21 1343 z "},"Į":{"ha":472,"x_min":19,"x_max":361,"o":"m 361 1053 l 361 0 l 331 0 q 201 -182 201 -100 q 257 -231 201 -231 q 331 -214 293 -231 l 331 -346 q 217 -365 272 -365 q 69 -328 118 -365 q 19 -222 19 -290 q 50 -106 19 -164 q 143 0 81 -49 l 111 0 l 111 1053 l 361 1053 z "},"J":{"ha":514,"x_min":1,"x_max":403,"o":"m 128 -251 q 1 -240 56 -251 l 1 -31 q 76 -37 36 -37 q 123 -27 107 -37 q 146 10 139 -17 q 153 92 153 38 l 153 1053 l 403 1053 l 403 83 q 379 -122 403 -51 q 297 -222 356 -193 q 128 -251 239 -251 z "},"K":{"ha":1031,"x_min":111,"x_max":1003,"o":"m 407 375 l 361 322 l 361 0 l 111 0 l 111 1053 l 361 1053 l 361 681 l 686 1053 l 996 1053 l 567 558 l 1003 0 l 690 0 l 407 375 z "},"Ķ":{"ha":1031,"x_min":111,"x_max":1003,"o":"m 111 0 m 407 375 l 361 322 l 361 0 l 111 0 l 111 1053 l 361 1053 l 361 681 l 686 1053 l 996 1053 l 567 558 l 1003 0 l 690 0 l 407 375 m 385 -111 l 635 -111 l 568 -342 l 340 -342 l 385 -111 z "},"L":{"ha":800,"x_min":111,"x_max":744,"o":"m 744 214 l 744 0 l 111 0 l 111 1053 l 361 1053 l 361 214 l 744 214 z "},"Ĺ":{"ha":800,"x_min":108,"x_max":744,"o":"m 108 0 m 744 214 l 744 0 l 111 0 l 111 1053 l 361 1053 l 361 214 l 744 214 m 244 1374 l 519 1374 l 351 1161 l 108 1161 l 244 1374 z "},"Ľ":{"ha":800,"x_min":111,"x_max":744,"o":"m 744 214 l 744 0 l 111 0 l 111 1053 l 361 1053 l 361 778 l 429 1053 l 671 1053 l 565 772 l 361 772 l 361 214 l 744 214 z "},"Ļ":{"ha":800,"x_min":111,"x_max":744,"o":"m 111 0 m 744 214 l 744 0 l 111 0 l 111 1053 l 361 1053 l 361 214 l 744 214 m 310 -111 l 560 -111 l 493 -342 l 265 -342 l 310 -111 z "},"Ŀ":{"ha":800,"x_min":111,"x_max":744,"o":"m 744 214 l 744 0 l 111 0 l 111 1053 l 361 1053 l 361 214 l 744 214 m 686 425 l 431 425 l 431 676 l 686 676 l 686 425 z "},"Ł":{"ha":800,"x_min":0,"x_max":744,"o":"m 744 214 l 744 0 l 111 0 l 111 322 l 0 278 l 0 489 l 111 533 l 111 1053 l 361 1053 l 361 635 l 600 731 l 600 519 l 361 424 l 361 214 l 744 214 z "},"M":{"ha":1319,"x_min":111,"x_max":1208,"o":"m 1208 1053 l 1208 0 l 958 0 l 958 694 l 719 349 l 594 349 l 361 692 l 361 0 l 111 0 l 111 1053 l 400 1053 l 660 664 l 919 1053 l 1208 1053 z "},"N":{"ha":1138,"x_min":111,"x_max":1026,"o":"m 1026 1053 l 1026 0 l 739 0 l 361 647 l 361 0 l 111 0 l 111 1053 l 399 1053 l 776 406 l 776 1053 l 1026 1053 z "},"Ń":{"ha":1138,"x_min":111,"x_max":1026,"o":"m 111 0 m 1026 1053 l 1026 0 l 739 0 l 361 647 l 361 0 l 111 0 l 111 1053 l 399 1053 l 776 406 l 776 1053 l 1026 1053 m 586 1374 l 861 1374 l 693 1161 l 450 1161 l 586 1374 z "},"Ň":{"ha":1138,"x_min":-90,"x_max":1026,"o":"m 0 0 m 1026 1053 l 1026 0 l 739 0 l 361 647 l 361 0 l 111 0 l 111 1053 l 399 1053 l 776 406 l 776 1053 l 1026 1053 m -21 1363 l 221 1363 l 115 1082 l -90 1082 l -21 1363 z "},"Ņ":{"ha":1138,"x_min":111,"x_max":1026,"o":"m 111 0 m 1026 1053 l 1026 0 l 739 0 l 361 647 l 361 0 l 111 0 l 111 1053 l 399 1053 l 776 406 l 776 1053 l 1026 1053 m 392 -111 l 642 -111 l 575 -342 l 347 -342 l 392 -111 z "},"Ŋ":{"ha":1076,"x_min":111,"x_max":1026,"o":"m 1026 1053 l 1026 -14 q 1003 -219 1026 -149 q 921 -319 979 -290 q 751 -349 863 -349 q 625 -337 679 -349 l 625 -128 q 700 -135 660 -135 q 747 -124 731 -135 q 769 -87 763 -114 q 776 -6 776 -60 l 776 7 l 361 663 l 361 0 l 111 0 l 111 1053 l 399 1053 l 776 440 l 776 1053 l 1026 1053 z "},"Ñ":{"ha":1138,"x_min":111,"x_max":1026,"o":"m 111 0 m 1026 1053 l 1026 0 l 739 0 l 361 647 l 361 0 l 111 0 l 111 1053 l 399 1053 l 776 406 l 776 1053 l 1026 1053 m 304 1160 q 344 1322 304 1278 q 456 1365 385 1365 q 536 1351 494 1365 l 588 1335 q 640 1322 629 1322 q 667 1365 667 1322 l 833 1365 q 793 1203 833 1247 q 682 1160 753 1160 q 601 1174 643 1160 l 550 1190 q 497 1203 508 1203 q 471 1160 471 1203 l 304 1160 z "},"O":{"ha":1179,"x_min":49,"x_max":1131,"o":"m 590 -24 q 293 48 415 -24 q 110 244 171 119 q 49 525 49 368 q 110 803 49 679 q 293 999 171 926 q 590 1072 415 1072 q 885 999 763 1072 q 1069 802 1007 926 q 1131 525 1131 678 q 1069 244 1131 368 q 885 48 1007 119 q 590 -24 764 -24 m 590 188 q 800 282 725 188 q 875 529 875 376 q 842 700 875 625 q 744 818 808 775 q 590 861 679 861 q 378 768 453 861 q 304 525 304 675 q 378 280 304 372 q 590 188 451 188 z "},"Ó":{"ha":1179,"x_min":49,"x_max":1131,"o":"m 49 0 m 590 -24 q 293 48 415 -24 q 110 244 171 119 q 49 525 49 368 q 110 803 49 679 q 293 999 171 926 q 590 1072 415 1072 q 885 999 763 1072 q 1069 802 1007 926 q 1131 525 1131 678 q 1069 244 1131 368 q 885 48 1007 119 q 590 -24 764 -24 m 590 188 q 800 282 725 188 q 875 529 875 376 q 842 700 875 625 q 744 818 808 775 q 590 861 679 861 q 378 768 453 861 q 304 525 304 675 q 378 280 304 372 q 590 188 451 188 m 607 1374 l 882 1374 l 714 1161 l 471 1161 l 607 1374 z "},"Ô":{"ha":1179,"x_min":49,"x_max":1131,"o":"m 49 0 m 590 -24 q 293 48 415 -24 q 110 244 171 119 q 49 525 49 368 q 110 803 49 679 q 293 999 171 926 q 590 1072 415 1072 q 885 999 763 1072 q 1069 802 1007 926 q 1131 525 1131 678 q 1069 244 1131 368 q 885 48 1007 119 q 590 -24 764 -24 m 590 188 q 800 282 725 188 q 875 529 875 376 q 842 700 875 625 q 744 818 808 775 q 590 861 679 861 q 378 768 453 861 q 304 525 304 675 q 378 280 304 372 q 590 188 451 188 m 646 1161 l 590 1288 l 533 1161 l 300 1161 l 426 1374 l 753 1374 l 879 1161 l 646 1161 z "},"Ö":{"ha":1179,"x_min":49,"x_max":1131,"o":"m 49 0 m 590 -24 q 293 48 415 -24 q 110 244 171 119 q 49 525 49 368 q 110 803 49 679 q 293 999 171 926 q 590 1072 415 1072 q 885 999 763 1072 q 1069 802 1007 926 q 1131 525 1131 678 q 1069 244 1131 368 q 885 48 1007 119 q 590 -24 764 -24 m 590 188 q 800 282 725 188 q 875 529 875 376 q 842 700 875 625 q 744 818 808 775 q 590 861 679 861 q 378 768 453 861 q 304 525 304 675 q 378 280 304 372 q 590 188 451 188 m 639 1371 l 853 1371 l 853 1161 l 639 1161 l 639 1371 m 333 1371 l 547 1371 l 547 1161 l 333 1161 l 333 1371 z "},"Ò":{"ha":1179,"x_min":49,"x_max":1131,"o":"m 49 0 m 590 -24 q 293 48 415 -24 q 110 244 171 119 q 49 525 49 368 q 110 803 49 679 q 293 999 171 926 q 590 1072 415 1072 q 885 999 763 1072 q 1069 802 1007 926 q 1131 525 1131 678 q 1069 244 1131 368 q 885 48 1007 119 q 590 -24 764 -24 m 590 188 q 800 282 725 188 q 875 529 875 376 q 842 700 875 625 q 744 818 808 775 q 590 861 679 861 q 378 768 453 861 q 304 525 304 675 q 378 280 304 372 q 590 188 451 188 m 308 1374 l 583 1374 l 719 1161 l 476 1161 l 308 1374 z "},"Ő":{"ha":1179,"x_min":49,"x_max":1131,"o":"m 49 0 m 590 -24 q 293 48 415 -24 q 110 244 171 119 q 49 525 49 368 q 110 803 49 679 q 293 999 171 926 q 590 1072 415 1072 q 885 999 763 1072 q 1069 802 1007 926 q 1131 525 1131 678 q 1069 244 1131 368 q 885 48 1007 119 q 590 -24 764 -24 m 590 188 q 800 282 725 188 q 875 529 875 376 q 842 700 875 625 q 744 818 808 775 q 590 861 679 861 q 378 768 453 861 q 304 525 304 675 q 378 280 304 372 q 590 188 451 188 m 774 1374 l 1021 1374 l 853 1161 l 638 1161 l 774 1374 m 461 1374 l 708 1374 l 540 1161 l 325 1161 l 461 1374 z "},"Ō":{"ha":1179,"x_min":49,"x_max":1131,"o":"m 49 0 m 590 -24 q 293 48 415 -24 q 110 244 171 119 q 49 525 49 368 q 110 803 49 679 q 293 999 171 926 q 590 1072 415 1072 q 885 999 763 1072 q 1069 802 1007 926 q 1131 525 1131 678 q 1069 244 1131 368 q 885 48 1007 119 q 590 -24 764 -24 m 590 188 q 800 282 725 188 q 875 529 875 376 q 842 700 875 625 q 744 818 808 775 q 590 861 679 861 q 378 768 453 861 q 304 525 304 675 q 378 280 304 372 q 590 188 451 188 m 375 1343 l 804 1343 l 804 1193 l 375 1193 l 375 1343 z "},"Ø":{"ha":1179,"x_min":49,"x_max":1132,"o":"m 1046 843 q 1109 695 1088 776 q 1131 525 1131 614 q 1069 244 1131 368 q 885 48 1007 119 q 590 -24 764 -24 q 276 58 406 -24 l 201 -19 l 54 119 l 135 201 q 49 525 49 338 q 110 803 49 679 q 293 999 171 926 q 590 1072 415 1072 q 906 988 772 1072 l 988 1071 l 1132 932 l 1046 843 m 304 525 q 321 392 304 453 l 742 819 q 590 861 676 861 q 378 768 453 861 q 304 525 304 675 m 875 525 q 858 653 875 594 l 442 225 q 590 188 506 188 q 799 281 725 188 q 875 525 874 374 z "},"Õ":{"ha":1179,"x_min":49,"x_max":1131,"o":"m 49 0 m 590 -24 q 293 48 415 -24 q 110 244 171 119 q 49 525 49 368 q 110 803 49 679 q 293 999 171 926 q 590 1072 415 1072 q 885 999 763 1072 q 1069 802 1007 926 q 1131 525 1131 678 q 1069 244 1131 368 q 885 48 1007 119 q 590 -24 764 -24 m 590 188 q 800 282 725 188 q 875 529 875 376 q 842 700 875 625 q 744 818 808 775 q 590 861 679 861 q 378 768 453 861 q 304 525 304 675 q 378 280 304 372 q 590 188 451 188 m 325 1160 q 365 1322 325 1278 q 476 1365 406 1365 q 557 1351 515 1365 l 608 1335 q 661 1322 650 1322 q 688 1365 688 1322 l 854 1365 q 814 1203 854 1247 q 703 1160 774 1160 q 622 1174 664 1160 l 571 1190 q 518 1203 529 1203 q 492 1160 492 1203 l 325 1160 z "},"Œ":{"ha":1539,"x_min":49,"x_max":1456,"o":"m 1456 200 l 1456 0 l 631 0 q 195 134 342 0 q 49 528 49 268 q 194 921 49 789 q 631 1053 340 1053 l 1449 1053 l 1449 853 l 1003 853 l 1003 629 l 1379 629 l 1379 429 l 1003 429 l 1003 200 l 1456 200 m 753 211 l 753 842 l 631 842 q 381 766 460 842 q 301 524 301 690 q 382 286 301 361 q 631 211 463 211 l 753 211 z "},"P":{"ha":967,"x_min":111,"x_max":939,"o":"m 538 1053 q 838 965 738 1053 q 939 701 939 876 q 838 442 939 531 q 538 353 738 353 l 361 353 l 361 0 l 111 0 l 111 1053 l 538 1053 m 538 564 q 649 597 613 564 q 686 701 685 631 q 650 808 686 775 q 538 842 614 842 l 361 842 l 361 564 l 538 564 z "},"Þ":{"ha":892,"x_min":111,"x_max":939,"o":"m 538 886 q 838 798 738 886 q 939 535 939 710 q 838 275 939 364 q 538 186 738 186 l 361 186 l 361 0 l 111 0 l 111 1053 l 361 1053 l 361 886 l 538 886 m 538 397 q 649 431 613 397 q 686 535 685 464 q 650 642 686 608 q 538 675 614 675 l 361 675 l 361 397 l 538 397 z "},"Q":{"ha":1179,"x_min":49,"x_max":1131,"o":"m 1131 525 q 1085 279 1131 390 q 951 94 1040 168 l 1114 -89 l 831 -89 l 757 -3 q 590 -24 682 -24 q 293 48 415 -24 q 110 244 171 119 q 49 525 49 368 q 110 803 49 679 q 293 999 171 926 q 590 1072 415 1072 q 885 999 763 1072 q 1069 802 1007 926 q 1131 525 1131 678 m 304 525 q 378 280 304 372 q 590 188 451 188 l 593 188 l 471 329 l 749 329 l 794 276 q 854 387 833 322 q 875 529 875 451 q 842 700 875 625 q 744 818 808 775 q 590 861 679 861 q 378 768 453 861 q 304 525 304 675 z "},"R":{"ha":1029,"x_min":111,"x_max":981,"o":"m 478 381 l 361 381 l 361 0 l 111 0 l 111 1053 l 538 1053 q 939 715 939 1053 q 729 407 939 475 l 981 0 l 703 0 l 478 381 m 361 592 l 538 592 q 686 715 686 592 q 650 811 686 781 q 538 842 614 842 l 361 842 l 361 592 z "},"Ŕ":{"ha":1029,"x_min":111,"x_max":981,"o":"m 111 0 m 478 381 l 361 381 l 361 0 l 111 0 l 111 1053 l 538 1053 q 939 715 939 1053 q 729 407 939 475 l 981 0 l 703 0 l 478 381 m 361 592 l 538 592 q 686 715 686 592 q 650 811 686 781 q 538 842 614 842 l 361 842 l 361 592 m 507 1374 l 782 1374 l 614 1161 l 371 1161 l 507 1374 z "},"Ř":{"ha":1029,"x_min":111,"x_max":981,"o":"m 111 0 m 478 381 l 361 381 l 361 0 l 111 0 l 111 1053 l 538 1053 q 939 715 939 1053 q 729 407 939 475 l 981 0 l 703 0 l 478 381 m 361 592 l 538 592 q 686 715 686 592 q 650 811 686 781 q 538 842 614 842 l 361 842 l 361 592 m 779 1374 l 653 1161 l 326 1161 l 200 1374 l 433 1374 l 490 1247 l 546 1374 l 779 1374 z "},"Ŗ":{"ha":1029,"x_min":111,"x_max":981,"o":"m 111 0 m 478 381 l 361 381 l 361 0 l 111 0 l 111 1053 l 538 1053 q 939 715 939 1053 q 729 407 939 475 l 981 0 l 703 0 l 478 381 m 361 592 l 538 592 q 686 715 686 592 q 650 811 686 781 q 538 842 614 842 l 361 842 l 361 592 m 399 -111 l 649 -111 l 582 -342 l 354 -342 l 399 -111 z "},"S":{"ha":932,"x_min":78,"x_max":871,"o":"m 465 -24 q 260 -5 354 -24 q 78 56 165 14 l 78 281 q 465 188 254 188 q 585 215 547 188 q 624 289 624 243 q 590 358 624 335 q 468 404 556 381 l 374 431 q 229 485 290 454 q 125 579 168 517 q 82 740 82 642 q 181 988 82 903 q 461 1072 281 1072 q 651 1053 569 1072 q 819 993 733 1033 l 819 776 q 461 861 661 861 q 358 836 388 861 q 329 764 329 811 q 343 713 329 732 q 386 682 357 694 q 474 653 415 669 l 569 626 q 722 568 658 601 q 828 469 786 535 q 871 301 871 404 q 762 63 869 150 q 465 -24 654 -24 z "},"Ś":{"ha":932,"x_min":78,"x_max":871,"o":"m 78 0 m 465 -24 q 260 -5 354 -24 q 78 56 165 14 l 78 281 q 465 188 254 188 q 585 215 547 188 q 624 289 624 243 q 590 358 624 335 q 468 404 556 381 l 374 431 q 229 485 290 454 q 125 579 168 517 q 82 740 82 642 q 181 988 82 903 q 461 1072 281 1072 q 651 1053 569 1072 q 819 993 733 1033 l 819 776 q 461 861 661 861 q 358 836 388 861 q 329 764 329 811 q 343 713 329 732 q 386 682 357 694 q 474 653 415 669 l 569 626 q 722 568 658 601 q 828 469 786 535 q 871 301 871 404 q 762 63 869 150 q 465 -24 654 -24 m 483 1374 l 758 1374 l 590 1161 l 347 1161 l 483 1374 z "},"Š":{"ha":932,"x_min":78,"x_max":871,"o":"m 78 0 m 465 -24 q 260 -5 354 -24 q 78 56 165 14 l 78 281 q 465 188 254 188 q 585 215 547 188 q 624 289 624 243 q 590 358 624 335 q 468 404 556 381 l 374 431 q 229 485 290 454 q 125 579 168 517 q 82 740 82 642 q 181 988 82 903 q 461 1072 281 1072 q 651 1053 569 1072 q 819 993 733 1033 l 819 776 q 461 861 661 861 q 358 836 388 861 q 329 764 329 811 q 343 713 329 732 q 386 682 357 694 q 474 653 415 669 l 569 626 q 722 568 658 601 q 828 469 786 535 q 871 301 871 404 q 762 63 869 150 q 465 -24 654 -24 m 756 1374 l 629 1161 l 303 1161 l 176 1374 l 410 1374 l 467 1247 l 522 1374 l 756 1374 z "},"Ş":{"ha":932,"x_min":78,"x_max":871,"o":"m 871 301 q 778 78 869 163 q 525 -21 686 -7 l 511 -61 q 620 -101 582 -62 q 658 -204 658 -140 q 608 -322 658 -278 q 461 -365 558 -365 q 379 -360 415 -365 q 306 -337 343 -354 l 306 -206 q 433 -235 369 -235 q 478 -228 465 -235 q 490 -210 490 -222 q 476 -190 490 -196 q 425 -183 461 -183 q 322 -199 368 -183 l 372 -19 q 78 56 211 -7 l 78 281 q 465 188 254 188 q 585 215 547 188 q 624 289 624 243 q 590 358 624 335 q 468 404 556 381 l 374 431 q 229 485 290 454 q 125 579 168 517 q 82 740 82 642 q 181 988 82 903 q 461 1072 281 1072 q 651 1053 569 1072 q 819 993 733 1033 l 819 776 q 461 861 661 861 q 358 836 388 861 q 329 764 329 811 q 343 713 329 732 q 386 682 357 694 q 474 653 415 669 l 569 626 q 722 568 658 601 q 828 469 786 535 q 871 301 871 404 z "},"Ș":{"ha":932,"x_min":78,"x_max":871,"o":"m 78 0 m 465 -24 q 260 -5 354 -24 q 78 56 165 14 l 78 281 q 465 188 254 188 q 585 215 547 188 q 624 289 624 243 q 590 358 624 335 q 468 404 556 381 l 374 431 q 229 485 290 454 q 125 579 168 517 q 82 740 82 642 q 181 988 82 903 q 461 1072 281 1072 q 651 1053 569 1072 q 819 993 733 1033 l 819 776 q 461 861 661 861 q 358 836 388 861 q 329 764 329 811 q 343 713 329 732 q 386 682 357 694 q 474 653 415 669 l 569 626 q 722 568 658 601 q 828 469 786 535 q 871 301 871 404 q 762 63 869 150 q 465 -24 654 -24 m 342 -111 l 592 -111 l 525 -342 l 297 -342 l 342 -111 z "},"T":{"ha":936,"x_min":56,"x_max":881,"o":"m 881 839 l 593 839 l 593 0 l 343 0 l 343 839 l 56 839 l 56 1053 l 881 1053 l 881 839 z "},"Ŧ":{"ha":853,"x_min":42,"x_max":867,"o":"m 579 839 l 579 619 l 769 619 l 769 408 l 579 408 l 579 0 l 329 0 l 329 408 l 139 408 l 139 619 l 329 619 l 329 839 l 42 839 l 42 1053 l 867 1053 l 867 839 l 579 839 z "},"Ť":{"ha":936,"x_min":56,"x_max":881,"o":"m 56 0 m 881 839 l 593 839 l 593 0 l 343 0 l 343 839 l 56 839 l 56 1053 l 881 1053 l 881 839 m 757 1374 l 631 1161 l 304 1161 l 178 1374 l 411 1374 l 468 1247 l 524 1374 l 757 1374 z "},"Ţ":{"ha":936,"x_min":56,"x_max":881,"o":"m 542 0 l 521 -61 q 630 -101 592 -62 q 668 -204 668 -140 q 618 -322 668 -278 q 471 -365 568 -365 q 389 -360 425 -365 q 315 -337 353 -354 l 315 -206 q 443 -235 379 -235 q 488 -228 475 -235 q 500 -210 500 -222 q 485 -190 500 -196 q 435 -183 471 -183 q 332 -199 378 -183 l 388 0 l 343 0 l 343 839 l 56 839 l 56 1053 l 881 1053 l 881 839 l 593 839 l 593 0 l 542 0 z "},"Ț":{"ha":936,"x_min":56,"x_max":881,"o":"m 56 0 m 881 839 l 593 839 l 593 0 l 343 0 l 343 839 l 56 839 l 56 1053 l 881 1053 l 881 839 m 351 -111 l 601 -111 l 535 -342 l 307 -342 l 351 -111 z "},"U":{"ha":1139,"x_min":111,"x_max":1028,"o":"m 569 -24 q 226 90 340 -24 q 111 414 111 204 l 111 1053 l 361 1053 l 361 414 q 413 244 361 301 q 569 188 465 188 q 726 244 674 188 q 778 414 778 301 l 778 1053 l 1028 1053 l 1028 414 q 914 90 1028 204 q 569 -24 800 -24 z "},"Ú":{"ha":1139,"x_min":111,"x_max":1028,"o":"m 111 0 m 569 -24 q 226 90 340 -24 q 111 414 111 204 l 111 1053 l 361 1053 l 361 414 q 413 244 361 301 q 569 188 465 188 q 726 244 674 188 q 778 414 778 301 l 778 1053 l 1028 1053 l 1028 414 q 914 90 1028 204 q 569 -24 800 -24 m 586 1374 l 861 1374 l 693 1161 l 450 1161 l 586 1374 z "},"Û":{"ha":1139,"x_min":111,"x_max":1028,"o":"m 111 0 m 569 -24 q 226 90 340 -24 q 111 414 111 204 l 111 1053 l 361 1053 l 361 414 q 413 244 361 301 q 569 188 465 188 q 726 244 674 188 q 778 414 778 301 l 778 1053 l 1028 1053 l 1028 414 q 914 90 1028 204 q 569 -24 800 -24 m 625 1161 l 569 1288 l 513 1161 l 279 1161 l 406 1374 l 732 1374 l 858 1161 l 625 1161 z "},"Ü":{"ha":1139,"x_min":111,"x_max":1028,"o":"m 111 0 m 618 1371 l 832 1371 l 832 1161 l 618 1161 l 618 1371 m 313 1371 l 526 1371 l 526 1161 l 313 1161 l 313 1371 m 569 -24 q 226 90 340 -24 q 111 414 111 204 l 111 1053 l 361 1053 l 361 414 q 413 244 361 301 q 569 188 465 188 q 726 244 674 188 q 778 414 778 301 l 778 1053 l 1028 1053 l 1028 414 q 914 90 1028 204 q 569 -24 800 -24 z "},"Ù":{"ha":1139,"x_min":111,"x_max":1028,"o":"m 111 0 m 569 -24 q 226 90 340 -24 q 111 414 111 204 l 111 1053 l 361 1053 l 361 414 q 413 244 361 301 q 569 188 465 188 q 726 244 674 188 q 778 414 778 301 l 778 1053 l 1028 1053 l 1028 414 q 914 90 1028 204 q 569 -24 800 -24 m 288 1374 l 563 1374 l 699 1161 l 456 1161 l 288 1374 z "},"Ű":{"ha":1139,"x_min":111,"x_max":1028,"o":"m 111 0 m 569 -24 q 226 90 340 -24 q 111 414 111 204 l 111 1053 l 361 1053 l 361 414 q 413 244 361 301 q 569 188 465 188 q 726 244 674 188 q 778 414 778 301 l 778 1053 l 1028 1053 l 1028 414 q 914 90 1028 204 q 569 -24 800 -24 m 753 1374 l 1000 1374 l 832 1161 l 617 1161 l 753 1374 m 440 1374 l 688 1374 l 519 1161 l 304 1161 l 440 1374 z "},"Ū":{"ha":1139,"x_min":111,"x_max":1028,"o":"m 111 0 m 569 -24 q 226 90 340 -24 q 111 414 111 204 l 111 1053 l 361 1053 l 361 414 q 413 244 361 301 q 569 188 465 188 q 726 244 674 188 q 778 414 778 301 l 778 1053 l 1028 1053 l 1028 414 q 914 90 1028 204 q 569 -24 800 -24 m 354 1343 l 783 1343 l 783 1193 l 354 1193 l 354 1343 z "},"Ų":{"ha":1139,"x_min":111,"x_max":1028,"o":"m 1028 1053 l 1028 414 q 947 126 1028 236 q 700 -12 865 17 q 586 -182 586 -107 q 642 -231 586 -231 q 715 -214 678 -231 l 715 -346 q 601 -365 657 -365 q 453 -328 503 -365 q 404 -222 404 -290 q 503 -21 404 -111 q 209 108 307 -4 q 111 414 111 221 l 111 1053 l 361 1053 l 361 414 q 413 244 361 301 q 569 188 465 188 q 726 244 674 188 q 778 414 778 301 l 778 1053 l 1028 1053 z "},"Ů":{"ha":1139,"x_min":111,"x_max":1028,"o":"m 111 0 m 569 -24 q 226 90 340 -24 q 111 414 111 204 l 111 1053 l 361 1053 l 361 414 q 413 244 361 301 q 569 188 465 188 q 726 244 674 188 q 778 414 778 301 l 778 1053 l 1028 1053 l 1028 414 q 914 90 1028 204 q 569 -24 800 -24 m 569 1139 q 440 1174 482 1139 q 399 1267 399 1208 q 439 1359 399 1325 q 569 1393 479 1393 q 698 1359 657 1393 q 739 1267 739 1325 q 698 1174 739 1208 q 569 1139 657 1139 m 569 1232 q 613 1267 613 1232 q 569 1300 613 1300 q 525 1267 525 1300 q 569 1232 525 1232 z "},"V":{"ha":1138,"x_min":42,"x_max":1096,"o":"m 1096 1053 l 728 -12 l 411 -12 l 42 1053 l 299 1053 l 569 246 l 839 1053 l 1096 1053 z "},"W":{"ha":1664,"x_min":69,"x_max":1594,"o":"m 1594 1053 l 1338 -12 l 1021 -12 l 832 703 l 644 -12 l 328 -12 l 69 1053 l 313 1053 l 489 278 l 686 1053 l 978 1053 l 1176 278 l 1351 1053 l 1594 1053 z "},"Ẃ":{"ha":1664,"x_min":69,"x_max":1594,"o":"m 69 0 m 1594 1053 l 1338 -12 l 1021 -12 l 832 703 l 644 -12 l 328 -12 l 69 1053 l 313 1053 l 489 278 l 686 1053 l 978 1053 l 1176 278 l 1351 1053 l 1594 1053 m 849 1374 l 1124 1374 l 956 1161 l 713 1161 l 849 1374 z "},"Ŵ":{"ha":1664,"x_min":69,"x_max":1594,"o":"m 69 0 m 1594 1053 l 1338 -12 l 1021 -12 l 832 703 l 644 -12 l 328 -12 l 69 1053 l 313 1053 l 489 278 l 686 1053 l 978 1053 l 1176 278 l 1351 1053 l 1594 1053 m 888 1161 l 832 1288 l 775 1161 l 542 1161 l 668 1374 l 994 1374 l 1121 1161 l 888 1161 z "},"Ẅ":{"ha":1664,"x_min":69,"x_max":1594,"o":"m 69 0 m 1594 1053 l 1338 -12 l 1021 -12 l 832 703 l 644 -12 l 328 -12 l 69 1053 l 313 1053 l 489 278 l 686 1053 l 978 1053 l 1176 278 l 1351 1053 l 1594 1053 m 881 1371 l 1094 1371 l 1094 1161 l 881 1161 l 881 1371 m 575 1371 l 789 1371 l 789 1161 l 575 1161 l 575 1371 z "},"Ẁ":{"ha":1664,"x_min":69,"x_max":1594,"o":"m 69 0 m 1594 1053 l 1338 -12 l 1021 -12 l 832 703 l 644 -12 l 328 -12 l 69 1053 l 313 1053 l 489 278 l 686 1053 l 978 1053 l 1176 278 l 1351 1053 l 1594 1053 m 550 1374 l 825 1374 l 961 1161 l 718 1161 l 550 1374 z "},"X":{"ha":1128,"x_min":42,"x_max":1086,"o":"m 797 0 l 564 353 l 331 0 l 42 0 l 421 543 l 67 1053 l 354 1053 l 565 735 l 775 1053 l 1063 1053 l 708 543 l 1086 0 l 797 0 z "},"Y":{"ha":1018,"x_min":28,"x_max":990,"o":"m 631 407 l 631 0 l 386 0 l 386 407 l 28 1053 l 278 1053 l 508 629 l 740 1053 l 990 1053 l 631 407 z "},"Ý":{"ha":1018,"x_min":28,"x_max":990,"o":"m 28 0 m 631 407 l 631 0 l 386 0 l 386 407 l 28 1053 l 278 1053 l 508 629 l 740 1053 l 990 1053 l 631 407 m 526 1374 l 801 1374 l 633 1161 l 390 1161 l 526 1374 z "},"Ŷ":{"ha":1018,"x_min":28,"x_max":990,"o":"m 28 0 m 631 407 l 631 0 l 386 0 l 386 407 l 28 1053 l 278 1053 l 508 629 l 740 1053 l 990 1053 l 631 407 m 565 1161 l 510 1288 l 453 1161 l 219 1161 l 346 1374 l 672 1374 l 799 1161 l 565 1161 z "},"Ÿ":{"ha":1018,"x_min":28,"x_max":990,"o":"m 28 0 m 631 407 l 631 0 l 386 0 l 386 407 l 28 1053 l 278 1053 l 508 629 l 740 1053 l 990 1053 l 631 407 m 558 1371 l 772 1371 l 772 1161 l 558 1161 l 558 1371 m 253 1371 l 467 1371 l 467 1161 l 253 1161 l 253 1371 z "},"Ỳ":{"ha":1018,"x_min":28,"x_max":990,"o":"m 28 0 m 631 407 l 631 0 l 386 0 l 386 407 l 28 1053 l 278 1053 l 508 629 l 740 1053 l 990 1053 l 631 407 m 228 1374 l 503 1374 l 639 1161 l 396 1161 l 228 1374 z "},"Z":{"ha":1025,"x_min":111,"x_max":942,"o":"m 942 214 l 942 0 l 111 0 l 111 211 l 581 839 l 129 839 l 129 1053 l 896 1053 l 896 842 l 428 214 l 942 214 z "},"Ź":{"ha":1025,"x_min":111,"x_max":942,"o":"m 111 0 m 942 214 l 942 0 l 111 0 l 111 211 l 581 839 l 129 839 l 129 1053 l 896 1053 l 896 842 l 428 214 l 942 214 m 538 1374 l 813 1374 l 644 1161 l 401 1161 l 538 1374 z "},"Ž":{"ha":1025,"x_min":111,"x_max":942,"o":"m 111 0 m 942 214 l 942 0 l 111 0 l 111 211 l 581 839 l 129 839 l 129 1053 l 896 1053 l 896 842 l 428 214 l 942 214 m 810 1374 l 683 1161 l 357 1161 l 231 1374 l 464 1374 l 521 1247 l 576 1374 l 810 1374 z "},"Ż":{"ha":1025,"x_min":111,"x_max":942,"o":"m 111 0 m 942 214 l 942 0 l 111 0 l 111 211 l 581 839 l 129 839 l 129 1053 l 896 1053 l 896 842 l 428 214 l 942 214 m 403 1371 l 644 1371 l 644 1161 l 403 1161 l 403 1371 z "},"a":{"ha":858,"x_min":42,"x_max":768,"o":"m 403 786 q 635 745 556 786 q 742 636 715 704 q 768 463 768 568 l 768 0 l 526 0 l 526 64 q 431 1 478 19 q 326 -18 383 -18 q 117 52 193 -18 q 42 247 42 122 q 119 442 42 374 q 333 510 196 510 q 526 468 447 510 q 515 530 525 507 q 473 565 504 553 q 382 578 442 578 l 224 578 l 224 786 l 403 786 m 378 168 q 526 232 449 168 l 526 306 q 392 338 460 338 q 314 316 342 338 q 286 250 286 294 q 310 186 286 204 q 378 168 333 168 z "},"á":{"ha":858,"x_min":42,"x_max":768,"o":"m 42 0 m 403 786 q 635 745 556 786 q 742 636 715 704 q 768 463 768 568 l 768 0 l 526 0 l 526 64 q 431 1 478 19 q 326 -18 383 -18 q 117 52 193 -18 q 42 247 42 122 q 119 442 42 374 q 333 510 196 510 q 526 468 447 510 q 515 530 525 507 q 473 565 504 553 q 382 578 442 578 l 224 578 l 224 786 l 403 786 m 378 168 q 526 232 449 168 l 526 306 q 392 338 460 338 q 314 316 342 338 q 286 250 286 294 q 310 186 286 204 q 378 168 333 168 m 422 1124 l 697 1124 l 529 911 l 286 911 l 422 1124 z "},"ă":{"ha":858,"x_min":42,"x_max":768,"o":"m 42 0 m 403 786 q 635 745 556 786 q 742 636 715 704 q 768 463 768 568 l 768 0 l 526 0 l 526 64 q 431 1 478 19 q 326 -18 383 -18 q 117 52 193 -18 q 42 247 42 122 q 119 442 42 374 q 333 510 196 510 q 526 468 447 510 q 515 530 525 507 q 473 565 504 553 q 382 578 442 578 l 224 578 l 224 786 l 403 786 m 378 168 q 526 232 449 168 l 526 306 q 392 338 460 338 q 314 316 342 338 q 286 250 286 294 q 310 186 286 204 q 378 168 333 168 m 411 900 q 175 1090 175 900 l 175 1121 l 356 1121 l 356 1096 q 369 1050 356 1064 q 411 1036 382 1036 q 453 1050 440 1036 q 467 1096 467 1064 l 467 1121 l 647 1121 l 647 1090 q 411 900 647 900 z "},"â":{"ha":858,"x_min":42,"x_max":768,"o":"m 42 0 m 403 786 q 635 745 556 786 q 742 636 715 704 q 768 463 768 568 l 768 0 l 526 0 l 526 64 q 431 1 478 19 q 326 -18 383 -18 q 117 52 193 -18 q 42 247 42 122 q 119 442 42 374 q 333 510 196 510 q 526 468 447 510 q 515 530 525 507 q 473 565 504 553 q 382 578 442 578 l 224 578 l 224 786 l 403 786 m 378 168 q 526 232 449 168 l 526 306 q 392 338 460 338 q 314 316 342 338 q 286 250 286 294 q 310 186 286 204 q 378 168 333 168 m 465 911 l 410 1038 l 353 911 l 119 911 l 246 1124 l 572 1124 l 699 911 l 465 911 z "},"ä":{"ha":858,"x_min":42,"x_max":768,"o":"m 42 0 m 403 786 q 635 745 556 786 q 742 636 715 704 q 768 463 768 568 l 768 0 l 526 0 l 526 64 q 431 1 478 19 q 326 -18 383 -18 q 117 52 193 -18 q 42 247 42 122 q 119 442 42 374 q 333 510 196 510 q 526 468 447 510 q 515 530 525 507 q 473 565 504 553 q 382 578 442 578 l 224 578 l 224 786 l 403 786 m 378 168 q 526 232 449 168 l 526 306 q 392 338 460 338 q 314 316 342 338 q 286 250 286 294 q 310 186 286 204 q 378 168 333 168 m 458 1121 l 672 1121 l 672 911 l 458 911 l 458 1121 m 153 1121 l 367 1121 l 367 911 l 153 911 l 153 1121 z "},"à":{"ha":858,"x_min":42,"x_max":768,"o":"m 42 0 m 403 786 q 635 745 556 786 q 742 636 715 704 q 768 463 768 568 l 768 0 l 526 0 l 526 64 q 431 1 478 19 q 326 -18 383 -18 q 117 52 193 -18 q 42 247 42 122 q 119 442 42 374 q 333 510 196 510 q 526 468 447 510 q 515 530 525 507 q 473 565 504 553 q 382 578 442 578 l 224 578 l 224 786 l 403 786 m 378 168 q 526 232 449 168 l 526 306 q 392 338 460 338 q 314 316 342 338 q 286 250 286 294 q 310 186 286 204 q 378 168 333 168 m 125 1124 l 400 1124 l 536 911 l 293 911 l 125 1124 z "},"ā":{"ha":858,"x_min":42,"x_max":768,"o":"m 42 0 m 403 786 q 635 745 556 786 q 742 636 715 704 q 768 463 768 568 l 768 0 l 526 0 l 526 64 q 431 1 478 19 q 326 -18 383 -18 q 117 52 193 -18 q 42 247 42 122 q 119 442 42 374 q 333 510 196 510 q 526 468 447 510 q 515 530 525 507 q 473 565 504 553 q 382 578 442 578 l 224 578 l 224 786 l 403 786 m 378 168 q 526 232 449 168 l 526 306 q 392 338 460 338 q 314 316 342 338 q 286 250 286 294 q 310 186 286 204 q 378 168 333 168 m 194 1093 l 624 1093 l 624 943 l 194 943 l 194 1093 z "},"ą":{"ha":858,"x_min":42,"x_max":768,"o":"m 403 786 q 635 745 556 786 q 742 636 715 704 q 768 463 768 568 l 768 0 q 639 -182 639 -100 q 694 -231 639 -231 q 768 -214 731 -231 l 768 -346 q 654 -365 710 -365 q 506 -328 556 -365 q 457 -222 457 -290 q 488 -106 457 -164 q 581 0 518 -49 l 526 0 l 526 64 q 431 1 478 19 q 326 -18 383 -18 q 117 52 193 -18 q 42 247 42 122 q 119 442 42 374 q 333 510 196 510 q 526 468 447 510 q 515 530 525 507 q 473 565 504 553 q 382 578 442 578 l 224 578 l 224 786 l 403 786 m 378 168 q 526 232 449 168 l 526 306 q 392 338 460 338 q 314 316 342 338 q 286 250 286 294 q 310 186 286 204 q 378 168 333 168 z "},"å":{"ha":858,"x_min":42,"x_max":768,"o":"m 42 0 m 403 786 q 635 745 556 786 q 742 636 715 704 q 768 463 768 568 l 768 0 l 526 0 l 526 64 q 431 1 478 19 q 326 -18 383 -18 q 117 52 193 -18 q 42 247 42 122 q 119 442 42 374 q 333 510 196 510 q 526 468 447 510 q 515 530 525 507 q 473 565 504 553 q 382 578 442 578 l 224 578 l 224 786 l 403 786 m 378 168 q 526 232 449 168 l 526 306 q 392 338 460 338 q 314 316 342 338 q 286 250 286 294 q 310 186 286 204 q 378 168 333 168 m 410 889 q 281 924 322 889 q 239 1017 239 958 q 279 1109 239 1075 q 410 1143 319 1143 q 538 1109 497 1143 q 579 1017 579 1075 q 538 924 579 958 q 410 889 497 889 m 410 982 q 453 1017 453 982 q 410 1050 453 1050 q 365 1017 365 1050 q 410 982 365 982 z "},"ã":{"ha":858,"x_min":42,"x_max":768,"o":"m 42 0 m 403 786 q 635 745 556 786 q 742 636 715 704 q 768 463 768 568 l 768 0 l 526 0 l 526 64 q 431 1 478 19 q 326 -18 383 -18 q 117 52 193 -18 q 42 247 42 122 q 119 442 42 374 q 333 510 196 510 q 526 468 447 510 q 515 530 525 507 q 473 565 504 553 q 382 578 442 578 l 224 578 l 224 786 l 403 786 m 378 168 q 526 232 449 168 l 526 306 q 392 338 460 338 q 314 316 342 338 q 286 250 286 294 q 310 186 286 204 q 378 168 333 168 m 144 910 q 185 1072 144 1028 q 296 1115 225 1115 q 376 1101 335 1115 l 428 1085 q 481 1072 469 1072 q 507 1115 507 1072 l 674 1115 q 633 953 674 997 q 522 910 593 910 q 442 924 483 910 l 390 940 q 338 953 349 953 q 311 910 311 953 l 144 910 z "},"æ":{"ha":1324,"x_min":42,"x_max":1282,"o":"m 785 318 q 848 214 800 251 q 989 176 896 176 q 1092 190 1043 176 q 1206 235 1142 203 l 1268 49 q 1125 -8 1196 8 q 956 -24 1054 -24 q 760 10 846 -24 q 619 106 675 43 q 481 9 550 36 q 326 -18 413 -18 q 117 52 193 -18 q 42 247 42 122 q 119 442 42 374 q 333 510 196 510 q 526 468 447 510 q 515 530 525 507 q 473 565 504 553 q 382 578 442 578 l 224 578 l 224 786 l 403 786 q 667 699 594 786 q 783 781 715 753 q 931 808 850 808 q 1186 707 1090 808 q 1282 414 1282 606 l 1282 318 l 785 318 m 911 608 q 830 583 861 608 q 786 497 799 558 l 1028 497 q 994 582 1022 556 q 911 608 965 608 m 378 168 q 543 246 453 168 q 531 303 535 272 q 392 338 461 338 q 314 316 342 338 q 286 250 286 294 q 310 186 286 204 q 378 168 333 168 z "},"b":{"ha":960,"x_min":97,"x_max":911,"o":"m 550 808 q 737 762 656 808 q 865 622 818 715 q 911 393 911 528 q 865 163 911 257 q 737 23 818 69 q 550 -24 656 -24 q 339 51 438 -24 l 339 0 l 97 0 l 97 1175 l 339 1175 l 339 733 q 550 808 438 808 m 497 190 q 619 242 578 190 q 660 393 660 293 q 619 543 660 492 q 497 594 578 594 q 339 538 418 594 l 339 247 q 497 190 418 190 z "},"c":{"ha":758,"x_min":49,"x_max":731,"o":"m 449 -24 q 151 87 254 -22 q 49 394 49 196 q 151 699 49 592 q 449 808 254 807 q 569 800 519 808 q 674 769 619 792 l 674 550 q 577 585 622 575 q 476 594 532 594 q 342 543 383 593 q 300 396 300 493 q 340 243 300 296 q 469 190 381 190 q 566 206 519 190 q 663 253 613 221 l 731 53 q 449 -24 603 -24 z "},"ć":{"ha":758,"x_min":49,"x_max":731,"o":"m 49 0 m 449 -24 q 151 87 254 -22 q 49 394 49 196 q 151 699 49 592 q 449 808 254 807 q 569 800 519 808 q 674 769 619 792 l 674 550 q 577 585 622 575 q 476 594 532 594 q 342 543 383 593 q 300 396 300 493 q 340 243 300 296 q 469 190 381 190 q 566 206 519 190 q 663 253 613 221 l 731 53 q 449 -24 603 -24 m 446 1124 l 721 1124 l 553 911 l 310 911 l 446 1124 z "},"č":{"ha":758,"x_min":49,"x_max":731,"o":"m 49 0 m 449 -24 q 151 87 254 -22 q 49 394 49 196 q 151 699 49 592 q 449 808 254 807 q 569 800 519 808 q 674 769 619 792 l 674 550 q 577 585 622 575 q 476 594 532 594 q 342 543 383 593 q 300 396 300 493 q 340 243 300 296 q 469 190 381 190 q 566 206 519 190 q 663 253 613 221 l 731 53 q 449 -24 603 -24 m 722 1124 l 596 911 l 269 911 l 143 1124 l 376 1124 l 433 997 l 489 1124 l 722 1124 z "},"ç":{"ha":758,"x_min":49,"x_max":731,"o":"m 496 -61 q 605 -101 567 -62 q 643 -204 643 -140 q 593 -322 643 -278 q 446 -365 543 -365 q 364 -360 400 -365 q 290 -337 328 -354 l 290 -206 q 418 -235 354 -235 q 463 -228 450 -235 q 475 -210 475 -222 q 460 -190 475 -196 q 410 -183 446 -183 q 307 -199 353 -183 l 357 -17 q 127 115 206 10 q 49 394 49 221 q 151 699 49 592 q 449 808 254 807 q 569 800 519 808 q 674 769 619 792 l 674 550 q 577 585 622 575 q 476 594 532 594 q 342 543 383 593 q 300 396 300 493 q 340 243 300 296 q 469 190 381 190 q 566 206 519 190 q 663 253 613 221 l 731 53 q 510 -21 626 -10 l 496 -61 z "},"ċ":{"ha":758,"x_min":49,"x_max":731,"o":"m 49 0 m 449 -24 q 151 87 254 -22 q 49 394 49 196 q 151 699 49 592 q 449 808 254 807 q 569 800 519 808 q 674 769 619 792 l 674 550 q 577 585 622 575 q 476 594 532 594 q 342 543 383 593 q 300 396 300 493 q 340 243 300 296 q 469 190 381 190 q 566 206 519 190 q 663 253 613 221 l 731 53 q 449 -24 603 -24 m 315 1121 l 557 1121 l 557 911 l 315 911 l 315 1121 z "},"d":{"ha":960,"x_min":49,"x_max":863,"o":"m 863 1175 l 863 0 l 621 0 l 621 51 q 410 -24 522 -24 q 223 23 304 -24 q 95 163 142 69 q 49 393 49 257 q 95 622 49 528 q 223 762 142 715 q 410 808 304 808 q 621 733 522 808 l 621 1175 l 863 1175 m 463 190 q 621 247 542 190 l 621 538 q 463 594 542 594 q 341 543 382 594 q 300 393 300 492 q 341 242 300 293 q 463 190 382 190 z "},"ð":{"ha":935,"x_min":49,"x_max":886,"o":"m 661 1031 q 886 451 886 792 q 778 104 886 232 q 468 -24 671 -24 q 161 81 274 -24 q 49 383 49 185 q 98 619 49 528 q 227 753 147 711 q 401 794 307 794 q 557 758 478 794 q 463 881 519 818 l 367 808 l 268 929 l 338 983 q 257 1032 300 1008 l 453 1197 q 540 1138 490 1175 l 639 1214 l 740 1090 l 661 1031 m 468 190 q 596 253 550 190 q 642 435 642 317 q 636 521 642 483 q 467 581 549 581 q 342 537 392 581 q 293 383 293 493 q 340 235 293 281 q 468 190 388 190 z "},"ď":{"ha":960,"x_min":49,"x_max":1215,"o":"m 49 0 m 863 1175 l 863 0 l 621 0 l 621 51 q 410 -24 522 -24 q 223 23 304 -24 q 95 163 142 69 q 49 393 49 257 q 95 622 49 528 q 223 762 142 715 q 410 808 304 808 q 621 733 522 808 l 621 1175 l 863 1175 m 463 190 q 621 247 542 190 l 621 538 q 463 594 542 594 q 341 543 382 594 q 300 393 300 492 q 341 242 300 293 q 463 190 382 190 m 974 1053 l 1215 1053 l 1110 772 l 904 772 l 974 1053 z "},"đ":{"ha":960,"x_min":49,"x_max":960,"o":"m 960 869 l 863 869 l 863 0 l 621 0 l 621 51 q 410 -24 522 -24 q 223 23 304 -24 q 95 163 142 69 q 49 393 49 257 q 95 622 49 528 q 223 762 142 715 q 410 808 304 808 q 621 733 522 808 l 621 869 l 403 869 l 403 1047 l 621 1047 l 621 1175 l 863 1175 l 863 1047 l 960 1047 l 960 869 m 463 190 q 621 247 542 190 l 621 538 q 463 594 542 594 q 341 543 382 594 q 300 393 300 492 q 341 242 300 293 q 463 190 382 190 z "},"e":{"ha":847,"x_min":49,"x_max":806,"o":"m 308 318 q 372 214 324 251 q 513 176 419 176 q 616 190 567 176 q 729 235 665 203 l 792 49 q 649 -8 719 8 q 479 -24 578 -24 q 245 28 342 -24 q 99 175 149 81 q 49 394 49 269 q 100 619 49 525 q 239 760 151 713 q 435 808 326 808 q 707 708 608 808 q 806 414 806 607 l 806 318 l 308 318 m 435 608 q 353 583 385 608 q 310 497 322 558 l 551 497 q 517 582 546 556 q 435 608 489 608 z "},"é":{"ha":847,"x_min":49,"x_max":806,"o":"m 49 0 m 308 318 q 372 214 324 251 q 513 176 419 176 q 616 190 567 176 q 729 235 665 203 l 792 49 q 649 -8 719 8 q 479 -24 578 -24 q 245 28 342 -24 q 99 175 149 81 q 49 394 49 269 q 100 619 49 525 q 239 760 151 713 q 435 808 326 808 q 707 708 608 808 q 806 414 806 607 l 806 318 l 308 318 m 435 608 q 353 583 385 608 q 310 497 322 558 l 551 497 q 517 582 546 556 q 435 608 489 608 m 450 1124 l 725 1124 l 557 911 l 314 911 l 450 1124 z "},"ě":{"ha":847,"x_min":49,"x_max":806,"o":"m 49 0 m 308 318 q 372 214 324 251 q 513 176 419 176 q 616 190 567 176 q 729 235 665 203 l 792 49 q 649 -8 719 8 q 479 -24 578 -24 q 245 28 342 -24 q 99 175 149 81 q 49 394 49 269 q 100 619 49 525 q 239 760 151 713 q 435 808 326 808 q 707 708 608 808 q 806 414 806 607 l 806 318 l 308 318 m 435 608 q 353 583 385 608 q 310 497 322 558 l 551 497 q 517 582 546 556 q 435 608 489 608 m 726 1124 l 600 911 l 274 911 l 147 1124 l 381 1124 l 438 997 l 493 1124 l 726 1124 z "},"ê":{"ha":847,"x_min":49,"x_max":806,"o":"m 49 0 m 308 318 q 372 214 324 251 q 513 176 419 176 q 616 190 567 176 q 729 235 665 203 l 792 49 q 649 -8 719 8 q 479 -24 578 -24 q 245 28 342 -24 q 99 175 149 81 q 49 394 49 269 q 100 619 49 525 q 239 760 151 713 q 435 808 326 808 q 707 708 608 808 q 806 414 806 607 l 806 318 l 308 318 m 435 608 q 353 583 385 608 q 310 497 322 558 l 551 497 q 517 582 546 556 q 435 608 489 608 m 493 911 l 438 1038 l 381 911 l 147 911 l 274 1124 l 600 1124 l 726 911 l 493 911 z "},"ë":{"ha":847,"x_min":49,"x_max":806,"o":"m 49 0 m 308 318 q 372 214 324 251 q 513 176 419 176 q 616 190 567 176 q 729 235 665 203 l 792 49 q 649 -8 719 8 q 479 -24 578 -24 q 245 28 342 -24 q 99 175 149 81 q 49 394 49 269 q 100 619 49 525 q 239 760 151 713 q 435 808 326 808 q 707 708 608 808 q 806 414 806 607 l 806 318 l 308 318 m 435 608 q 353 583 385 608 q 310 497 322 558 l 551 497 q 517 582 546 556 q 435 608 489 608 m 486 1121 l 700 1121 l 700 911 l 486 911 l 486 1121 m 181 1121 l 394 1121 l 394 911 l 181 911 l 181 1121 z "},"ė":{"ha":847,"x_min":49,"x_max":806,"o":"m 49 0 m 308 318 q 372 214 324 251 q 513 176 419 176 q 616 190 567 176 q 729 235 665 203 l 792 49 q 649 -8 719 8 q 479 -24 578 -24 q 245 28 342 -24 q 99 175 149 81 q 49 394 49 269 q 100 619 49 525 q 239 760 151 713 q 435 808 326 808 q 707 708 608 808 q 806 414 806 607 l 806 318 l 308 318 m 435 608 q 353 583 385 608 q 310 497 322 558 l 551 497 q 517 582 546 556 q 435 608 489 608 m 319 1121 l 561 1121 l 561 911 l 319 911 l 319 1121 z "},"è":{"ha":847,"x_min":49,"x_max":806,"o":"m 49 0 m 308 318 q 372 214 324 251 q 513 176 419 176 q 616 190 567 176 q 729 235 665 203 l 792 49 q 649 -8 719 8 q 479 -24 578 -24 q 245 28 342 -24 q 99 175 149 81 q 49 394 49 269 q 100 619 49 525 q 239 760 151 713 q 435 808 326 808 q 707 708 608 808 q 806 414 806 607 l 806 318 l 308 318 m 435 608 q 353 583 385 608 q 310 497 322 558 l 551 497 q 517 582 546 556 q 435 608 489 608 m 153 1124 l 428 1124 l 564 911 l 321 911 l 153 1124 z "},"ē":{"ha":847,"x_min":49,"x_max":806,"o":"m 49 0 m 308 318 q 372 214 324 251 q 513 176 419 176 q 616 190 567 176 q 729 235 665 203 l 792 49 q 649 -8 719 8 q 479 -24 578 -24 q 245 28 342 -24 q 99 175 149 81 q 49 394 49 269 q 100 619 49 525 q 239 760 151 713 q 435 808 326 808 q 707 708 608 808 q 806 414 806 607 l 806 318 l 308 318 m 435 608 q 353 583 385 608 q 310 497 322 558 l 551 497 q 517 582 546 556 q 435 608 489 608 m 222 1093 l 651 1093 l 651 943 l 222 943 l 222 1093 z "},"ę":{"ha":847,"x_min":49,"x_max":806,"o":"m 308 318 q 372 214 324 251 q 513 176 419 176 q 616 190 567 176 q 729 235 665 203 l 792 49 q 671 -3 742 19 q 578 -94 613 -49 q 544 -182 544 -140 q 600 -231 544 -231 q 674 -214 636 -231 l 674 -346 q 560 -365 615 -365 q 412 -328 461 -365 q 363 -222 363 -290 q 386 -120 363 -171 q 458 -24 410 -69 q 235 34 328 -19 q 96 180 143 88 q 49 394 49 272 q 100 619 49 525 q 239 760 151 713 q 435 808 326 808 q 707 708 608 808 q 806 414 806 607 l 806 318 l 308 318 m 435 608 q 353 583 385 608 q 310 497 322 558 l 551 497 q 517 582 546 556 q 435 608 489 608 z "},"f":{"ha":565,"x_min":42,"x_max":531,"o":"m 449 979 q 393 960 408 979 q 378 896 378 942 l 378 786 l 531 786 l 531 572 l 378 572 l 378 0 l 136 0 l 136 572 l 42 572 l 42 786 l 136 786 l 136 983 q 197 1139 136 1085 q 381 1193 257 1193 q 451 1188 418 1193 q 531 1174 483 1183 l 531 968 q 449 979 494 979 z "},"g":{"ha":953,"x_min":42,"x_max":856,"o":"m 856 786 l 856 3 q 813 -177 856 -97 q 688 -303 771 -257 q 490 -349 606 -349 q 292 -337 378 -349 q 131 -299 206 -326 l 131 -76 q 279 -121 204 -107 q 414 -135 354 -135 q 566 -96 518 -135 q 614 17 614 -57 l 614 79 q 403 4 515 4 q 140 102 238 4 q 42 407 42 200 q 88 628 42 538 q 216 763 135 718 q 403 808 297 808 q 614 733 515 808 l 614 786 l 856 786 m 456 218 q 614 275 535 218 l 614 538 q 456 594 535 594 q 334 547 375 594 q 293 407 293 499 q 333 260 293 303 q 456 218 372 218 z "},"ğ":{"ha":953,"x_min":42,"x_max":856,"o":"m 42 0 m 856 786 l 856 3 q 813 -177 856 -97 q 688 -303 771 -257 q 490 -349 606 -349 q 292 -337 378 -349 q 131 -299 206 -326 l 131 -76 q 279 -121 204 -107 q 414 -135 354 -135 q 566 -96 518 -135 q 614 17 614 -57 l 614 79 q 403 4 515 4 q 140 102 238 4 q 42 407 42 200 q 88 628 42 538 q 216 763 135 718 q 403 808 297 808 q 614 733 515 808 l 614 786 l 856 786 m 456 218 q 614 275 535 218 l 614 538 q 456 594 535 594 q 334 547 375 594 q 293 407 293 499 q 333 260 293 303 q 456 218 372 218 m 478 900 q 242 1090 242 900 l 242 1121 l 422 1121 l 422 1096 q 435 1050 422 1064 q 478 1036 449 1036 q 520 1050 507 1036 q 533 1096 533 1064 l 533 1121 l 714 1121 l 714 1090 q 478 900 714 900 z "},"ģ":{"ha":953,"x_min":42,"x_max":856,"o":"m 42 0 m 856 786 l 856 3 q 813 -177 856 -97 q 688 -303 771 -257 q 490 -349 606 -349 q 292 -337 378 -349 q 131 -299 206 -326 l 131 -76 q 279 -121 204 -107 q 414 -135 354 -135 q 566 -96 518 -135 q 614 17 614 -57 l 614 79 q 403 4 515 4 q 140 102 238 4 q 42 407 42 200 q 88 628 42 538 q 216 763 135 718 q 403 808 297 808 q 614 733 515 808 l 614 786 l 856 786 m 456 218 q 614 275 535 218 l 614 538 q 456 594 535 594 q 334 547 375 594 q 293 407 293 499 q 333 260 293 303 q 456 218 372 218 m 419 1171 l 647 1171 l 603 940 l 353 940 l 419 1171 z "},"ġ":{"ha":953,"x_min":42,"x_max":856,"o":"m 42 0 m 856 786 l 856 3 q 813 -177 856 -97 q 688 -303 771 -257 q 490 -349 606 -349 q 292 -337 378 -349 q 131 -299 206 -326 l 131 -76 q 279 -121 204 -107 q 414 -135 354 -135 q 566 -96 518 -135 q 614 17 614 -57 l 614 79 q 403 4 515 4 q 140 102 238 4 q 42 407 42 200 q 88 628 42 538 q 216 763 135 718 q 403 808 297 808 q 614 733 515 808 l 614 786 l 856 786 m 456 218 q 614 275 535 218 l 614 538 q 456 594 535 594 q 334 547 375 594 q 293 407 293 499 q 333 260 293 303 q 456 218 372 218 m 358 1121 l 600 1121 l 600 911 l 358 911 l 358 1121 z "},"h":{"ha":961,"x_min":97,"x_max":871,"o":"m 558 803 q 793 724 715 803 q 871 472 871 644 l 871 0 l 629 0 l 629 472 q 601 559 629 529 q 504 589 572 589 q 339 522 424 589 l 339 0 l 97 0 l 97 1175 l 339 1175 l 339 724 q 444 783 390 764 q 558 803 497 803 z "},"ħ":{"ha":961,"x_min":-4,"x_max":871,"o":"m 558 803 q 793 724 715 803 q 871 472 871 644 l 871 0 l 629 0 l 629 472 q 601 559 629 529 q 504 589 572 589 q 339 522 424 589 l 339 0 l 97 0 l 97 869 l -4 869 l -4 1047 l 97 1047 l 97 1175 l 339 1175 l 339 1047 l 553 1047 l 553 869 l 339 869 l 339 724 q 444 783 390 764 q 558 803 497 803 z "},"i":{"ha":436,"x_min":97,"x_max":339,"o":"m 97 1121 l 339 1121 l 339 911 l 97 911 l 97 1121 m 97 786 l 339 786 l 339 0 l 97 0 l 97 786 z "},"ı":{"ha":436,"x_min":97,"x_max":339,"o":"m 97 786 l 339 786 l 339 0 l 97 0 l 97 786 z "},"í":{"ha":436,"x_min":94,"x_max":506,"o":"m 94 0 m 97 786 l 339 786 l 339 0 l 97 0 l 97 786 m 231 1124 l 506 1124 l 338 911 l 94 911 l 231 1124 z "},"î":{"ha":436,"x_min":-72,"x_max":507,"o":"m 0 0 m 97 786 l 339 786 l 339 0 l 97 0 l 97 786 m 274 911 l 218 1038 l 161 911 l -72 911 l 54 1124 l 381 1124 l 507 911 l 274 911 z "},"ï":{"ha":436,"x_min":-39,"x_max":481,"o":"m 0 0 m 97 786 l 339 786 l 339 0 l 97 0 l 97 786 m 267 1121 l 481 1121 l 481 911 l 267 911 l 267 1121 m -39 1121 l 175 1121 l 175 911 l -39 911 l -39 1121 z "},"ì":{"ha":436,"x_min":-67,"x_max":344,"o":"m 0 0 m 97 786 l 339 786 l 339 0 l 97 0 l 97 786 m -67 1124 l 208 1124 l 344 911 l 101 911 l -67 1124 z "},"ĳ":{"ha":872,"x_min":97,"x_max":775,"o":"m 97 0 m 97 1121 l 339 1121 l 339 911 l 97 911 l 97 1121 m 97 786 l 339 786 l 339 0 l 97 0 l 97 786 m 533 1121 l 775 1121 l 775 911 l 533 911 l 533 1121 m 531 -347 q 460 -342 493 -347 q 381 -328 428 -337 l 381 -122 q 463 -133 417 -133 q 518 -115 503 -133 q 533 -50 533 -96 l 533 790 l 775 790 l 775 -137 q 715 -293 775 -239 q 531 -347 654 -347 z "},"ī":{"ha":436,"x_min":3,"x_max":432,"o":"m 3 0 m 97 786 l 339 786 l 339 0 l 97 0 l 97 786 m 3 1093 l 432 1093 l 432 943 l 3 943 l 3 1093 z "},"į":{"ha":436,"x_min":1,"x_max":339,"o":"m 339 1121 l 339 911 l 97 911 l 97 1121 l 339 1121 m 97 786 l 339 786 l 339 0 l 313 0 q 183 -182 183 -100 q 239 -231 183 -231 q 313 -214 275 -231 l 313 -346 q 199 -365 254 -365 q 51 -328 100 -365 q 1 -222 1 -290 q 32 -106 1 -164 q 125 0 63 -49 l 97 0 l 97 786 z "},"j":{"ha":436,"x_min":-56,"x_max":339,"o":"m 97 1121 l 339 1121 l 339 911 l 97 911 l 97 1121 m 94 -347 q 24 -342 57 -347 q -56 -328 -8 -337 l -56 -122 q 26 -133 -19 -133 q 82 -115 67 -133 q 97 -50 97 -96 l 97 790 l 339 790 l 339 -137 q 278 -293 339 -239 q 94 -347 218 -347 z "},"ȷ":{"ha":436,"x_min":-56,"x_max":339,"o":"m 94 -347 q 24 -342 57 -347 q -56 -328 -8 -337 l -56 -122 q 26 -133 -19 -133 q 82 -115 67 -133 q 97 -50 97 -96 l 97 790 l 339 790 l 339 -137 q 278 -293 339 -239 q 94 -347 218 -347 z "},"k":{"ha":913,"x_min":97,"x_max":899,"o":"m 403 263 l 339 194 l 339 0 l 97 0 l 97 1175 l 339 1175 l 339 496 l 585 758 l 874 758 l 561 428 l 899 0 l 610 0 l 403 263 z "},"ķ":{"ha":913,"x_min":97,"x_max":899,"o":"m 97 0 m 403 263 l 339 194 l 339 0 l 97 0 l 97 1175 l 339 1175 l 339 496 l 585 758 l 874 758 l 561 428 l 899 0 l 610 0 l 403 263 m 339 -111 l 589 -111 l 522 -342 l 294 -342 l 339 -111 z "},"l":{"ha":526,"x_min":97,"x_max":492,"o":"m 342 -18 q 158 36 218 -18 q 97 192 97 90 l 97 1175 l 339 1175 l 339 279 q 354 215 339 233 q 410 196 369 196 q 492 207 456 196 l 492 1 q 412 -13 444 -8 q 342 -18 379 -18 z "},"ĺ":{"ha":526,"x_min":92,"x_max":503,"o":"m 92 0 m 342 -18 q 158 36 218 -18 q 97 192 97 90 l 97 1175 l 339 1175 l 339 279 q 354 215 339 233 q 410 196 369 196 q 492 207 456 196 l 492 1 q 412 -13 444 -8 q 342 -18 379 -18 m 228 1540 l 503 1540 l 335 1328 l 92 1328 l 228 1540 z "},"ľ":{"ha":526,"x_min":97,"x_max":692,"o":"m 97 0 m 342 -18 q 158 36 218 -18 q 97 192 97 90 l 97 1175 l 339 1175 l 339 279 q 354 215 339 233 q 410 196 369 196 q 492 207 456 196 l 492 1 q 412 -13 444 -8 q 342 -18 379 -18 m 450 1053 l 692 1053 l 586 772 l 381 772 l 450 1053 z "},"ļ":{"ha":526,"x_min":97,"x_max":492,"o":"m 97 0 m 342 -18 q 158 36 218 -18 q 97 192 97 90 l 97 1175 l 339 1175 l 339 279 q 354 215 339 233 q 410 196 369 196 q 492 207 456 196 l 492 1 q 412 -13 444 -8 q 342 -18 379 -18 m 199 -111 l 449 -111 l 382 -342 l 154 -342 l 199 -111 z "},"ŀ":{"ha":526,"x_min":97,"x_max":610,"o":"m 97 0 m 342 -18 q 158 36 218 -18 q 97 192 97 90 l 97 1175 l 339 1175 l 339 279 q 354 215 339 233 q 410 196 369 196 q 492 207 456 196 l 492 1 q 412 -13 444 -8 q 342 -18 379 -18 m 354 615 l 610 615 l 610 364 l 354 364 l 354 615 z "},"ł":{"ha":526,"x_min":1,"x_max":493,"o":"m 339 524 l 339 279 q 354 215 339 233 q 410 196 369 196 q 492 207 456 196 l 492 1 q 412 -13 444 -8 q 342 -18 379 -18 q 158 36 218 -18 q 97 192 97 90 l 97 454 l 1 426 l 1 635 l 97 663 l 97 1175 l 339 1175 l 339 732 l 493 776 l 493 568 l 339 524 z "},"m":{"ha":1438,"x_min":97,"x_max":1347,"o":"m 1049 803 q 1273 724 1199 803 q 1347 472 1347 644 l 1347 0 l 1106 0 l 1106 472 q 1081 559 1106 529 q 994 589 1056 589 q 842 522 919 589 q 843 472 843 507 l 843 0 l 601 0 l 601 472 q 576 559 601 529 q 490 589 551 589 q 339 525 417 589 l 339 0 l 97 0 l 97 786 l 339 786 l 339 725 q 437 784 388 765 q 544 803 486 803 q 797 685 729 803 q 919 774 860 746 q 1049 803 978 803 z "},"n":{"ha":961,"x_min":97,"x_max":871,"o":"m 558 803 q 793 724 715 803 q 871 472 871 644 l 871 0 l 629 0 l 629 472 q 601 559 629 529 q 504 589 572 589 q 339 522 424 589 l 339 0 l 97 0 l 97 786 l 339 786 l 339 724 q 444 783 390 764 q 558 803 497 803 z "},"ń":{"ha":961,"x_min":97,"x_max":871,"o":"m 97 0 m 558 803 q 793 724 715 803 q 871 472 871 644 l 871 0 l 629 0 l 629 472 q 601 559 629 529 q 504 589 572 589 q 339 522 424 589 l 339 0 l 97 0 l 97 786 l 339 786 l 339 724 q 444 783 390 764 q 558 803 497 803 m 507 1124 l 782 1124 l 614 911 l 371 911 l 507 1124 z "},"ň":{"ha":961,"x_min":-151,"x_max":871,"o":"m 0 0 m 558 803 q 793 724 715 803 q 871 472 871 644 l 871 0 l 629 0 l 629 472 q 601 559 629 529 q 504 589 572 589 q 339 522 424 589 l 339 0 l 97 0 l 97 786 l 339 786 l 339 724 q 444 783 390 764 q 558 803 497 803 m -82 1053 l 160 1053 l 54 772 l -151 772 l -82 1053 z "},"ņ":{"ha":961,"x_min":97,"x_max":871,"o":"m 97 0 m 558 803 q 793 724 715 803 q 871 472 871 644 l 871 0 l 629 0 l 629 472 q 601 559 629 529 q 504 589 572 589 q 339 522 424 589 l 339 0 l 97 0 l 97 786 l 339 786 l 339 724 q 444 783 390 764 q 558 803 497 803 m 378 -111 l 628 -111 l 561 -342 l 333 -342 l 378 -111 z "},"ŋ":{"ha":961,"x_min":97,"x_max":871,"o":"m 558 803 q 793 724 715 803 q 871 472 871 644 l 871 -137 q 810 -293 871 -239 q 626 -347 750 -347 q 556 -342 589 -347 q 476 -328 524 -337 l 476 -122 q 558 -133 513 -133 q 614 -115 599 -133 q 629 -50 629 -96 l 629 472 q 601 559 629 529 q 504 589 572 589 q 339 522 424 589 l 339 0 l 97 0 l 97 786 l 339 786 l 339 724 q 444 783 390 764 q 558 803 497 803 z "},"ñ":{"ha":961,"x_min":97,"x_max":871,"o":"m 97 0 m 558 803 q 793 724 715 803 q 871 472 871 644 l 871 0 l 629 0 l 629 472 q 601 559 629 529 q 504 589 572 589 q 339 522 424 589 l 339 0 l 97 0 l 97 786 l 339 786 l 339 724 q 444 783 390 764 q 558 803 497 803 m 229 910 q 269 1072 229 1028 q 381 1115 310 1115 q 461 1101 419 1115 l 513 1085 q 565 1072 554 1072 q 592 1115 592 1072 l 758 1115 q 718 953 758 997 q 607 910 678 910 q 526 924 568 910 l 475 940 q 422 953 433 953 q 396 910 396 953 l 229 910 z "},"o":{"ha":936,"x_min":49,"x_max":888,"o":"m 469 -24 q 239 31 333 -24 q 97 181 144 86 q 49 393 49 275 q 97 604 49 510 q 239 753 144 699 q 469 808 333 808 q 699 753 604 808 q 840 604 793 699 q 888 393 888 510 q 840 181 888 275 q 699 31 793 86 q 469 -24 604 -24 m 469 182 q 594 236 551 182 q 636 393 636 290 q 594 549 636 494 q 469 603 551 603 q 343 549 386 603 q 300 393 300 494 q 343 236 300 290 q 469 182 386 182 z "},"ó":{"ha":936,"x_min":49,"x_max":888,"o":"m 49 0 m 469 -24 q 239 31 333 -24 q 97 181 144 86 q 49 393 49 275 q 97 604 49 510 q 239 753 144 699 q 469 808 333 808 q 699 753 604 808 q 840 604 793 699 q 888 393 888 510 q 840 181 888 275 q 699 31 793 86 q 469 -24 604 -24 m 469 182 q 594 236 551 182 q 636 393 636 290 q 594 549 636 494 q 469 603 551 603 q 343 549 386 603 q 300 393 300 494 q 343 236 300 290 q 469 182 386 182 m 481 1124 l 756 1124 l 588 911 l 344 911 l 481 1124 z "},"ô":{"ha":936,"x_min":49,"x_max":888,"o":"m 49 0 m 469 -24 q 239 31 333 -24 q 97 181 144 86 q 49 393 49 275 q 97 604 49 510 q 239 753 144 699 q 469 808 333 808 q 699 753 604 808 q 840 604 793 699 q 888 393 888 510 q 840 181 888 275 q 699 31 793 86 q 469 -24 604 -24 m 469 182 q 594 236 551 182 q 636 393 636 290 q 594 549 636 494 q 469 603 551 603 q 343 549 386 603 q 300 393 300 494 q 343 236 300 290 q 469 182 386 182 m 524 911 l 468 1038 l 411 911 l 178 911 l 304 1124 l 631 1124 l 757 911 l 524 911 z "},"ö":{"ha":936,"x_min":49,"x_max":888,"o":"m 49 0 m 469 -24 q 239 31 333 -24 q 97 181 144 86 q 49 393 49 275 q 97 604 49 510 q 239 753 144 699 q 469 808 333 808 q 699 753 604 808 q 840 604 793 699 q 888 393 888 510 q 840 181 888 275 q 699 31 793 86 q 469 -24 604 -24 m 469 182 q 594 236 551 182 q 636 393 636 290 q 594 549 636 494 q 469 603 551 603 q 343 549 386 603 q 300 393 300 494 q 343 236 300 290 q 469 182 386 182 m 517 1121 l 731 1121 l 731 911 l 517 911 l 517 1121 m 211 1121 l 425 1121 l 425 911 l 211 911 l 211 1121 z "},"ò":{"ha":936,"x_min":49,"x_max":888,"o":"m 49 0 m 469 -24 q 239 31 333 -24 q 97 181 144 86 q 49 393 49 275 q 97 604 49 510 q 239 753 144 699 q 469 808 333 808 q 699 753 604 808 q 840 604 793 699 q 888 393 888 510 q 840 181 888 275 q 699 31 793 86 q 469 -24 604 -24 m 469 182 q 594 236 551 182 q 636 393 636 290 q 594 549 636 494 q 469 603 551 603 q 343 549 386 603 q 300 393 300 494 q 343 236 300 290 q 469 182 386 182 m 183 1124 l 458 1124 l 594 911 l 351 911 l 183 1124 z "},"ő":{"ha":936,"x_min":49,"x_max":899,"o":"m 49 0 m 469 -24 q 239 31 333 -24 q 97 181 144 86 q 49 393 49 275 q 97 604 49 510 q 239 753 144 699 q 469 808 333 808 q 699 753 604 808 q 840 604 793 699 q 888 393 888 510 q 840 181 888 275 q 699 31 793 86 q 469 -24 604 -24 m 469 182 q 594 236 551 182 q 636 393 636 290 q 594 549 636 494 q 469 603 551 603 q 343 549 386 603 q 300 393 300 494 q 343 236 300 290 q 469 182 386 182 m 651 1124 l 899 1124 l 731 911 l 515 911 l 651 1124 m 339 1124 l 586 1124 l 418 911 l 203 911 l 339 1124 z "},"ō":{"ha":936,"x_min":49,"x_max":888,"o":"m 49 0 m 469 -24 q 239 31 333 -24 q 97 181 144 86 q 49 393 49 275 q 97 604 49 510 q 239 753 144 699 q 469 808 333 808 q 699 753 604 808 q 840 604 793 699 q 888 393 888 510 q 840 181 888 275 q 699 31 793 86 q 469 -24 604 -24 m 469 182 q 594 236 551 182 q 636 393 636 290 q 594 549 636 494 q 469 603 551 603 q 343 549 386 603 q 300 393 300 494 q 343 236 300 290 q 469 182 386 182 m 253 1093 l 682 1093 l 682 943 l 253 943 l 253 1093 z "},"ø":{"ha":936,"x_min":47,"x_max":890,"o":"m 831 622 q 888 393 888 524 q 840 181 888 275 q 699 31 793 86 q 469 -24 604 -24 q 235 33 333 -24 l 181 -19 l 47 106 l 106 163 q 49 393 49 264 q 97 604 49 510 q 239 753 144 699 q 469 808 333 808 q 703 751 604 808 l 760 807 l 890 682 l 831 622 m 300 393 q 301 356 300 368 l 539 590 q 469 603 510 603 q 343 549 386 603 q 300 393 300 494 m 636 393 q 635 429 636 418 l 397 194 q 469 182 429 182 q 594 236 551 182 q 636 393 636 290 z "},"õ":{"ha":936,"x_min":49,"x_max":888,"o":"m 49 0 m 469 -24 q 239 31 333 -24 q 97 181 144 86 q 49 393 49 275 q 97 604 49 510 q 239 753 144 699 q 469 808 333 808 q 699 753 604 808 q 840 604 793 699 q 888 393 888 510 q 840 181 888 275 q 699 31 793 86 q 469 -24 604 -24 m 469 182 q 594 236 551 182 q 636 393 636 290 q 594 549 636 494 q 469 603 551 603 q 343 549 386 603 q 300 393 300 494 q 343 236 300 290 q 469 182 386 182 m 203 910 q 243 1072 203 1028 q 354 1115 283 1115 q 435 1101 393 1115 l 486 1085 q 539 1072 528 1072 q 565 1115 565 1072 l 732 1115 q 692 953 732 997 q 581 910 651 910 q 500 924 542 910 l 449 940 q 396 953 407 953 q 369 910 369 953 l 203 910 z "},"œ":{"ha":1435,"x_min":49,"x_max":1393,"o":"m 896 318 q 959 214 911 251 q 1100 176 1007 176 q 1203 190 1154 176 q 1317 235 1253 203 l 1379 49 q 1236 -8 1307 8 q 1067 -24 1165 -24 q 888 12 965 -24 q 761 113 811 47 q 633 12 710 47 q 456 -24 557 -24 q 233 31 325 -24 q 94 181 140 86 q 49 393 49 275 q 95 604 49 510 q 233 753 142 699 q 456 808 325 808 q 632 773 556 808 q 758 674 708 738 q 880 774 808 739 q 1036 808 951 808 q 1298 708 1203 808 q 1393 414 1393 607 l 1393 318 l 896 318 m 1022 608 q 941 583 972 608 q 897 497 910 558 l 1139 497 q 1105 582 1133 556 q 1022 608 1076 608 m 469 182 q 594 236 551 182 q 636 393 636 290 q 594 549 636 494 q 469 603 551 603 q 343 549 386 603 q 300 393 300 494 q 343 236 300 290 q 469 182 386 182 z "},"p":{"ha":960,"x_min":97,"x_max":911,"o":"m 550 808 q 737 762 656 808 q 865 622 818 715 q 911 393 911 528 q 865 163 911 257 q 737 23 818 69 q 550 -24 656 -24 q 339 51 438 -24 l 339 -325 l 97 -325 l 97 786 l 339 786 l 339 733 q 550 808 438 808 m 497 190 q 619 242 578 190 q 660 393 660 293 q 619 543 660 492 q 497 594 578 594 q 339 538 418 594 l 339 247 q 497 190 418 190 z "},"þ":{"ha":865,"x_min":97,"x_max":911,"o":"m 550 808 q 737 762 656 808 q 865 622 818 715 q 911 393 911 528 q 865 163 911 257 q 737 23 818 69 q 550 -24 656 -24 q 339 51 438 -24 l 339 -325 l 97 -325 l 97 1175 l 339 1175 l 339 733 q 550 808 438 808 m 497 190 q 619 242 578 190 q 660 393 660 293 q 619 543 660 492 q 497 594 578 594 q 339 538 418 594 l 339 247 q 497 190 418 190 z "},"q":{"ha":960,"x_min":49,"x_max":863,"o":"m 863 786 l 863 -325 l 621 -325 l 621 51 q 410 -24 522 -24 q 223 23 304 -24 q 95 163 142 69 q 49 393 49 257 q 95 622 49 528 q 223 762 142 715 q 410 808 304 808 q 621 733 522 808 l 621 786 l 863 786 m 463 190 q 621 247 542 190 l 621 538 q 463 594 542 594 q 341 543 382 594 q 300 393 300 492 q 341 242 300 293 q 463 190 382 190 z "},"r":{"ha":626,"x_min":97,"x_max":585,"o":"m 585 803 l 585 589 l 553 589 q 339 513 446 589 l 339 0 l 97 0 l 97 786 l 339 786 l 339 717 q 442 781 390 760 q 553 803 494 803 l 585 803 z "},"ŕ":{"ha":626,"x_min":97,"x_max":613,"o":"m 97 0 m 585 803 l 585 589 l 553 589 q 339 513 446 589 l 339 0 l 97 0 l 97 786 l 339 786 l 339 717 q 442 781 390 760 q 553 803 494 803 l 585 803 m 338 1124 l 613 1124 l 444 911 l 201 911 l 338 1124 z "},"ř":{"ha":626,"x_min":35,"x_max":614,"o":"m 35 0 m 585 803 l 585 589 l 553 589 q 339 513 446 589 l 339 0 l 97 0 l 97 786 l 339 786 l 339 717 q 442 781 390 760 q 553 803 494 803 l 585 803 m 614 1124 l 488 911 l 161 911 l 35 1124 l 268 1124 l 325 997 l 381 1124 l 614 1124 z "},"ŗ":{"ha":626,"x_min":61,"x_max":585,"o":"m 61 0 m 585 803 l 585 589 l 553 589 q 339 513 446 589 l 339 0 l 97 0 l 97 786 l 339 786 l 339 717 q 442 781 390 760 q 553 803 494 803 l 585 803 m 106 -111 l 356 -111 l 289 -342 l 61 -342 l 106 -111 z "},"s":{"ha":785,"x_min":63,"x_max":729,"o":"m 394 -24 q 220 -8 296 -24 q 63 47 144 8 l 63 260 q 222 196 142 215 q 394 176 303 176 q 485 231 485 176 q 472 264 485 253 q 432 282 460 275 l 297 310 q 125 390 179 333 q 71 546 71 447 q 153 744 71 679 q 404 808 236 808 q 549 794 474 808 q 693 758 625 781 l 693 553 q 565 593 640 578 q 417 608 489 608 q 338 597 360 608 q 315 563 315 586 q 326 537 315 544 q 364 524 338 529 l 499 496 q 675 414 621 471 q 729 244 729 357 q 639 43 729 110 q 394 -24 549 -24 z "},"ś":{"ha":785,"x_min":63,"x_max":729,"o":"m 63 0 m 394 -24 q 220 -8 296 -24 q 63 47 144 8 l 63 260 q 222 196 142 215 q 394 176 303 176 q 485 231 485 176 q 472 264 485 253 q 432 282 460 275 l 297 310 q 125 390 179 333 q 71 546 71 447 q 153 744 71 679 q 404 808 236 808 q 549 794 474 808 q 693 758 625 781 l 693 553 q 565 593 640 578 q 417 608 489 608 q 338 597 360 608 q 315 563 315 586 q 326 537 315 544 q 364 524 338 529 l 499 496 q 675 414 621 471 q 729 244 729 357 q 639 43 729 110 q 394 -24 549 -24 m 419 1124 l 694 1124 l 526 911 l 283 911 l 419 1124 z "},"š":{"ha":785,"x_min":63,"x_max":729,"o":"m 63 0 m 394 -24 q 220 -8 296 -24 q 63 47 144 8 l 63 260 q 222 196 142 215 q 394 176 303 176 q 485 231 485 176 q 472 264 485 253 q 432 282 460 275 l 297 310 q 125 390 179 333 q 71 546 71 447 q 153 744 71 679 q 404 808 236 808 q 549 794 474 808 q 693 758 625 781 l 693 553 q 565 593 640 578 q 417 608 489 608 q 338 597 360 608 q 315 563 315 586 q 326 537 315 544 q 364 524 338 529 l 499 496 q 675 414 621 471 q 729 244 729 357 q 639 43 729 110 q 394 -24 549 -24 m 696 1124 l 569 911 l 243 911 l 117 1124 l 350 1124 l 407 997 l 463 1124 l 696 1124 z "},"ş":{"ha":785,"x_min":63,"x_max":729,"o":"m 729 244 q 658 58 729 125 q 460 -21 586 -8 l 446 -61 q 555 -101 517 -62 q 593 -204 593 -140 q 543 -322 593 -278 q 396 -365 493 -365 q 314 -360 350 -365 q 240 -337 278 -354 l 240 -206 q 368 -235 304 -235 q 413 -228 400 -235 q 425 -210 425 -222 q 410 -190 425 -196 q 360 -183 396 -183 q 257 -199 303 -183 l 307 -21 q 183 1 240 -14 q 63 47 125 17 l 63 260 q 222 196 142 215 q 394 176 303 176 q 485 231 485 176 q 472 264 485 253 q 432 282 460 275 l 297 310 q 125 390 179 333 q 71 546 71 447 q 153 744 71 679 q 404 808 236 808 q 549 794 474 808 q 693 758 625 781 l 693 553 q 565 593 640 578 q 417 608 489 608 q 338 597 360 608 q 315 563 315 586 q 326 537 315 544 q 364 524 338 529 l 499 496 q 675 414 621 471 q 729 244 729 357 z "},"ș":{"ha":785,"x_min":63,"x_max":729,"o":"m 63 0 m 394 -24 q 220 -8 296 -24 q 63 47 144 8 l 63 260 q 222 196 142 215 q 394 176 303 176 q 485 231 485 176 q 472 264 485 253 q 432 282 460 275 l 297 310 q 125 390 179 333 q 71 546 71 447 q 153 744 71 679 q 404 808 236 808 q 549 794 474 808 q 693 758 625 781 l 693 553 q 565 593 640 578 q 417 608 489 608 q 338 597 360 608 q 315 563 315 586 q 326 537 315 544 q 364 524 338 529 l 499 496 q 675 414 621 471 q 729 244 729 357 q 639 43 729 110 q 394 -24 549 -24 m 276 -111 l 526 -111 l 460 -342 l 232 -342 l 276 -111 z "},"ß":{"ha":942,"x_min":97,"x_max":914,"o":"m 619 -24 q 526 -18 567 -24 q 440 7 485 -12 l 440 211 q 578 176 511 176 q 647 192 624 176 q 669 243 669 207 q 651 285 669 269 q 588 324 632 300 q 502 375 536 350 q 443 448 468 400 q 418 569 418 496 q 438 676 418 635 q 492 765 457 718 q 532 827 519 801 q 544 886 544 853 q 522 957 544 935 q 456 979 500 979 q 367 946 394 979 q 339 831 339 913 l 339 0 l 97 0 l 97 831 q 189 1104 97 1015 q 463 1193 281 1193 q 700 1117 614 1193 q 786 904 786 1042 q 765 774 786 826 q 704 665 743 721 q 672 615 682 635 q 663 575 663 596 q 682 535 663 551 q 744 494 701 518 q 831 438 797 464 q 889 365 864 411 q 914 250 914 318 q 833 46 913 115 q 619 -24 753 -24 z "},"t":{"ha":611,"x_min":42,"x_max":569,"o":"m 392 544 l 392 279 q 407 215 392 233 q 463 196 422 196 q 544 207 508 196 l 544 1 q 465 -13 497 -8 q 394 -18 432 -18 q 210 36 271 -18 q 150 192 150 90 l 150 544 l 42 544 l 42 758 l 150 758 l 150 1022 l 392 1022 l 392 758 l 569 758 l 569 544 l 392 544 z "},"ŧ":{"ha":611,"x_min":42,"x_max":571,"o":"m 392 282 l 392 279 q 407 215 392 233 q 463 196 422 196 q 544 207 508 196 l 544 1 q 465 -13 497 -8 q 394 -18 432 -18 q 210 36 271 -18 q 150 192 150 90 l 150 282 l 43 282 l 43 488 l 150 488 l 150 544 l 42 544 l 42 758 l 150 758 l 150 1022 l 392 1022 l 392 758 l 569 758 l 569 544 l 392 544 l 392 488 l 571 488 l 571 282 l 392 282 z "},"ť":{"ha":611,"x_min":42,"x_max":717,"o":"m 42 0 m 392 544 l 392 279 q 407 215 392 233 q 463 196 422 196 q 544 207 508 196 l 544 1 q 465 -13 497 -8 q 394 -18 432 -18 q 210 36 271 -18 q 150 192 150 90 l 150 544 l 42 544 l 42 758 l 150 758 l 150 1022 l 392 1022 l 392 758 l 569 758 l 569 544 l 392 544 m 475 1122 l 717 1122 l 611 842 l 406 842 l 475 1122 z "},"ţ":{"ha":611,"x_min":42,"x_max":569,"o":"m 392 544 l 392 279 q 407 215 392 233 q 463 196 422 196 q 544 207 508 196 l 544 1 q 433 -17 471 -14 l 418 -61 q 527 -101 489 -62 q 565 -204 565 -140 q 515 -322 565 -278 q 368 -365 465 -365 q 286 -360 322 -365 q 213 -337 250 -354 l 213 -206 q 340 -235 276 -235 q 385 -228 372 -235 q 397 -210 397 -222 q 383 -190 397 -196 q 332 -183 368 -183 q 229 -199 275 -183 l 283 -3 q 150 192 150 39 l 150 544 l 42 544 l 42 758 l 150 758 l 150 1022 l 392 1022 l 392 758 l 569 758 l 569 544 l 392 544 z "},"ț":{"ha":611,"x_min":42,"x_max":569,"o":"m 42 0 m 392 544 l 392 279 q 407 215 392 233 q 463 196 422 196 q 544 207 508 196 l 544 1 q 465 -13 497 -8 q 394 -18 432 -18 q 210 36 271 -18 q 150 192 150 90 l 150 544 l 42 544 l 42 758 l 150 758 l 150 1022 l 392 1022 l 392 758 l 569 758 l 569 544 l 392 544 m 249 -111 l 499 -111 l 432 -342 l 204 -342 l 249 -111 z "},"u":{"ha":961,"x_min":90,"x_max":864,"o":"m 864 786 l 864 0 l 622 0 l 622 63 q 517 3 571 22 q 403 -17 464 -17 q 168 63 246 -17 q 90 314 90 142 l 90 786 l 332 786 l 332 314 q 360 227 332 257 q 457 197 389 197 q 622 264 538 197 l 622 786 l 864 786 z "},"ú":{"ha":961,"x_min":90,"x_max":864,"o":"m 90 0 m 864 786 l 864 0 l 622 0 l 622 63 q 517 3 571 22 q 403 -17 464 -17 q 168 63 246 -17 q 90 314 90 142 l 90 786 l 332 786 l 332 314 q 360 227 332 257 q 457 197 389 197 q 622 264 538 197 l 622 786 l 864 786 m 493 1124 l 768 1124 l 600 911 l 357 911 l 493 1124 z "},"û":{"ha":961,"x_min":90,"x_max":864,"o":"m 90 0 m 864 786 l 864 0 l 622 0 l 622 63 q 517 3 571 22 q 403 -17 464 -17 q 168 63 246 -17 q 90 314 90 142 l 90 786 l 332 786 l 332 314 q 360 227 332 257 q 457 197 389 197 q 622 264 538 197 l 622 786 l 864 786 m 536 911 l 481 1038 l 424 911 l 190 911 l 317 1124 l 643 1124 l 769 911 l 536 911 z "},"ü":{"ha":961,"x_min":90,"x_max":864,"o":"m 90 0 m 864 786 l 864 0 l 622 0 l 622 63 q 517 3 571 22 q 403 -17 464 -17 q 168 63 246 -17 q 90 314 90 142 l 90 786 l 332 786 l 332 314 q 360 227 332 257 q 457 197 389 197 q 622 264 538 197 l 622 786 l 864 786 m 529 1121 l 743 1121 l 743 911 l 529 911 l 529 1121 m 224 1121 l 438 1121 l 438 911 l 224 911 l 224 1121 z "},"ù":{"ha":961,"x_min":90,"x_max":864,"o":"m 90 0 m 864 786 l 864 0 l 622 0 l 622 63 q 517 3 571 22 q 403 -17 464 -17 q 168 63 246 -17 q 90 314 90 142 l 90 786 l 332 786 l 332 314 q 360 227 332 257 q 457 197 389 197 q 622 264 538 197 l 622 786 l 864 786 m 196 1124 l 471 1124 l 607 911 l 364 911 l 196 1124 z "},"ű":{"ha":961,"x_min":90,"x_max":911,"o":"m 90 0 m 864 786 l 864 0 l 622 0 l 622 63 q 517 3 571 22 q 403 -17 464 -17 q 168 63 246 -17 q 90 314 90 142 l 90 786 l 332 786 l 332 314 q 360 227 332 257 q 457 197 389 197 q 622 264 538 197 l 622 786 l 864 786 m 664 1124 l 911 1124 l 743 911 l 528 911 l 664 1124 m 351 1124 l 599 1124 l 431 911 l 215 911 l 351 1124 z "},"ū":{"ha":961,"x_min":90,"x_max":864,"o":"m 90 0 m 864 786 l 864 0 l 622 0 l 622 63 q 517 3 571 22 q 403 -17 464 -17 q 168 63 246 -17 q 90 314 90 142 l 90 786 l 332 786 l 332 314 q 360 227 332 257 q 457 197 389 197 q 622 264 538 197 l 622 786 l 864 786 m 265 1093 l 694 1093 l 694 943 l 265 943 l 265 1093 z "},"ų":{"ha":961,"x_min":90,"x_max":864,"o":"m 864 786 l 864 0 q 735 -182 735 -100 q 790 -231 735 -231 q 864 -214 826 -231 l 864 -346 q 750 -365 806 -365 q 602 -328 651 -365 q 553 -222 553 -290 q 583 -106 553 -164 q 676 0 614 -49 l 622 0 l 622 63 q 517 3 571 22 q 403 -17 464 -17 q 168 63 246 -17 q 90 314 90 142 l 90 786 l 332 786 l 332 314 q 360 227 332 257 q 457 197 389 197 q 622 264 538 197 l 622 786 l 864 786 z "},"ů":{"ha":961,"x_min":90,"x_max":864,"o":"m 90 0 m 864 786 l 864 0 l 622 0 l 622 63 q 517 3 571 22 q 403 -17 464 -17 q 168 63 246 -17 q 90 314 90 142 l 90 786 l 332 786 l 332 314 q 360 227 332 257 q 457 197 389 197 q 622 264 538 197 l 622 786 l 864 786 m 481 889 q 351 924 393 889 q 310 1017 310 958 q 350 1109 310 1075 q 481 1143 390 1143 q 609 1109 568 1143 q 650 1017 650 1075 q 609 924 650 958 q 481 889 568 889 m 481 982 q 524 1017 524 982 q 481 1050 524 1050 q 436 1017 436 1050 q 481 982 436 982 z "},"v":{"ha":882,"x_min":28,"x_max":854,"o":"m 854 786 l 600 -12 l 283 -12 l 28 786 l 275 786 l 442 208 l 607 786 l 854 786 z "},"w":{"ha":1336,"x_min":42,"x_max":1294,"o":"m 1294 786 l 1096 -12 l 807 -12 l 668 446 l 531 -12 l 242 -12 l 42 786 l 289 786 l 392 292 l 524 786 l 813 786 l 944 292 l 1047 786 l 1294 786 z "},"ẃ":{"ha":1336,"x_min":42,"x_max":1294,"o":"m 42 0 m 1294 786 l 1096 -12 l 807 -12 l 668 446 l 531 -12 l 242 -12 l 42 786 l 289 786 l 392 292 l 524 786 l 813 786 l 944 292 l 1047 786 l 1294 786 m 681 1124 l 956 1124 l 788 911 l 544 911 l 681 1124 z "},"ŵ":{"ha":1336,"x_min":42,"x_max":1294,"o":"m 42 0 m 1294 786 l 1096 -12 l 807 -12 l 668 446 l 531 -12 l 242 -12 l 42 786 l 289 786 l 392 292 l 524 786 l 813 786 l 944 292 l 1047 786 l 1294 786 m 724 911 l 668 1038 l 611 911 l 378 911 l 504 1124 l 831 1124 l 957 911 l 724 911 z "},"ẅ":{"ha":1336,"x_min":42,"x_max":1294,"o":"m 42 0 m 1294 786 l 1096 -12 l 807 -12 l 668 446 l 531 -12 l 242 -12 l 42 786 l 289 786 l 392 292 l 524 786 l 813 786 l 944 292 l 1047 786 l 1294 786 m 717 1121 l 931 1121 l 931 911 l 717 911 l 717 1121 m 411 1121 l 625 1121 l 625 911 l 411 911 l 411 1121 z "},"ẁ":{"ha":1336,"x_min":42,"x_max":1294,"o":"m 42 0 m 1294 786 l 1096 -12 l 807 -12 l 668 446 l 531 -12 l 242 -12 l 42 786 l 289 786 l 392 292 l 524 786 l 813 786 l 944 292 l 1047 786 l 1294 786 m 383 1124 l 658 1124 l 794 911 l 551 911 l 383 1124 z "},"x":{"ha":869,"x_min":28,"x_max":842,"o":"m 560 0 l 432 213 l 310 0 l 28 0 l 285 410 l 42 786 l 324 786 l 436 596 l 550 786 l 829 786 l 578 399 l 842 0 l 560 0 z "},"y":{"ha":826,"x_min":28,"x_max":799,"o":"m 799 786 l 486 -124 q 372 -300 442 -251 q 183 -349 301 -349 q 50 -328 110 -349 l 50 -122 q 139 -135 92 -135 q 229 -115 196 -135 q 283 -36 263 -94 l 294 -4 l 28 786 l 275 786 l 413 340 l 565 786 l 799 786 z "},"ý":{"ha":826,"x_min":28,"x_max":799,"o":"m 28 0 m 799 786 l 486 -124 q 372 -300 442 -251 q 183 -349 301 -349 q 50 -328 110 -349 l 50 -122 q 139 -135 92 -135 q 229 -115 196 -135 q 283 -36 263 -94 l 294 -4 l 28 786 l 275 786 l 413 340 l 565 786 l 799 786 m 426 1124 l 701 1124 l 533 911 l 290 911 l 426 1124 z "},"ŷ":{"ha":826,"x_min":28,"x_max":799,"o":"m 28 0 m 799 786 l 486 -124 q 372 -300 442 -251 q 183 -349 301 -349 q 50 -328 110 -349 l 50 -122 q 139 -135 92 -135 q 229 -115 196 -135 q 283 -36 263 -94 l 294 -4 l 28 786 l 275 786 l 413 340 l 565 786 l 799 786 m 469 911 l 414 1038 l 357 911 l 124 911 l 250 1124 l 576 1124 l 703 911 l 469 911 z "},"ÿ":{"ha":826,"x_min":28,"x_max":799,"o":"m 28 0 m 799 786 l 486 -124 q 372 -300 442 -251 q 183 -349 301 -349 q 50 -328 110 -349 l 50 -122 q 139 -135 92 -135 q 229 -115 196 -135 q 283 -36 263 -94 l 294 -4 l 28 786 l 275 786 l 413 340 l 565 786 l 799 786 m 463 1121 l 676 1121 l 676 911 l 463 911 l 463 1121 m 157 1121 l 371 1121 l 371 911 l 157 911 l 157 1121 z "},"ỳ":{"ha":826,"x_min":28,"x_max":799,"o":"m 28 0 m 799 786 l 486 -124 q 372 -300 442 -251 q 183 -349 301 -349 q 50 -328 110 -349 l 50 -122 q 139 -135 92 -135 q 229 -115 196 -135 q 283 -36 263 -94 l 294 -4 l 28 786 l 275 786 l 413 340 l 565 786 l 799 786 m 129 1124 l 404 1124 l 540 911 l 297 911 l 129 1124 z "},"z":{"ha":799,"x_min":90,"x_max":743,"o":"m 743 211 l 743 0 l 90 0 l 90 211 l 432 575 l 115 575 l 115 786 l 713 786 l 713 575 l 372 211 l 743 211 z "},"ź":{"ha":799,"x_min":90,"x_max":743,"o":"m 90 0 m 743 211 l 743 0 l 90 0 l 90 211 l 432 575 l 115 575 l 115 786 l 713 786 l 713 575 l 372 211 l 743 211 m 421 1124 l 696 1124 l 528 911 l 285 911 l 421 1124 z "},"ž":{"ha":799,"x_min":90,"x_max":743,"o":"m 90 0 m 743 211 l 743 0 l 90 0 l 90 211 l 432 575 l 115 575 l 115 786 l 713 786 l 713 575 l 372 211 l 743 211 m 697 1124 l 571 911 l 244 911 l 118 1124 l 351 1124 l 408 997 l 464 1124 l 697 1124 z "},"ż":{"ha":799,"x_min":90,"x_max":743,"o":"m 90 0 m 743 211 l 743 0 l 90 0 l 90 211 l 432 575 l 115 575 l 115 786 l 713 786 l 713 575 l 372 211 l 743 211 m 290 1121 l 532 1121 l 532 911 l 290 911 l 290 1121 z "},"ﬁ":{"ha":1001,"x_min":42,"x_max":904,"o":"m 42 0 m 449 979 q 393 960 408 979 q 378 896 378 942 l 378 786 l 531 786 l 531 572 l 378 572 l 378 0 l 136 0 l 136 572 l 42 572 l 42 786 l 136 786 l 136 983 q 197 1139 136 1085 q 381 1193 257 1193 q 451 1188 418 1193 q 531 1174 483 1183 l 531 968 q 449 979 494 979 m 663 1121 l 904 1121 l 904 911 l 663 911 l 663 1121 m 663 786 l 904 786 l 904 0 l 663 0 l 663 786 z "},"ﬂ":{"ha":1092,"x_min":42,"x_max":1057,"o":"m 42 0 m 449 979 q 393 960 408 979 q 378 896 378 942 l 378 786 l 531 786 l 531 572 l 378 572 l 378 0 l 136 0 l 136 572 l 42 572 l 42 786 l 136 786 l 136 983 q 197 1139 136 1085 q 381 1193 257 1193 q 451 1188 418 1193 q 531 1174 483 1183 l 531 968 q 449 979 494 979 m 907 -18 q 723 36 783 -18 q 663 192 663 90 l 663 1175 l 904 1175 l 904 279 q 919 215 904 233 q 975 196 935 196 q 1057 207 1021 196 l 1057 1 q 977 -13 1010 -8 q 907 -18 944 -18 z "},"ª":{"ha":551,"x_min":8,"x_max":517,"o":"m 268 978 q 426 944 371 978 q 499 851 481 910 q 517 706 517 793 l 517 394 l 347 394 l 347 428 q 206 382 286 382 q 63 431 118 382 q 8 567 8 481 q 61 715 8 663 q 208 767 114 767 q 346 739 286 767 q 322 796 342 778 q 253 814 301 814 l 133 814 l 133 978 l 268 978 m 257 524 q 347 550 299 524 l 347 614 q 258 625 304 625 q 194 571 194 625 q 212 535 194 546 q 257 524 229 524 z "},"º":{"ha":718,"x_min":51,"x_max":667,"o":"m 360 382 q 194 423 264 382 q 88 534 125 464 q 51 690 51 604 q 88 847 51 776 q 194 957 125 917 q 360 997 264 997 q 525 957 456 997 q 631 847 594 917 q 667 690 667 776 q 631 534 667 604 q 525 423 594 464 q 360 382 456 382 m 360 540 q 458 583 424 540 q 492 690 492 626 q 458 797 492 754 q 360 839 424 839 q 263 796 299 839 q 226 690 226 753 q 262 583 226 626 q 360 540 297 540 z "},"ॲ":{"ha":1044,"x_min":7,"x_max":1143,"o":"m 7 0 m 1058 936 l 1058 764 l 933 764 l 933 0 l 719 0 l 719 267 l 492 267 q 362 106 474 156 q 88 56 250 56 l 7 56 l 7 228 l 88 228 q 282 338 282 228 q 249 399 282 379 q 142 418 215 418 l 71 418 l 71 590 l 143 590 q 282 679 282 590 q 243 744 282 724 q 129 764 204 764 l 50 764 l 50 936 l 129 936 q 406 884 317 936 q 496 713 496 832 q 465 592 496 642 q 369 513 433 543 q 463 439 431 490 l 719 439 l 719 764 l 579 764 l 579 936 l 1058 936 m 825 1042 q 581 1106 654 1042 q 507 1304 507 1171 l 507 1332 l 707 1332 l 707 1304 q 735 1233 707 1253 q 825 1214 763 1214 q 915 1233 888 1214 q 943 1304 943 1253 l 943 1332 l 1143 1332 l 1143 1304 q 1070 1104 1143 1167 q 825 1042 997 1042 z "},"ऄ":{"ha":1044,"x_min":7,"x_max":1058,"o":"m 1058 936 l 1058 764 l 933 764 l 933 0 l 719 0 l 719 267 l 492 267 q 362 106 474 156 q 88 56 250 56 l 7 56 l 7 228 l 88 228 q 282 338 282 228 q 249 399 282 379 q 142 418 215 418 l 71 418 l 71 590 l 143 590 q 282 679 282 590 q 243 744 282 724 q 129 764 204 764 l 50 764 l 50 936 l 129 936 q 406 884 317 936 q 496 713 496 832 q 465 592 496 642 q 369 513 433 543 q 463 439 431 490 l 719 439 l 719 764 l 579 764 l 579 936 l 719 936 l 719 992 q 694 1077 719 1053 q 606 1101 669 1101 l 374 1101 q 169 1133 242 1101 q 67 1227 96 1164 q 39 1397 39 1290 l 39 1446 l 253 1446 l 253 1397 q 263 1322 253 1349 q 298 1285 272 1296 q 374 1274 324 1274 l 606 1274 q 819 1244 749 1274 q 911 1157 889 1215 q 933 992 933 1099 l 933 936 l 1058 936 z "},"अ":{"ha":1044,"x_min":7,"x_max":1058,"o":"m 1058 936 l 1058 764 l 933 764 l 933 0 l 719 0 l 719 267 l 492 267 q 362 106 474 156 q 88 56 250 56 l 7 56 l 7 228 l 88 228 q 282 338 282 228 q 249 399 282 379 q 142 418 215 418 l 71 418 l 71 590 l 143 590 q 282 679 282 590 q 243 744 282 724 q 129 764 204 764 l 50 764 l 50 936 l 129 936 q 406 884 317 936 q 496 713 496 832 q 465 592 496 642 q 369 513 433 543 q 463 439 431 490 l 719 439 l 719 764 l 579 764 l 579 936 l 1058 936 z "},"आ":{"ha":1481,"x_min":7,"x_max":1494,"o":"m 1494 764 l 1369 764 l 1369 0 l 1156 0 l 1156 764 l 933 764 l 933 0 l 719 0 l 719 267 l 492 267 q 362 106 474 156 q 88 56 250 56 l 7 56 l 7 228 l 88 228 q 282 338 282 228 q 249 399 282 379 q 142 418 215 418 l 71 418 l 71 590 l 143 590 q 282 679 282 590 q 243 744 282 724 q 129 764 204 764 l 50 764 l 50 936 l 129 936 q 406 884 317 936 q 496 713 496 832 q 465 592 496 642 q 369 513 433 543 q 463 439 431 490 l 719 439 l 719 764 l 579 764 l 579 936 l 1494 936 l 1494 764 z "},"इ":{"ha":767,"x_min":-14,"x_max":781,"o":"m 329 529 q 287 521 300 529 q 274 490 274 513 q 279 466 274 479 q 294 444 285 453 l 426 444 q 649 390 575 444 q 724 218 724 336 q 433 -37 724 -37 l 424 -37 q 260 -10 336 -37 l 260 -104 l 74 -104 l 74 242 l 260 242 l 260 160 q 406 135 324 135 l 421 135 q 510 204 510 135 q 426 272 510 272 l 179 272 q 98 372 136 304 q 60 511 60 439 q 125 659 60 617 q 329 701 190 701 l 413 701 l 413 764 l -14 764 l -14 936 l 781 936 l 781 764 l 626 764 l 626 529 l 329 529 z "},"ई":{"ha":767,"x_min":-14,"x_max":781,"o":"m 329 529 q 287 521 300 529 q 274 490 274 513 q 279 466 274 479 q 294 444 285 453 l 426 444 q 649 390 575 444 q 724 218 724 336 q 433 -37 724 -37 l 424 -37 q 260 -10 336 -37 l 260 -104 l 74 -104 l 74 242 l 260 242 l 260 160 q 406 135 324 135 l 421 135 q 510 204 510 135 q 426 272 510 272 l 179 272 q 98 372 136 304 q 60 511 60 439 q 125 659 60 617 q 329 701 190 701 l 413 701 l 413 764 l -14 764 l -14 936 l 428 936 q 388 1051 403 990 q 372 1169 372 1113 q 441 1334 372 1276 q 622 1392 510 1392 q 751 1369 699 1392 l 751 1193 q 658 1219 699 1219 q 606 1197 625 1219 q 586 1132 586 1175 q 600 1042 586 1085 q 643 936 614 999 l 781 936 l 781 764 l 626 764 l 626 529 l 329 529 z "},"उ":{"ha":833,"x_min":-14,"x_max":849,"o":"m 849 764 l 692 764 q 731 646 731 722 q 703 540 731 583 q 608 475 675 497 q 702 397 674 453 q 731 265 731 342 q 378 0 731 0 q 25 279 25 0 l 25 349 l 239 349 l 239 279 q 278 198 239 224 q 378 172 317 172 q 478 198 439 172 q 517 279 517 224 q 487 363 517 336 q 390 390 457 390 l 292 390 l 292 563 l 392 563 q 485 590 454 563 q 517 660 517 617 q 492 722 517 699 q 413 764 468 744 l -14 764 l -14 936 l 849 936 l 849 764 z "},"ऊ":{"ha":1168,"x_min":-14,"x_max":1168,"o":"m 1168 764 l 690 764 q 731 646 731 724 q 703 540 731 583 q 608 475 675 497 q 674 433 649 460 q 771 478 724 464 q 874 492 818 492 q 1074 438 1010 492 q 1138 246 1138 383 q 1072 56 1138 111 q 868 0 1007 0 l 851 0 q 814 2 833 0 q 782 7 794 4 l 782 176 q 835 172 832 172 l 851 172 q 924 246 924 172 q 904 304 924 289 q 840 319 885 319 q 729 299 775 319 q 731 265 731 288 q 378 0 731 0 q 25 279 25 0 l 25 349 l 239 349 l 239 279 q 278 198 239 224 q 378 172 317 172 q 478 198 439 172 q 517 279 517 224 q 487 363 517 336 q 390 390 457 390 l 292 390 l 292 563 l 392 563 q 485 590 454 563 q 517 660 517 617 q 492 722 517 699 q 413 764 468 744 l -14 764 l -14 936 l 1168 936 l 1168 764 z "},"ऋ":{"ha":1189,"x_min":-14,"x_max":1203,"o":"m 681 764 l 681 529 l 778 529 l 778 663 l 992 663 l 992 499 q 1113 372 1075 428 q 1151 246 1151 317 q 1060 63 1151 125 q 822 0 968 0 l 781 0 l 781 172 l 822 172 q 906 191 874 172 q 938 247 938 210 q 917 305 938 281 q 849 357 897 329 l 681 357 l 681 0 l 467 0 l 467 214 l 169 -24 l 44 114 l 453 436 q 356 494 400 481 q 251 508 313 508 q 167 499 218 508 q 69 476 115 490 l 69 658 q 168 681 114 672 q 265 689 222 689 q 371 674 324 689 q 467 625 418 660 l 467 764 l -14 764 l -14 936 l 1203 936 l 1203 764 l 681 764 z "},"ॠ":{"ha":1219,"x_min":-14,"x_max":1233,"o":"m 1067 -162 q 1233 -124 1149 -162 l 1233 -292 q 1044 -321 1167 -321 q 772 -135 772 -321 q 844 -6 772 -47 q 738 140 738 32 q 821 275 738 232 l 779 357 l 681 357 l 681 0 l 467 0 l 467 214 l 169 -24 l 44 114 l 453 436 q 356 494 400 481 q 251 508 313 508 q 167 499 218 508 q 69 476 115 490 l 69 658 q 168 681 114 672 q 265 689 222 689 q 371 674 324 689 q 467 625 418 660 l 467 764 l -14 764 l -14 936 l 1231 936 l 1231 764 l 681 764 l 681 529 l 778 529 l 778 663 l 992 663 l 992 360 l 1017 310 q 1108 303 1078 310 l 1108 144 q 1011 151 1078 151 q 965 142 978 151 q 951 115 951 133 q 965 90 951 99 q 1018 81 979 81 l 1136 81 l 1136 -78 l 1025 -78 q 986 -117 986 -78 q 1006 -152 986 -142 q 1067 -162 1026 -162 z "},"ऌ":{"ha":1040,"x_min":-14,"x_max":1110,"o":"m 860 764 l 860 585 q 985 506 942 563 q 1028 368 1028 450 q 1008 269 1028 311 q 960 200 988 226 q 890 143 932 174 q 837 97 854 115 q 819 56 819 78 q 892 -4 819 -4 q 987 8 936 -4 q 1065 40 1038 21 l 1065 -140 q 867 -176 997 -176 q 672 -120 739 -176 q 604 36 604 -64 q 622 122 604 85 q 665 183 640 158 q 731 239 690 207 q 794 296 774 272 q 814 349 814 319 q 794 404 814 383 q 740 425 775 425 q 683 396 701 425 q 664 301 664 367 l 664 275 l 450 275 l 450 301 q 432 395 450 365 q 379 425 414 425 q 319 396 338 425 q 300 301 300 367 q 403 172 300 172 l 475 172 l 475 0 l 403 0 q 160 87 233 0 q 86 301 86 174 q 154 517 86 436 q 351 597 222 597 q 557 496 497 597 q 646 576 589 553 l 646 764 l -14 764 l -14 936 l 1110 936 l 1110 764 l 860 764 z "},"ॡ":{"ha":1096,"x_min":-14,"x_max":1110,"o":"m 860 764 l 860 585 q 985 506 942 563 q 1028 368 1028 450 q 1008 269 1028 311 q 960 200 988 226 q 890 143 932 174 q 837 97 854 115 q 819 56 819 78 q 892 -4 819 -4 q 993 10 938 -4 l 993 -165 q 882 -178 931 -178 l 878 -178 q 864 -199 867 -189 q 861 -222 861 -208 q 878 -258 861 -247 q 933 -268 894 -268 q 1010 -259 976 -268 q 1081 -229 1043 -250 l 1081 -397 q 993 -420 1035 -414 q 892 -426 951 -426 q 708 -381 769 -426 q 647 -247 647 -336 q 656 -187 647 -214 q 689 -132 665 -160 q 624 -56 644 -97 q 604 36 604 -15 q 622 122 604 85 q 665 183 640 158 q 731 239 690 207 q 794 296 774 272 q 814 349 814 319 q 794 404 814 383 q 740 425 775 425 q 683 396 701 425 q 664 301 664 367 l 664 275 l 450 275 l 450 301 q 432 395 450 365 q 379 425 414 425 q 319 396 338 425 q 300 301 300 367 q 403 172 300 172 l 475 172 l 475 0 l 403 0 q 160 87 233 0 q 86 301 86 174 q 154 517 86 436 q 351 597 222 597 q 557 496 497 597 q 646 576 589 553 l 646 764 l -14 764 l -14 936 l 1110 936 l 1110 764 l 860 764 z "},"ऍ":{"ha":860,"x_min":-14,"x_max":874,"o":"m 0 0 m 874 764 l 760 764 l 760 554 q 692 352 760 410 q 476 294 624 294 l 418 294 l 418 467 l 476 467 q 530 483 514 467 q 546 554 546 500 l 546 764 l 339 764 l 339 382 q 369 240 339 286 q 446 183 400 194 q 568 172 492 172 l 718 172 l 718 0 l 568 0 q 331 28 425 0 q 181 139 236 56 q 125 382 125 222 l 125 764 l -14 764 l -14 936 l 874 936 l 874 764 m 415 986 q 171 1051 244 986 q 97 1249 97 1115 l 97 1276 l 297 1276 l 297 1249 q 325 1178 297 1197 q 415 1158 353 1158 q 506 1178 478 1158 q 533 1249 533 1197 l 533 1276 l 733 1276 l 733 1249 q 660 1049 733 1111 q 415 986 588 986 z "},"ऎ":{"ha":860,"x_min":-121,"x_max":874,"o":"m 874 764 l 760 764 l 760 554 q 692 352 760 410 q 476 294 624 294 l 418 294 l 418 467 l 476 467 q 530 483 514 467 q 546 554 546 500 l 546 764 l 339 764 l 339 382 q 369 240 339 286 q 446 183 400 194 q 568 172 492 172 l 718 172 l 718 0 l 568 0 q 331 28 425 0 q 181 139 236 56 q 125 382 125 222 l 125 764 l -14 764 l -14 936 l 560 936 l 560 992 q 535 1077 560 1053 q 446 1101 510 1101 l 214 1101 q 9 1133 82 1101 q -92 1227 -64 1164 q -121 1397 -121 1290 l -121 1446 l 93 1446 l 93 1397 q 103 1322 93 1349 q 138 1285 113 1296 q 214 1274 164 1274 l 446 1274 q 659 1244 589 1274 q 751 1157 729 1215 q 774 992 774 1099 l 774 936 l 874 936 l 874 764 z "},"ए":{"ha":860,"x_min":-14,"x_max":874,"o":"m 874 764 l 760 764 l 760 554 q 692 352 760 410 q 476 294 624 294 l 418 294 l 418 467 l 476 467 q 530 483 514 467 q 546 554 546 500 l 546 764 l 339 764 l 339 382 q 369 240 339 286 q 446 183 400 194 q 568 172 492 172 l 718 172 l 718 0 l 568 0 q 331 28 425 0 q 181 139 236 56 q 125 382 125 222 l 125 764 l -14 764 l -14 936 l 874 936 l 874 764 z "},"ऐ":{"ha":860,"x_min":-14,"x_max":874,"o":"m 874 764 l 760 764 l 760 554 q 692 352 760 410 q 476 294 624 294 l 418 294 l 418 467 l 476 467 q 530 483 514 467 q 546 554 546 500 l 546 764 l 339 764 l 339 382 q 369 240 339 286 q 446 183 400 194 q 568 172 492 172 l 718 172 l 718 0 l 568 0 q 331 28 425 0 q 181 139 236 56 q 125 382 125 222 l 125 764 l -14 764 l -14 936 l 558 936 l 522 1093 q 487 1172 508 1151 q 417 1193 465 1193 l 285 1193 l 285 1365 l 417 1365 q 573 1346 515 1365 q 670 1268 631 1326 q 736 1093 710 1210 l 772 936 l 874 936 l 874 764 z "},"ऑ":{"ha":1481,"x_min":7,"x_max":1579,"o":"m 7 0 m 1494 764 l 1369 764 l 1369 0 l 1156 0 l 1156 764 l 933 764 l 933 0 l 719 0 l 719 267 l 492 267 q 362 106 474 156 q 88 56 250 56 l 7 56 l 7 228 l 88 228 q 282 338 282 228 q 249 399 282 379 q 142 418 215 418 l 71 418 l 71 590 l 143 590 q 282 679 282 590 q 243 744 282 724 q 129 764 204 764 l 50 764 l 50 936 l 129 936 q 406 884 317 936 q 496 713 496 832 q 465 592 496 642 q 369 513 433 543 q 463 439 431 490 l 719 439 l 719 764 l 579 764 l 579 936 l 1494 936 l 1494 764 m 1261 1042 q 1017 1106 1090 1042 q 943 1304 943 1171 l 943 1332 l 1143 1332 l 1143 1304 q 1171 1233 1143 1253 q 1261 1214 1199 1214 q 1351 1233 1324 1214 q 1379 1304 1379 1253 l 1379 1332 l 1579 1332 l 1579 1304 q 1506 1104 1579 1167 q 1261 1042 1433 1042 z "},"ऒ":{"ha":1481,"x_min":7,"x_max":1494,"o":"m 1494 764 l 1369 764 l 1369 0 l 1156 0 l 1156 764 l 933 764 l 933 0 l 719 0 l 719 267 l 492 267 q 362 106 474 156 q 88 56 250 56 l 7 56 l 7 228 l 88 228 q 282 338 282 228 q 249 399 282 379 q 142 418 215 418 l 71 418 l 71 590 l 143 590 q 282 679 282 590 q 243 744 282 724 q 129 764 204 764 l 50 764 l 50 936 l 129 936 q 406 884 317 936 q 496 713 496 832 q 465 592 496 642 q 369 513 433 543 q 463 439 431 490 l 719 439 l 719 764 l 579 764 l 579 936 l 1156 936 l 1156 992 q 1131 1077 1156 1053 q 1042 1101 1106 1101 l 810 1101 q 605 1133 678 1101 q 503 1227 532 1164 q 475 1397 475 1290 l 475 1446 l 689 1446 l 689 1397 q 699 1322 689 1349 q 734 1285 708 1296 q 810 1274 760 1274 l 1042 1274 q 1255 1244 1185 1274 q 1347 1157 1325 1215 q 1369 992 1369 1099 l 1369 936 l 1494 936 l 1494 764 z "},"ओ":{"ha":1481,"x_min":7,"x_max":1494,"o":"m 1494 764 l 1369 764 l 1369 0 l 1156 0 l 1156 764 l 933 764 l 933 0 l 719 0 l 719 267 l 492 267 q 362 106 474 156 q 88 56 250 56 l 7 56 l 7 228 l 88 228 q 282 338 282 228 q 249 399 282 379 q 142 418 215 418 l 71 418 l 71 590 l 143 590 q 282 679 282 590 q 243 744 282 724 q 129 764 204 764 l 50 764 l 50 936 l 129 936 q 406 884 317 936 q 496 713 496 832 q 465 592 496 642 q 369 513 433 543 q 463 439 431 490 l 719 439 l 719 764 l 579 764 l 579 936 l 1154 936 l 1118 1093 q 1083 1172 1104 1151 q 1013 1193 1061 1193 l 881 1193 l 881 1365 l 1013 1365 q 1169 1346 1111 1365 q 1266 1268 1226 1326 q 1332 1093 1306 1210 l 1368 936 l 1494 936 l 1494 764 z "},"औ":{"ha":1481,"x_min":7,"x_max":1494,"o":"m 1494 764 l 1369 764 l 1369 0 l 1156 0 l 1156 764 l 933 764 l 933 0 l 719 0 l 719 267 l 492 267 q 362 106 474 156 q 88 56 250 56 l 7 56 l 7 228 l 88 228 q 282 338 282 228 q 249 399 282 379 q 142 418 215 418 l 71 418 l 71 590 l 143 590 q 282 679 282 590 q 243 744 282 724 q 129 764 204 764 l 50 764 l 50 936 l 129 936 q 406 884 317 936 q 496 713 496 832 q 465 592 496 642 q 369 513 433 543 q 463 439 431 490 l 719 439 l 719 764 l 579 764 l 579 936 l 1146 936 l 1074 1026 q 1006 1074 1044 1064 q 876 1083 967 1083 l 731 1083 l 731 1256 l 876 1256 q 1038 1237 981 1256 q 1143 1171 1096 1218 l 1128 1236 q 1086 1292 1118 1278 q 988 1306 1054 1306 l 856 1306 l 856 1478 l 988 1478 q 1142 1460 1085 1478 q 1238 1390 1200 1442 q 1300 1236 1276 1339 l 1368 936 l 1494 936 l 1494 764 z "},"ॳ":{"ha":1044,"x_min":7,"x_max":1058,"o":"m 1058 936 l 1058 764 l 933 764 l 933 0 l 719 0 l 719 267 l 492 267 q 362 106 474 156 q 88 56 250 56 l 7 56 l 7 228 l 88 228 q 282 338 282 228 q 249 399 282 379 q 142 418 215 418 l 71 418 l 71 590 l 143 590 q 282 679 282 590 q 243 744 282 724 q 129 764 204 764 l 50 764 l 50 936 l 129 936 q 406 884 317 936 q 496 713 496 832 q 465 592 496 642 q 369 513 433 543 q 463 439 431 490 l 719 439 l 719 764 l 579 764 l 579 936 l 722 936 l 722 1254 l 929 1254 l 929 936 l 1058 936 z "},"ॴ":{"ha":1481,"x_min":7,"x_max":1494,"o":"m 1494 764 l 1369 764 l 1369 0 l 1156 0 l 1156 764 l 933 764 l 933 0 l 719 0 l 719 267 l 492 267 q 362 106 474 156 q 88 56 250 56 l 7 56 l 7 228 l 88 228 q 282 338 282 228 q 249 399 282 379 q 142 418 215 418 l 71 418 l 71 590 l 143 590 q 282 679 282 590 q 243 744 282 724 q 129 764 204 764 l 50 764 l 50 936 l 129 936 q 406 884 317 936 q 496 713 496 832 q 465 592 496 642 q 369 513 433 543 q 463 439 431 490 l 719 439 l 719 764 l 579 764 l 579 936 l 1156 936 l 1156 1254 l 1369 1254 l 1369 936 l 1494 936 l 1494 764 z "},"ॶ":{"ha":1044,"x_min":7,"x_max":1179,"o":"m 7 0 m 1058 936 l 1058 764 l 933 764 l 933 0 l 719 0 l 719 267 l 492 267 q 362 106 474 156 q 88 56 250 56 l 7 56 l 7 228 l 88 228 q 282 338 282 228 q 249 399 282 379 q 142 418 215 418 l 71 418 l 71 590 l 143 590 q 282 679 282 590 q 243 744 282 724 q 129 764 204 764 l 50 764 l 50 936 l 129 936 q 406 884 317 936 q 496 713 496 832 q 465 592 496 642 q 369 513 433 543 q 463 439 431 490 l 719 439 l 719 764 l 579 764 l 579 936 l 1058 936 m 824 -319 q 613 -274 707 -319 q 468 -150 518 -228 l 601 -43 q 706 -122 653 -97 q 824 -147 760 -147 q 941 -122 888 -147 q 1046 -43 994 -97 l 1179 -150 q 1035 -274 1129 -228 q 824 -319 940 -319 z "},"ॷ":{"ha":1044,"x_min":7,"x_max":1179,"o":"m 7 0 m 1058 936 l 1058 764 l 933 764 l 933 0 l 719 0 l 719 267 l 492 267 q 362 106 474 156 q 88 56 250 56 l 7 56 l 7 228 l 88 228 q 282 338 282 228 q 249 399 282 379 q 142 418 215 418 l 71 418 l 71 590 l 143 590 q 282 679 282 590 q 243 744 282 724 q 129 764 204 764 l 50 764 l 50 936 l 129 936 q 406 884 317 936 q 496 713 496 832 q 465 592 496 642 q 369 513 433 543 q 463 439 431 490 l 719 439 l 719 764 l 579 764 l 579 936 l 1058 936 m 824 -319 q 613 -274 707 -319 q 468 -150 518 -228 l 601 -43 q 706 -122 653 -97 q 824 -147 760 -147 q 941 -122 888 -147 q 1046 -43 994 -97 l 1179 -150 q 1035 -274 1129 -228 q 824 -319 940 -319 m 824 -583 q 613 -537 707 -583 q 468 -414 518 -492 l 601 -307 q 706 -386 653 -361 q 824 -411 760 -411 q 941 -386 888 -411 q 1046 -307 994 -361 l 1179 -414 q 1035 -537 1129 -492 q 824 -583 940 -583 z "},"ा":{"ha":436,"x_min":-14,"x_max":450,"o":"m 450 764 l 325 764 l 325 0 l 111 0 l 111 764 l -14 764 l -14 936 l 450 936 l 450 764 z "},"ि":{"ha":436,"x_min":-15,"x_max":1124,"o":"m 657 1338 q 927 1300 825 1338 q 1076 1181 1029 1263 q 1124 965 1124 1100 l 1124 844 l 910 844 l 910 965 q 880 1096 910 1053 q 798 1152 850 1139 q 657 1165 746 1165 l 578 1165 q 436 1152 489 1165 q 354 1096 383 1139 q 325 965 325 1053 l 325 936 l 450 936 l 450 764 l 325 764 l 325 0 l 111 0 l 111 764 l -15 764 l -15 936 l 111 936 l 111 965 q 158 1181 111 1100 q 308 1300 206 1263 q 578 1338 410 1338 l 657 1338 z "},"ी":{"ha":436,"x_min":-325,"x_max":450,"o":"m 450 764 l 325 764 l 325 0 l 111 0 l 111 764 l -14 764 l -14 936 l 111 936 l 111 1021 q 100 1112 111 1081 q 67 1154 89 1143 q 10 1165 46 1165 l -10 1165 q -67 1154 -46 1165 q -100 1112 -89 1143 q -111 1021 -111 1081 l -111 844 l -325 844 l -325 1035 q -251 1267 -325 1197 q -10 1338 -178 1338 l 10 1338 q 251 1267 176 1338 q 325 1035 325 1197 l 325 936 l 450 936 l 450 764 z "},"ॉ":{"ha":436,"x_min":-101,"x_max":535,"o":"m 0 0 m 450 764 l 325 764 l 325 0 l 111 0 l 111 764 l -14 764 l -14 936 l 450 936 l 450 764 m 217 1042 q -28 1106 46 1042 q -101 1304 -101 1171 l -101 1332 l 99 1332 l 99 1304 q 126 1233 99 1253 q 217 1214 154 1214 q 307 1233 279 1214 q 335 1304 335 1253 l 335 1332 l 535 1332 l 535 1304 q 462 1104 535 1167 q 217 1042 389 1042 z "},"ॊ":{"ha":436,"x_min":-569,"x_max":450,"o":"m 450 764 l 325 764 l 325 0 l 111 0 l 111 764 l -14 764 l -14 936 l 111 936 l 111 992 q 86 1077 111 1053 q -3 1101 61 1101 l -235 1101 q -440 1133 -367 1101 q -541 1227 -512 1164 q -569 1397 -569 1290 l -569 1446 l -356 1446 l -356 1397 q -346 1322 -356 1349 q -310 1285 -336 1296 q -235 1274 -285 1274 l -3 1274 q 210 1244 140 1274 q 303 1157 281 1215 q 325 992 325 1099 l 325 936 l 450 936 l 450 764 z "},"ो":{"ha":436,"x_min":-164,"x_max":450,"o":"m 450 764 l 325 764 l 325 0 l 111 0 l 111 764 l -14 764 l -14 936 l 110 936 l 74 1093 q 38 1172 60 1151 q -32 1193 17 1193 l -164 1193 l -164 1365 l -32 1365 q 124 1346 67 1365 q 222 1268 182 1326 q 288 1093 261 1210 l 324 936 l 450 936 l 450 764 z "},"ौ":{"ha":436,"x_min":-314,"x_max":450,"o":"m 450 764 l 325 764 l 325 0 l 111 0 l 111 764 l -14 764 l -14 936 l 101 936 l 29 1026 q -39 1074 0 1064 q -168 1083 -78 1083 l -314 1083 l -314 1256 l -168 1256 q -6 1237 -64 1256 q 99 1171 51 1218 l 83 1236 q 42 1292 74 1278 q -57 1306 10 1306 l -189 1306 l -189 1478 l -57 1478 q 98 1460 40 1478 q 194 1390 156 1442 q 256 1236 232 1339 l 324 936 l 450 936 l 450 764 z "},"ॎ":{"ha":436,"x_min":111,"x_max":450,"o":"m 450 764 l 325 764 l 325 0 l 111 0 l 111 936 l 450 936 l 450 764 z "},"ऻ":{"ha":436,"x_min":-14,"x_max":450,"o":"m 450 764 l 325 764 l 325 0 l 111 0 l 111 764 l -14 764 l -14 936 l 111 936 l 111 1254 l 325 1254 l 325 936 l 450 936 l 450 764 z "},"क":{"ha":1161,"x_min":-14,"x_max":1175,"o":"m 688 764 l 688 615 q 836 651 763 651 l 843 651 q 1067 594 996 651 q 1138 392 1138 536 q 1069 191 1138 250 q 854 132 1000 132 l 838 132 q 793 134 817 132 q 754 139 769 136 l 754 308 q 821 304 817 304 l 838 304 q 924 392 924 304 q 898 461 924 443 q 813 479 872 479 l 807 479 q 743 473 769 479 q 688 451 717 467 l 688 0 l 474 0 l 474 167 q 326 132 397 132 l 319 132 q 96 190 167 132 q 25 392 25 247 q 94 592 25 533 q 308 651 163 651 l 325 651 q 369 649 346 651 q 408 644 393 647 l 408 475 q 342 479 346 479 l 325 479 q 239 392 239 479 q 265 322 239 340 q 350 304 290 304 l 356 304 q 418 310 392 304 q 474 332 444 317 l 474 764 l -14 764 l -14 936 l 1175 936 l 1175 764 l 688 764 z "},"ख":{"ha":1378,"x_min":-14,"x_max":1392,"o":"m 1392 764 l 1267 764 l 1267 0 l 1053 0 l 1053 217 q 921 188 996 188 l 896 188 q 718 244 782 188 q 654 419 654 300 q 717 592 654 533 q 882 651 779 651 l 899 651 q 989 643 931 651 l 989 474 q 940 479 953 479 l 924 479 q 868 419 868 479 q 886 372 868 383 q 946 360 904 360 l 963 360 q 1053 382 1006 360 l 1053 764 l 617 764 l 617 549 q 552 357 617 411 q 347 303 488 303 l 339 303 l 339 271 q 372 194 339 215 q 488 172 406 172 l 717 172 l 717 0 l 488 0 q 219 58 313 0 q 125 271 125 115 l 125 596 l 339 596 l 339 475 l 347 475 q 390 489 376 475 q 403 549 403 503 l 403 764 l -14 764 l -14 936 l 1392 936 l 1392 764 z "},"ग":{"ha":972,"x_min":-14,"x_max":986,"o":"m 986 764 l 861 764 l 861 0 l 647 0 l 647 764 l 501 764 l 501 443 q 289 208 501 208 q 134 247 193 208 q 40 381 75 286 l 199 468 q 229 401 215 422 q 260 381 243 381 q 282 395 276 381 q 288 444 288 410 l 288 764 l -14 764 l -14 936 l 986 936 l 986 764 z "},"घ":{"ha":876,"x_min":-14,"x_max":890,"o":"m 890 936 l 890 764 l 765 764 l 765 0 l 551 0 l 551 164 q 396 128 478 128 l 371 128 q 167 182 233 128 q 101 356 101 236 q 181 522 101 475 q 83 578 115 540 q 51 676 51 615 q 75 764 51 731 l -14 764 l -14 936 l 890 936 m 424 300 q 551 333 492 300 l 551 764 l 285 764 q 265 701 265 742 q 298 635 267 651 q 399 619 329 619 l 467 619 l 467 447 l 399 447 q 337 432 358 447 q 315 374 315 417 q 335 315 315 329 q 399 300 356 300 l 424 300 z "},"ङ":{"ha":863,"x_min":-14,"x_max":876,"o":"m 876 936 l 876 764 l 626 764 l 626 529 l 329 529 q 287 521 300 529 q 274 490 274 513 q 279 466 274 479 q 294 444 285 453 l 426 444 q 649 390 575 444 q 724 218 724 336 q 433 -37 724 -37 l 424 -37 q 205 -8 296 -37 q 19 81 114 22 l 97 249 q 261 161 190 188 q 406 135 332 135 l 421 135 q 510 204 510 135 q 426 272 510 272 l 179 272 q 98 372 136 304 q 60 511 60 439 q 125 659 60 617 q 329 701 190 701 l 413 701 l 413 764 l -14 764 l -14 936 l 876 936 m 750 606 l 876 479 l 750 354 l 624 479 l 750 606 z "},"च":{"ha":897,"x_min":-14,"x_max":911,"o":"m 911 936 l 911 764 l 786 764 l 786 0 l 572 0 l 572 153 q 454 135 510 135 l 413 135 q 205 192 282 135 q 128 365 128 250 q 172 494 128 439 l 61 494 l 61 667 l 507 667 l 507 494 l 376 494 q 342 390 342 460 q 457 307 342 307 l 481 307 q 572 325 528 307 l 572 764 l -14 764 l -14 936 l 911 936 z "},"छ":{"ha":1083,"x_min":-14,"x_max":1097,"o":"m 917 764 l 917 701 q 981 642 961 682 q 1000 533 1000 601 l 1000 336 q 881 74 1000 146 q 539 0 761 1 l 528 0 q 96 265 96 0 q 125 397 96 342 q 218 475 154 453 q 124 540 151 497 q 96 646 96 583 q 136 764 96 724 l -14 764 l -14 936 l 1097 936 l 1097 764 l 917 764 m 703 764 l 414 764 q 334 722 358 744 q 310 660 310 699 q 341 590 310 617 q 435 563 372 563 l 493 563 l 493 390 l 436 390 q 340 363 369 390 q 310 279 310 336 q 372 198 310 224 q 532 172 435 172 l 540 172 q 722 208 657 174 q 786 336 786 243 l 786 522 q 780 544 786 538 q 757 550 774 550 q 735 544 742 550 q 728 522 728 538 l 728 389 l 542 389 l 542 535 q 579 660 542 618 q 703 715 617 703 l 703 764 z "},"ज":{"ha":1013,"x_min":-14,"x_max":1026,"o":"m 1026 936 l 1026 764 l 901 764 l 901 0 l 688 0 l 688 465 l 606 465 l 606 406 q 581 249 606 310 q 498 159 557 189 q 338 129 439 129 q 142 197 201 129 q 83 406 83 264 l 83 638 l 283 638 l 283 385 q 295 322 283 343 q 338 301 307 301 q 381 322 369 301 q 392 385 392 342 l 392 638 l 688 638 l 688 764 l -14 764 l -14 936 l 1026 936 z "},"झ":{"ha":1203,"x_min":-14,"x_max":1217,"o":"m 1217 764 l 1092 764 l 1092 0 l 878 0 l 878 188 l 722 188 q 433 -37 706 -37 l 424 -37 q 260 -10 336 -37 l 260 -104 l 74 -104 l 74 242 l 260 242 l 260 160 q 406 135 324 135 l 421 135 q 510 204 510 135 q 426 272 510 272 l 179 272 q 98 372 136 304 q 60 511 60 439 q 125 659 60 617 q 329 701 190 701 l 413 701 l 413 764 l -14 764 l -14 936 l 1217 936 l 1217 764 m 878 764 l 626 764 l 626 529 l 329 529 q 287 521 300 529 q 274 490 274 513 q 279 466 274 479 q 294 444 285 453 l 426 444 q 681 360 613 444 l 878 360 l 878 764 z "},"ञ":{"ha":881,"x_min":-14,"x_max":894,"o":"m 894 936 l 894 764 l 769 764 l 769 0 l 556 0 l 556 314 l 458 314 q 352 151 438 201 q 113 101 267 101 l 53 101 l 53 274 l 113 274 q 217 301 183 274 q 251 397 251 328 q 219 496 251 471 q 113 521 186 521 l 53 521 l 53 693 l 113 693 q 351 646 267 693 q 457 486 436 599 l 556 486 l 556 764 l -14 764 l -14 936 l 894 936 z "},"ट":{"ha":735,"x_min":-14,"x_max":749,"o":"m 371 506 q 265 470 299 506 q 231 335 231 435 q 244 228 231 265 q 285 177 258 190 q 357 164 313 164 l 383 164 q 476 193 447 164 q 504 301 504 222 l 504 343 l 718 343 l 718 301 q 638 65 718 139 q 383 -8 557 -8 l 357 -8 q 99 69 182 -8 q 17 335 17 147 q 103 600 17 522 q 371 678 189 678 l 410 678 l 410 764 l -14 764 l -14 936 l 749 936 l 749 764 l 624 764 l 624 506 l 371 506 z "},"ठ":{"ha":799,"x_min":-14,"x_max":813,"o":"m 688 751 q 642 618 688 668 q 720 508 694 578 q 746 336 746 439 q 709 133 746 208 q 598 24 672 57 q 406 -8 524 -8 l 385 -8 q 127 69 210 -8 q 44 336 44 147 q 131 603 44 525 q 399 681 217 681 q 456 696 439 681 q 474 751 474 711 l 474 764 l -14 764 l -14 936 l 813 936 l 813 764 l 688 764 l 688 751 m 406 164 q 477 178 450 164 q 518 228 504 192 q 532 336 532 265 q 499 472 532 436 q 399 508 465 508 q 292 473 326 508 q 258 336 258 438 q 273 228 258 265 q 316 178 288 192 q 393 164 344 164 l 406 164 z "},"ड":{"ha":767,"x_min":-14,"x_max":781,"o":"m 329 529 q 287 521 300 529 q 274 490 274 513 q 279 466 274 479 q 294 444 285 453 l 426 444 q 649 390 575 444 q 724 218 724 336 q 433 -37 724 -37 l 424 -37 q 205 -8 296 -37 q 19 81 114 22 l 97 249 q 261 161 190 188 q 406 135 332 135 l 421 135 q 510 204 510 135 q 426 272 510 272 l 179 272 q 98 372 136 304 q 60 511 60 439 q 125 659 60 617 q 329 701 190 701 l 413 701 l 413 764 l -14 764 l -14 936 l 781 936 l 781 764 l 626 764 l 626 529 l 329 529 z "},"ढ":{"ha":735,"x_min":-14,"x_max":749,"o":"m 371 506 q 265 470 299 506 q 231 335 231 435 q 244 228 231 265 q 285 177 258 190 q 357 164 313 164 l 383 164 q 475 180 446 164 q 504 235 504 196 l 504 276 q 483 301 504 301 q 460 275 460 301 l 460 222 l 274 222 l 274 301 q 326 424 274 388 q 501 460 379 460 q 667 413 615 460 q 718 274 718 365 l 718 238 q 636 52 718 113 q 383 -8 554 -8 l 357 -8 q 99 69 182 -8 q 17 335 17 147 q 103 600 17 522 q 371 678 189 678 l 410 678 l 410 764 l -14 764 l -14 936 l 749 936 l 749 764 l 624 764 l 624 506 l 371 506 z "},"ण":{"ha":1044,"x_min":-14,"x_max":1058,"o":"m 1058 936 l 1058 764 l 933 764 l 933 0 l 719 0 l 719 764 l 633 764 l 633 525 q 567 315 633 375 q 358 254 500 254 q 150 315 217 254 q 83 525 83 375 l 83 764 l -14 764 l -14 936 l 1058 936 m 419 764 l 297 764 l 297 511 q 313 445 297 464 q 358 426 328 426 q 404 445 389 426 q 419 511 419 464 l 419 764 z "},"त":{"ha":819,"x_min":-14,"x_max":833,"o":"m 833 936 l 833 764 l 708 764 l 708 0 l 494 0 l 494 453 l 361 453 q 301 442 322 453 q 269 401 279 431 q 258 315 260 372 q 278 201 258 231 q 347 172 299 172 l 378 172 l 378 0 l 347 0 q 116 72 188 0 q 44 315 44 144 q 77 497 44 429 q 178 594 110 564 q 361 625 247 625 l 494 625 l 494 764 l -14 764 l -14 936 l 833 936 z "},"थ":{"ha":956,"x_min":69,"x_max":969,"o":"m 969 936 l 969 764 l 844 764 l 844 0 l 631 0 l 631 214 q 537 173 583 185 q 424 161 490 161 q 213 225 290 161 q 97 450 135 289 l 128 463 q 247 515 210 494 q 305 572 285 536 q 325 674 325 608 l 325 726 q 318 770 325 758 q 290 782 311 782 q 263 770 269 782 q 256 726 256 758 l 256 618 l 69 618 l 69 726 q 122 886 69 832 q 290 940 174 940 q 460 888 408 940 q 511 726 511 835 l 511 674 q 494 542 511 593 q 440 458 476 492 q 339 389 404 424 q 376 344 354 356 q 446 333 399 333 q 541 345 497 333 q 631 386 585 357 l 631 764 l 547 764 l 547 936 l 969 936 z "},"द":{"ha":763,"x_min":-14,"x_max":776,"o":"m 426 508 q 328 498 364 508 q 276 460 293 488 q 258 378 258 432 q 287 276 258 304 q 375 247 315 247 l 383 247 q 471 267 431 247 l 471 381 l 685 381 l 685 -21 l 471 -21 l 471 99 q 349 75 421 75 l 340 75 q 120 144 196 75 q 44 371 44 213 q 138 610 44 540 q 426 681 231 681 l 438 681 l 438 764 l -14 764 l -14 936 l 776 936 l 776 764 l 651 764 l 651 508 l 426 508 z "},"ध":{"ha":978,"x_min":69,"x_max":992,"o":"m 992 936 l 992 764 l 867 764 l 867 0 l 653 0 l 653 129 q 464 100 568 100 l 450 100 q 214 159 294 100 q 133 346 133 218 q 155 452 133 408 q 226 531 176 496 q 106 611 143 561 q 69 743 69 661 q 151 906 69 858 q 403 954 232 954 l 419 954 q 463 951 443 954 l 463 779 q 419 782 435 782 l 403 782 q 312 767 340 782 q 283 711 283 753 q 324 649 283 664 q 458 633 365 633 l 532 633 l 532 447 l 472 447 q 347 360 347 447 q 378 293 347 314 q 472 272 410 272 l 497 272 q 653 294 593 272 l 653 764 l 528 764 l 528 936 l 992 936 z "},"न":{"ha":819,"x_min":-14,"x_max":833,"o":"m 833 936 l 833 764 l 708 764 l 708 0 l 494 0 l 494 436 l 278 436 q 240 426 251 436 q 228 390 228 417 q 247 351 228 369 q 301 318 265 332 l 214 175 q 68 267 110 213 q 26 410 26 321 q 276 608 26 608 l 494 608 l 494 764 l -14 764 l -14 936 l 833 936 z "},"ऩ":{"ha":819,"x_min":-14,"x_max":833,"o":"m 0 0 m 833 936 l 833 764 l 708 764 l 708 0 l 494 0 l 494 436 l 278 436 q 240 426 251 436 q 228 390 228 417 q 247 351 228 369 q 301 318 265 332 l 214 175 q 68 267 110 213 q 26 410 26 321 q 276 608 26 608 l 494 608 l 494 764 l -14 764 l -14 936 l 833 936 m 135 0 l 261 126 l 388 0 l 261 -125 l 135 0 z "},"प":{"ha":854,"x_min":-14,"x_max":868,"o":"m 868 936 l 868 764 l 743 764 l 743 0 l 529 0 l 529 279 q 369 242 461 242 q 156 306 228 242 q 83 531 83 371 l 83 764 l -14 764 l -14 936 l 868 936 m 413 414 q 529 456 469 414 l 529 764 l 297 764 l 297 531 q 323 440 297 465 q 413 414 349 414 z "},"फ":{"ha":1189,"x_min":-14,"x_max":1203,"o":"m 715 764 l 715 615 q 864 651 790 651 l 871 651 q 1094 594 1024 651 q 1165 392 1165 536 q 1097 191 1165 250 q 882 132 1028 132 l 865 132 q 821 134 844 132 q 782 139 797 136 l 782 308 q 849 304 844 304 l 865 304 q 951 392 951 304 q 926 461 951 443 q 840 479 900 479 l 835 479 q 771 473 797 479 q 715 451 744 467 l 715 0 l 501 0 l 501 278 q 431 250 468 258 q 342 242 394 242 q 148 306 213 242 q 83 531 83 371 l 83 764 l -14 764 l -14 936 l 1203 936 l 1203 764 l 715 764 m 385 414 q 501 453 450 414 l 501 764 l 297 764 l 297 531 q 317 440 297 465 q 385 414 336 414 z "},"ब":{"ha":799,"x_min":-14,"x_max":813,"o":"m 813 936 l 813 764 l 688 764 l 688 0 l 474 0 l 474 167 q 326 132 397 132 l 319 132 q 96 190 167 132 q 25 392 25 247 q 94 592 25 533 q 308 651 163 651 l 325 651 q 369 649 346 651 q 408 644 393 647 l 408 475 l 360 479 l 474 349 l 474 764 l -14 764 l -14 936 l 813 936 m 239 392 q 265 322 239 340 q 349 304 290 304 l 243 425 q 239 392 239 411 z "},"भ":{"ha":1088,"x_min":69,"x_max":1101,"o":"m 1101 936 l 1101 764 l 976 764 l 976 0 l 763 0 l 763 332 l 539 332 l 539 225 l 325 225 l 325 726 q 318 770 325 758 q 290 782 311 782 q 263 770 269 782 q 256 726 256 758 l 256 618 l 69 618 l 69 726 q 125 886 69 832 q 304 940 181 940 q 485 888 431 940 q 539 726 539 835 l 539 504 l 763 504 l 763 764 l 622 764 l 622 936 l 1101 936 z "},"म":{"ha":846,"x_min":-14,"x_max":860,"o":"m 860 936 l 860 764 l 735 764 l 735 0 l 521 0 l 521 332 l 297 332 l 297 225 l 83 225 l 83 764 l -14 764 l -14 936 l 860 936 m 521 504 l 521 764 l 297 764 l 297 504 l 521 504 z "},"य":{"ha":875,"x_min":-14,"x_max":889,"o":"m 889 936 l 889 764 l 764 764 l 764 0 l 550 0 l 550 192 q 399 163 475 163 q 228 184 296 163 q 112 268 161 206 q 29 450 63 331 q 169 533 131 492 q 208 626 208 575 q 151 764 208 686 l -14 764 l -14 936 l 889 936 m 399 335 q 550 371 476 335 l 550 764 l 364 764 q 407 681 392 722 q 422 607 422 639 q 387 492 422 543 q 271 399 351 440 q 399 335 301 335 z "},"र":{"ha":725,"x_min":-14,"x_max":739,"o":"m 339 303 l 339 271 q 372 194 339 215 q 488 172 406 172 l 675 172 l 675 0 l 488 0 q 219 58 313 0 q 125 271 125 115 l 125 596 l 339 596 l 339 475 l 347 475 q 390 489 376 475 q 403 549 403 503 l 403 764 l -14 764 l -14 936 l 739 936 l 739 764 l 617 764 l 617 549 q 552 357 617 411 q 347 303 488 303 l 339 303 z "},"ऱ":{"ha":725,"x_min":-14,"x_max":739,"o":"m 0 0 m 339 303 l 339 271 q 372 194 339 215 q 488 172 406 172 l 675 172 l 675 0 l 488 0 q 219 58 313 0 q 125 271 125 115 l 125 596 l 339 596 l 339 475 l 347 475 q 390 489 376 475 q 403 549 403 503 l 403 764 l -14 764 l -14 936 l 739 936 l 739 764 l 617 764 l 617 549 q 552 357 617 411 q 347 303 488 303 l 339 303 m 0 -107 l 126 19 l 253 -107 l 126 -232 l 0 -107 z "},"ल":{"ha":1128,"x_min":-14,"x_max":1142,"o":"m 1142 936 l 1142 764 l 1017 764 l 1017 0 l 803 0 l 803 426 q 753 439 781 439 q 686 406 708 439 q 664 301 664 372 l 664 275 l 450 275 l 450 301 q 432 395 450 365 q 379 425 414 425 q 319 396 338 425 q 300 301 300 367 q 403 172 300 172 l 475 172 l 475 0 l 403 0 q 160 87 233 0 q 86 301 86 174 q 154 517 86 436 q 351 597 222 597 q 550 507 490 597 q 739 611 603 611 q 803 603 774 611 l 803 764 l -14 764 l -14 936 l 1142 936 z "},"ळ":{"ha":1092,"x_min":-14,"x_max":1106,"o":"m 863 764 l 863 644 q 1004 550 954 621 q 1054 383 1054 479 q 983 187 1054 264 q 782 110 913 110 q 644 135 703 110 q 547 206 585 160 q 321 110 469 110 q 111 187 185 110 q 38 383 38 264 q 69 522 38 460 q 165 619 101 583 q 321 656 229 656 q 454 631 397 656 q 546 561 511 606 q 649 635 588 611 l 649 764 l -14 764 l -14 936 l 1106 936 l 1106 764 l 863 764 m 349 282 q 417 310 394 282 q 439 383 439 338 q 417 456 439 428 q 349 483 394 483 q 275 456 299 483 q 251 383 251 428 q 275 310 251 338 q 349 282 299 282 m 747 282 q 817 310 794 282 q 840 383 840 338 q 817 456 840 428 q 747 483 794 483 q 676 456 699 483 q 653 383 653 428 q 676 310 653 338 q 747 282 699 282 z "},"ऴ":{"ha":1092,"x_min":-14,"x_max":1106,"o":"m 0 0 m 863 764 l 863 644 q 1004 550 954 621 q 1054 383 1054 479 q 983 187 1054 264 q 782 110 913 110 q 644 135 703 110 q 547 206 585 160 q 321 110 469 110 q 111 187 185 110 q 38 383 38 264 q 69 522 38 460 q 165 619 101 583 q 321 656 229 656 q 454 631 397 656 q 546 561 511 606 q 649 635 588 611 l 649 764 l -14 764 l -14 936 l 1106 936 l 1106 764 l 863 764 m 349 282 q 417 310 394 282 q 439 383 439 338 q 417 456 439 428 q 349 483 394 483 q 275 456 299 483 q 251 383 251 428 q 275 310 251 338 q 349 282 299 282 m 747 282 q 817 310 794 282 q 840 383 840 338 q 817 456 840 428 q 747 483 794 483 q 676 456 699 483 q 653 383 653 428 q 676 310 653 338 q 747 282 699 282 m 418 0 l 544 126 l 671 0 l 544 -125 l 418 0 z "},"व":{"ha":799,"x_min":-14,"x_max":813,"o":"m 813 936 l 813 764 l 688 764 l 688 0 l 474 0 l 474 167 q 326 132 397 132 l 319 132 q 96 190 167 132 q 25 392 25 247 q 94 592 25 533 q 308 651 163 651 l 325 651 q 369 649 346 651 q 408 644 393 647 l 408 475 q 342 479 346 479 l 325 479 q 239 392 239 479 q 265 322 239 340 q 350 304 290 304 l 356 304 q 418 310 392 304 q 474 332 444 317 l 474 764 l -14 764 l -14 936 l 813 936 z "},"श":{"ha":1017,"x_min":51,"x_max":1031,"o":"m 601 663 q 541 437 600 526 q 356 317 482 347 q 371 226 357 257 q 416 184 385 196 q 510 172 447 172 l 593 172 l 593 0 l 496 0 q 246 69 329 0 q 156 301 163 138 l 51 301 l 51 474 l 218 474 q 322 493 285 474 q 372 553 358 513 q 388 663 386 593 q 377 756 388 731 q 340 782 367 782 q 306 761 317 782 q 293 690 294 740 l 293 596 l 79 596 l 79 718 q 144 885 81 829 q 340 940 207 940 q 542 875 482 940 q 601 663 601 810 m 1031 764 l 906 764 l 906 0 l 692 0 l 692 936 l 1031 936 l 1031 764 z "},"ष":{"ha":854,"x_min":-14,"x_max":868,"o":"m 868 936 l 868 764 l 743 764 l 743 0 l 529 0 l 529 279 q 369 242 461 242 q 156 306 228 242 q 83 531 83 371 l 83 764 l -14 764 l -14 936 l 868 936 m 529 764 l 401 764 l 529 557 l 529 764 m 297 531 q 323 440 297 465 q 413 414 349 414 q 464 422 439 414 l 297 689 l 297 531 z "},"स":{"ha":1165,"x_min":-14,"x_max":1179,"o":"m 1179 936 l 1179 764 l 1054 764 l 1054 0 l 840 0 l 840 332 l 644 332 l 644 504 l 840 504 l 840 764 l 617 764 l 617 549 q 552 357 617 411 q 347 303 488 303 l 339 303 l 339 271 q 372 194 339 215 q 488 172 406 172 l 675 172 l 675 0 l 488 0 q 219 58 313 0 q 125 271 125 115 l 125 596 l 339 596 l 339 475 l 347 475 q 390 489 376 475 q 403 549 403 503 l 403 764 l -14 764 l -14 936 l 1179 936 z "},"ह":{"ha":743,"x_min":-14,"x_max":781,"o":"m 329 529 q 287 521 300 529 q 274 490 274 513 q 297 442 274 468 q 399 453 350 453 l 433 453 q 628 384 560 453 q 697 203 697 315 l 697 175 l 511 175 l 511 203 q 490 259 511 238 q 433 281 469 281 l 399 281 q 333 260 361 281 q 304 194 304 240 q 351 106 304 129 q 472 82 397 82 l 589 82 l 589 -90 l 458 -90 q 191 -22 292 -90 q 90 207 90 47 q 132 344 90 288 q 60 511 60 428 q 122 659 60 617 q 315 701 183 701 l 413 701 l 413 764 l -14 764 l -14 936 l 781 936 l 781 764 l 626 764 l 626 529 l 329 529 z "},"क़":{"ha":1161,"x_min":-14,"x_max":1175,"o":"m 0 0 m 688 764 l 688 615 q 836 651 763 651 l 843 651 q 1067 594 996 651 q 1138 392 1138 536 q 1069 191 1138 250 q 854 132 1000 132 l 838 132 q 793 134 817 132 q 754 139 769 136 l 754 308 q 821 304 817 304 l 838 304 q 924 392 924 304 q 898 461 924 443 q 813 479 872 479 l 807 479 q 743 473 769 479 q 688 451 717 467 l 688 0 l 474 0 l 474 167 q 326 132 397 132 l 319 132 q 96 190 167 132 q 25 392 25 247 q 94 592 25 533 q 308 651 163 651 l 325 651 q 369 649 346 651 q 408 644 393 647 l 408 475 q 342 479 346 479 l 325 479 q 239 392 239 479 q 265 322 239 340 q 350 304 290 304 l 356 304 q 418 310 392 304 q 474 332 444 317 l 474 764 l -14 764 l -14 936 l 1175 936 l 1175 764 l 688 764 m 139 -28 l 265 99 l 392 -28 l 265 -153 l 139 -28 z "},"ख़":{"ha":1378,"x_min":-14,"x_max":1392,"o":"m 0 0 m 1392 764 l 1267 764 l 1267 0 l 1053 0 l 1053 217 q 921 188 996 188 l 896 188 q 718 244 782 188 q 654 419 654 300 q 717 592 654 533 q 882 651 779 651 l 899 651 q 989 643 931 651 l 989 474 q 940 479 953 479 l 924 479 q 868 419 868 479 q 886 372 868 383 q 946 360 904 360 l 963 360 q 1053 382 1006 360 l 1053 764 l 617 764 l 617 549 q 552 357 617 411 q 347 303 488 303 l 339 303 l 339 271 q 372 194 339 215 q 488 172 406 172 l 717 172 l 717 0 l 488 0 q 219 58 313 0 q 125 271 125 115 l 125 596 l 339 596 l 339 475 l 347 475 q 390 489 376 475 q 403 549 403 503 l 403 764 l -14 764 l -14 936 l 1392 936 l 1392 764 m 107 -140 l 233 -14 l 360 -140 l 233 -265 l 107 -140 z "},"ग़":{"ha":972,"x_min":-14,"x_max":986,"o":"m 0 0 m 986 764 l 861 764 l 861 0 l 647 0 l 647 764 l 501 764 l 501 443 q 289 208 501 208 q 134 247 193 208 q 40 381 75 286 l 199 468 q 229 401 215 422 q 260 381 243 381 q 282 395 276 381 q 288 444 288 410 l 288 764 l -14 764 l -14 936 l 986 936 l 986 764 m 267 0 l 393 126 l 519 0 l 393 -125 l 267 0 z "},"ज़":{"ha":1013,"x_min":-14,"x_max":1026,"o":"m 0 0 m 1026 936 l 1026 764 l 901 764 l 901 0 l 688 0 l 688 465 l 606 465 l 606 406 q 581 249 606 310 q 498 159 557 189 q 338 129 439 129 q 142 197 201 129 q 83 406 83 264 l 83 638 l 283 638 l 283 385 q 295 322 283 343 q 338 301 307 301 q 381 322 369 301 q 392 385 392 342 l 392 638 l 688 638 l 688 764 l -14 764 l -14 936 l 1026 936 m 214 -56 l 340 71 l 467 -56 l 340 -181 l 214 -56 z "},"ड़":{"ha":767,"x_min":-14,"x_max":781,"o":"m 0 0 m 329 529 q 287 521 300 529 q 274 490 274 513 q 279 466 274 479 q 294 444 285 453 l 426 444 q 649 390 575 444 q 724 218 724 336 q 433 -37 724 -37 l 424 -37 q 205 -8 296 -37 q 19 81 114 22 l 97 249 q 261 161 190 188 q 406 135 332 135 l 421 135 q 510 204 510 135 q 426 272 510 272 l 179 272 q 98 372 136 304 q 60 511 60 439 q 125 659 60 617 q 329 701 190 701 l 413 701 l 413 764 l -14 764 l -14 936 l 781 936 l 781 764 l 626 764 l 626 529 l 329 529 m 260 -201 l 386 -75 l 513 -201 l 386 -326 l 260 -201 z "},"ढ़":{"ha":735,"x_min":-14,"x_max":749,"o":"m 0 0 m 371 506 q 265 470 299 506 q 231 335 231 435 q 244 228 231 265 q 285 177 258 190 q 357 164 313 164 l 383 164 q 475 180 446 164 q 504 235 504 196 l 504 276 q 483 301 504 301 q 460 275 460 301 l 460 222 l 274 222 l 274 301 q 326 424 274 388 q 501 460 379 460 q 667 413 615 460 q 718 274 718 365 l 718 238 q 636 52 718 113 q 383 -8 554 -8 l 357 -8 q 99 69 182 -8 q 17 335 17 147 q 103 600 17 522 q 371 678 189 678 l 410 678 l 410 764 l -14 764 l -14 936 l 749 936 l 749 764 l 624 764 l 624 506 l 371 506 m 246 -174 l 372 -47 l 499 -174 l 372 -299 l 246 -174 z "},"फ़":{"ha":1189,"x_min":-14,"x_max":1203,"o":"m 0 0 m 715 764 l 715 615 q 864 651 790 651 l 871 651 q 1094 594 1024 651 q 1165 392 1165 536 q 1097 191 1165 250 q 882 132 1028 132 l 865 132 q 821 134 844 132 q 782 139 797 136 l 782 308 q 849 304 844 304 l 865 304 q 951 392 951 304 q 926 461 951 443 q 840 479 900 479 l 835 479 q 771 473 797 479 q 715 451 744 467 l 715 0 l 501 0 l 501 278 q 431 250 468 258 q 342 242 394 242 q 148 306 213 242 q 83 531 83 371 l 83 764 l -14 764 l -14 936 l 1203 936 l 1203 764 l 715 764 m 385 414 q 501 453 450 414 l 501 764 l 297 764 l 297 531 q 317 440 297 465 q 385 414 336 414 m 107 83 l 233 210 l 360 83 l 233 -42 l 107 83 z "},"य़":{"ha":875,"x_min":-14,"x_max":889,"o":"m 0 0 m 889 936 l 889 764 l 764 764 l 764 0 l 550 0 l 550 192 q 399 163 475 163 q 228 184 296 163 q 112 268 161 206 q 29 450 63 331 q 169 533 131 492 q 208 626 208 575 q 151 764 208 686 l -14 764 l -14 936 l 889 936 m 399 335 q 550 371 476 335 l 550 764 l 364 764 q 407 681 392 722 q 422 607 422 639 q 387 492 422 543 q 271 399 351 440 q 399 335 301 335 m 89 14 l 215 140 l 342 14 l 215 -111 l 89 14 z "},"ॹ":{"ha":1013,"x_min":-14,"x_max":1026,"o":"m 0 0 m 1026 936 l 1026 764 l 901 764 l 901 0 l 688 0 l 688 465 l 606 465 l 606 406 q 581 249 606 310 q 498 159 557 189 q 338 129 439 129 q 142 197 201 129 q 83 406 83 264 l 83 638 l 283 638 l 283 385 q 295 322 283 343 q 338 301 307 301 q 381 322 369 301 q 392 385 392 342 l 392 638 l 688 638 l 688 764 l -14 764 l -14 936 l 1026 936 m 57 11 l 183 138 l 310 11 l 183 -114 l 57 11 m 221 -150 l 347 -24 l 474 -150 l 347 -275 l 221 -150 m 385 11 l 511 138 l 638 11 l 511 -114 l 385 11 z "},"ॺ":{"ha":806,"x_min":-14,"x_max":889,"o":"m 889 936 l 889 764 l 764 764 l 764 0 l 550 0 l 550 192 q 399 163 475 163 q 228 184 296 163 q 112 268 161 206 q 29 450 63 331 q 169 533 131 492 q 208 626 208 575 q 151 764 208 686 l -14 764 l -14 936 l 889 936 m 550 764 l 413 764 l 550 581 l 550 764 m 271 399 q 399 335 301 335 q 515 357 457 335 l 399 511 q 271 399 364 446 z "},"ॻ":{"ha":972,"x_min":-14,"x_max":986,"o":"m 986 764 l 861 764 l 861 -111 l 69 -111 l 69 61 l 647 61 l 647 764 l 501 764 l 501 443 q 289 208 501 208 q 134 247 193 208 q 40 381 75 286 l 199 468 q 229 401 215 422 q 260 381 243 381 q 282 395 276 381 q 288 444 288 410 l 288 764 l -14 764 l -14 936 l 986 936 l 986 764 z "},"ॼ":{"ha":1013,"x_min":-14,"x_max":1026,"o":"m 1026 936 l 1026 764 l 901 764 l 901 -111 l 69 -111 l 69 61 l 688 61 l 688 465 l 606 465 l 606 406 q 581 249 606 310 q 498 159 557 189 q 338 129 439 129 q 142 197 201 129 q 83 406 83 264 l 83 638 l 283 638 l 283 385 q 295 322 283 343 q 338 301 307 301 q 381 322 369 301 q 392 385 392 342 l 392 638 l 688 638 l 688 764 l -14 764 l -14 936 l 1026 936 z "},"ॾ":{"ha":767,"x_min":-14,"x_max":781,"o":"m 329 529 q 287 521 300 529 q 274 490 274 513 q 279 466 274 479 q 294 444 285 453 l 426 444 q 649 390 575 444 q 724 218 724 336 q 433 -37 724 -37 l 424 -37 q 205 -8 296 -37 q 19 81 114 22 l 97 249 q 261 161 190 188 q 406 135 332 135 l 421 135 q 510 204 510 135 q 426 272 510 272 l 179 272 q 98 372 136 304 q 60 511 60 439 q 125 659 60 617 q 329 701 190 701 l 413 701 l 413 764 l -14 764 l -14 936 l 781 936 l 781 764 l 626 764 l 626 529 l 329 529 m 69 -106 l 694 -106 l 694 -278 l 69 -278 l 69 -106 z "},"ॿ":{"ha":799,"x_min":-14,"x_max":813,"o":"m 813 936 l 813 764 l 688 764 l 688 -172 l 69 -172 l 69 0 l 474 0 l 474 167 q 326 132 397 132 l 319 132 q 96 190 167 132 q 25 392 25 247 q 94 592 25 533 q 308 651 163 651 l 325 651 q 369 649 346 651 q 408 644 393 647 l 408 475 l 360 479 l 474 349 l 474 764 l -14 764 l -14 936 l 813 936 m 239 392 q 265 322 239 340 q 349 304 290 304 l 243 425 q 239 392 239 411 z "},"⁄":{"ha":549,"x_min":-111,"x_max":660,"o":"m 468 1074 l 660 1074 l 81 -46 l -111 -46 l 468 1074 z "},"½":{"ha":1632,"x_min":76,"x_max":1619,"o":"m 76 0 m 465 326 l 465 182 l 76 182 l 76 326 l 192 326 l 192 790 l 96 790 l 96 935 l 350 935 l 350 326 l 465 326 m 1010 1074 l 1201 1074 l 622 -46 l 431 -46 l 1010 1074 m 1151 326 q 1329 515 1276 456 q 1410 622 1382 574 q 1439 713 1439 669 q 1344 807 1439 807 q 1175 765 1258 807 l 1175 911 q 1349 949 1260 949 q 1532 889 1464 949 q 1600 719 1600 829 q 1541 544 1600 632 q 1350 326 1482 457 l 1619 326 l 1619 182 l 1151 182 l 1151 326 z "},"¼":{"ha":1632,"x_min":76,"x_max":1618,"o":"m 76 0 m 465 326 l 465 182 l 76 182 l 76 326 l 192 326 l 192 790 l 96 790 l 96 935 l 350 935 l 350 326 l 465 326 m 1010 1074 l 1201 1074 l 622 -46 l 431 -46 l 1010 1074 m 1618 343 l 1553 343 l 1553 182 l 1394 182 l 1394 343 l 1104 343 l 1104 485 l 1375 947 l 1553 947 l 1553 485 l 1618 485 l 1618 343 m 1394 485 l 1394 694 l 1274 485 l 1394 485 z "},"¾":{"ha":1632,"x_min":51,"x_max":1618,"o":"m 51 0 m 400 581 q 514 407 514 521 q 440 230 514 293 q 236 167 365 167 q 51 194 125 167 l 51 340 q 222 308 125 308 q 316 333 281 308 q 351 407 351 358 q 207 501 351 501 l 131 501 l 131 657 l 207 657 q 307 678 272 657 q 342 742 342 700 q 315 790 342 772 q 236 807 288 807 q 61 779 132 807 l 61 924 q 236 949 131 949 q 436 893 368 949 q 504 742 504 838 q 400 581 504 638 m 1010 1074 l 1201 1074 l 622 -46 l 431 -46 l 1010 1074 m 1618 343 l 1553 343 l 1553 182 l 1394 182 l 1394 343 l 1104 343 l 1104 485 l 1375 947 l 1553 947 l 1553 485 l 1618 485 l 1618 343 m 1394 485 l 1394 694 l 1274 485 l 1394 485 z "},"¹":{"ha":542,"x_min":76,"x_max":465,"o":"m 465 326 l 465 182 l 76 182 l 76 326 l 192 326 l 192 790 l 96 790 l 96 935 l 350 935 l 350 326 l 465 326 z "},"²":{"ha":542,"x_min":61,"x_max":529,"o":"m 61 326 q 239 515 186 456 q 320 622 292 574 q 349 713 349 669 q 254 807 349 807 q 85 765 168 807 l 85 911 q 258 949 169 949 q 442 889 374 949 q 510 719 510 829 q 451 544 510 632 q 260 326 392 457 l 529 326 l 529 182 l 61 182 l 61 326 z "},"³":{"ha":542,"x_min":51,"x_max":514,"o":"m 400 581 q 514 407 514 521 q 440 230 514 293 q 236 167 365 167 q 51 194 125 167 l 51 340 q 222 308 125 308 q 316 333 281 308 q 351 407 351 358 q 207 501 351 501 l 131 501 l 131 657 l 207 657 q 307 678 272 657 q 342 742 342 700 q 315 790 342 772 q 236 807 288 807 q 61 779 132 807 l 61 924 q 236 949 131 949 q 436 893 368 949 q 504 742 504 838 q 400 581 504 638 z "},"०":{"ha":886,"x_min":81,"x_max":806,"o":"m 443 131 q 249 175 331 131 q 124 296 167 219 q 81 465 81 372 q 124 635 81 558 q 249 756 167 711 q 443 800 331 800 q 638 756 556 800 q 763 635 719 711 q 806 465 806 558 q 763 296 806 372 q 638 175 719 219 q 443 131 556 131 m 443 303 q 553 347 514 303 q 592 465 592 392 q 553 583 592 539 q 443 628 514 628 q 333 583 372 628 q 294 465 294 539 q 333 347 294 392 q 443 303 372 303 z "},"१":{"ha":667,"x_min":31,"x_max":636,"o":"m 636 676 q 574 442 636 542 q 404 289 511 343 l 572 97 l 433 -22 l 211 235 q 156 232 175 232 l 72 232 l 72 404 l 156 404 q 347 471 271 404 q 422 676 422 538 q 403 768 422 740 q 340 796 385 796 q 244 676 246 796 l 244 624 l 31 624 l 31 676 q 107 895 32 822 q 340 968 182 968 q 566 895 496 968 q 636 676 636 822 z "},"२":{"ha":686,"x_min":64,"x_max":635,"o":"m 635 172 l 635 0 l 551 0 q 142 350 153 0 l 64 350 l 64 522 l 240 522 q 365 548 325 522 q 407 643 406 574 q 365 738 406 713 q 240 764 325 764 l 64 764 l 64 936 l 240 936 q 527 868 435 936 q 621 643 619 800 q 554 442 619 510 q 356 357 489 374 q 412 212 360 251 q 551 172 464 172 l 635 172 z "},"३":{"ha":672,"x_min":22,"x_max":650,"o":"m 451 522 q 599 434 547 494 q 650 283 650 374 q 556 82 650 150 q 313 14 463 14 q 222 21 267 14 l 222 -81 l 22 -81 l 22 293 l 222 293 l 222 196 q 313 186 268 186 q 412 211 374 186 q 450 293 450 236 q 226 418 450 418 l 100 418 l 100 590 l 228 590 q 332 618 297 590 q 367 689 367 646 q 228 764 367 764 l 38 764 l 38 936 l 228 936 q 483 883 399 936 q 567 713 567 829 q 539 596 567 643 q 451 522 511 549 z "},"४":{"ha":797,"x_min":38,"x_max":760,"o":"m 760 868 q 744 699 760 763 q 695 596 728 635 q 604 518 663 557 l 569 496 q 665 392 632 449 q 697 251 697 335 q 660 111 697 174 q 556 13 624 49 q 399 -22 489 -22 q 241 13 308 -22 q 137 111 174 49 q 100 251 100 174 q 229 494 100 394 l 193 518 q 99 599 132 557 q 52 703 67 640 q 38 868 38 767 l 38 936 l 251 936 l 251 868 q 263 747 251 788 q 302 678 274 706 q 399 608 331 651 q 492 678 464 650 q 533 748 521 706 q 546 868 546 790 l 546 936 l 760 936 l 760 868 m 399 150 q 460 175 436 150 q 483 251 483 200 q 463 327 483 296 q 400 386 442 358 q 336 325 358 357 q 314 251 314 293 q 338 175 314 200 q 399 150 361 150 z "},"५":{"ha":794,"x_min":83,"x_max":711,"o":"m 711 765 l 711 228 q 623 38 711 100 q 374 -24 535 -24 q 240 -10 307 -24 q 126 24 174 4 l 97 213 q 211 165 151 182 q 346 149 271 149 q 458 172 418 149 q 497 269 497 196 l 497 313 q 371 289 442 289 q 153 353 224 289 q 83 578 83 417 l 83 936 l 297 936 l 297 578 q 317 487 297 513 q 385 461 336 461 q 497 485 447 461 l 497 765 l 711 765 z "},"६":{"ha":704,"x_min":24,"x_max":690,"o":"m 690 364 l 690 -37 l 476 -37 l 476 64 q 414 58 449 58 l 389 58 q 147 128 229 58 q 64 325 64 199 q 183 525 64 467 q 63 599 103 547 q 24 738 24 650 q 109 904 24 854 q 376 954 194 954 l 401 954 q 506 943 461 954 l 506 768 q 401 782 460 782 l 376 782 q 270 766 303 782 q 238 701 238 750 q 276 635 239 651 q 399 619 314 619 l 453 619 l 453 447 l 389 447 q 307 418 336 447 q 278 332 278 389 q 389 231 278 231 l 414 231 q 476 238 449 231 l 476 364 l 690 364 z "},"७":{"ha":819,"x_min":51,"x_max":768,"o":"m 410 35 q 139 123 226 35 q 51 411 51 211 l 51 936 l 265 936 l 265 425 q 281 292 265 339 q 328 226 297 244 q 410 207 360 207 q 519 253 483 207 q 554 425 554 300 l 554 768 q 551 790 554 783 q 539 796 549 796 q 524 768 524 796 l 524 636 l 310 636 l 310 782 q 364 910 310 867 q 539 954 418 954 q 715 910 661 954 q 768 782 768 867 l 768 411 q 678 124 768 213 q 410 35 588 35 z "},"८":{"ha":654,"x_min":-4,"x_max":592,"o":"m 493 0 q 119 93 243 0 q -4 344 -4 186 q 25 481 -4 418 q 107 603 54 544 q 249 738 160 661 l 460 921 l 592 781 l 381 597 q 248 463 286 515 q 210 344 210 411 q 280 217 210 263 q 493 172 350 172 l 572 172 l 572 0 l 493 0 z "},"९":{"ha":724,"x_min":17,"x_max":707,"o":"m 358 186 l 328 214 q 160 372 222 308 q 58 510 99 435 q 17 668 17 585 q 103 883 17 811 q 350 954 190 954 q 565 883 489 954 q 642 668 642 811 l 642 581 l 428 581 l 428 668 q 333 782 428 782 q 260 756 285 782 q 235 668 235 729 q 263 565 235 614 q 333 472 290 515 q 461 351 376 428 q 492 325 490 326 l 707 132 l 574 -7 l 358 186 z "},"*":{"ha":858,"x_min":83,"x_max":775,"o":"m 567 867 l 775 778 l 679 611 l 497 747 l 525 522 l 333 522 l 361 747 l 179 611 l 83 778 l 292 867 l 83 956 l 179 1122 l 361 986 l 333 1211 l 525 1211 l 497 986 l 679 1122 l 775 956 l 567 867 z "},"\\":{"ha":607,"x_min":-35,"x_max":642,"o":"m -35 1293 l 210 1293 l 642 -246 l 397 -246 l -35 1293 z "},"·":{"ha":394,"x_min":69,"x_max":325,"o":"m 69 615 l 325 615 l 325 364 l 69 364 l 69 615 z "},"•":{"ha":482,"x_min":15,"x_max":467,"o":"m 242 303 q 128 333 181 303 q 46 416 76 364 q 15 529 15 468 q 46 643 15 592 q 128 724 76 694 q 242 754 181 754 q 356 724 304 754 q 437 643 407 694 q 467 529 467 592 q 437 416 467 468 q 356 333 407 364 q 242 303 304 303 z "},":":{"ha":394,"x_min":69,"x_max":325,"o":"m 69 0 m 69 251 l 325 251 l 325 0 l 69 0 l 69 251 m 69 800 l 325 800 l 325 549 l 69 549 l 69 800 z "},",":{"ha":394,"x_min":24,"x_max":357,"o":"m 107 251 l 357 251 l 238 -210 l 24 -210 l 107 251 z "},"…":{"ha":1183,"x_min":69,"x_max":1114,"o":"m 69 251 l 325 251 l 325 0 l 69 0 l 69 251 m 464 251 l 719 251 l 719 0 l 464 0 l 464 251 m 1114 251 l 1114 0 l 858 0 l 858 251 l 1114 251 z "},"!":{"ha":394,"x_min":64,"x_max":331,"o":"m 64 1053 l 331 1053 l 300 319 l 94 319 l 64 1053 m 69 238 l 325 238 l 325 0 l 69 0 l 69 238 z "},"¡":{"ha":394,"x_min":64,"x_max":331,"o":"m 69 1053 l 325 1053 l 325 815 l 69 815 l 69 1053 m 94 733 l 300 733 l 331 0 l 64 0 l 94 733 z "},"#":{"ha":976,"x_min":83,"x_max":892,"o":"m 778 538 l 760 399 l 850 399 l 850 185 l 732 185 l 708 0 l 492 0 l 515 185 l 386 185 l 363 0 l 146 0 l 169 185 l 83 185 l 83 399 l 197 399 l 215 538 l 125 538 l 125 751 l 243 751 l 267 936 l 483 936 l 460 751 l 589 751 l 613 936 l 829 936 l 806 751 l 892 751 l 892 538 l 778 538 m 561 538 l 432 538 l 414 399 l 543 399 l 561 538 z "},".":{"ha":394,"x_min":69,"x_max":325,"o":"m 69 251 l 325 251 l 325 0 l 69 0 l 69 251 z "},"?":{"ha":694,"x_min":51,"x_max":657,"o":"m 161 411 q 185 530 161 486 q 271 624 208 574 l 340 679 q 397 733 383 714 q 410 783 410 753 q 378 841 410 821 q 293 861 347 861 q 51 804 168 861 l 51 1021 q 183 1061 118 1050 q 321 1072 247 1072 q 563 1002 469 1072 q 657 803 657 932 q 636 689 657 736 q 585 610 615 642 q 504 538 556 579 l 463 504 q 417 453 429 476 q 406 388 406 429 l 406 319 l 161 319 l 161 411 m 156 238 l 411 238 l 411 0 l 156 0 l 156 238 z "},"¿":{"ha":694,"x_min":38,"x_max":643,"o":"m 283 1053 l 539 1053 l 539 815 l 283 815 l 283 1053 m 374 -19 q 131 51 225 -19 q 38 250 38 121 q 58 364 38 317 q 109 442 79 411 q 190 515 139 474 l 232 549 q 277 600 265 576 q 289 665 289 624 l 289 733 l 533 733 l 533 642 q 510 523 533 567 q 424 429 486 479 l 354 374 q 298 319 311 339 q 285 269 285 300 q 316 212 285 232 q 401 192 347 192 q 643 249 526 192 l 643 32 q 512 -8 576 3 q 374 -19 447 -19 z "},"\"":{"ha":700,"x_min":89,"x_max":611,"o":"m 89 633 m 89 1053 l 306 1053 l 306 633 l 89 633 l 89 1053 m 394 1053 l 611 1053 l 611 633 l 394 633 l 394 1053 z "},"'":{"ha":394,"x_min":89,"x_max":306,"o":"m 89 1053 l 306 1053 l 306 633 l 89 633 l 89 1053 z "},";":{"ha":394,"x_min":24,"x_max":357,"o":"m 24 0 m 107 251 l 357 251 l 238 -210 l 24 -210 l 107 251 m 69 800 l 325 800 l 325 549 l 69 549 l 69 800 z "},"/":{"ha":607,"x_min":-35,"x_max":642,"o":"m 397 1293 l 642 1293 l 210 -246 l -35 -246 l 397 1293 z "},"_":{"ha":694,"x_min":0,"x_max":694,"o":"m 0 -107 l 694 -107 l 694 -321 l 0 -321 l 0 -107 z "},"{":{"ha":564,"x_min":49,"x_max":522,"o":"m 397 693 q 386 590 397 628 q 348 531 375 551 q 271 499 321 510 q 370 439 343 481 q 397 304 397 397 l 397 136 q 410 56 397 76 q 458 35 422 35 q 522 40 494 35 l 522 -174 q 424 -179 474 -179 q 265 -158 324 -179 q 180 -86 207 -137 q 153 58 153 -35 l 153 263 q 147 344 153 317 q 129 381 142 371 q 92 392 117 392 l 49 392 l 49 606 l 92 606 q 129 616 117 606 q 147 653 142 626 q 153 735 153 681 l 153 939 q 180 1083 153 1032 q 265 1156 207 1135 q 424 1176 324 1176 q 522 1171 474 1176 l 522 957 q 458 963 494 963 q 410 942 422 963 q 397 861 397 921 l 397 693 z "},"}":{"ha":450,"x_min":-72,"x_max":401,"o":"m 0 0 m 53 693 q 64 590 53 628 q 102 531 75 551 q 179 499 129 510 q 80 439 107 481 q 53 304 53 397 l 53 136 q 40 56 53 76 q -8 35 28 35 q -72 40 -44 35 l -72 -174 q 26 -179 -24 -179 q 185 -158 126 -179 q 270 -86 243 -137 q 297 58 297 -35 l 297 263 q 303 344 297 317 q 321 381 308 371 q 358 392 333 392 l 401 392 l 401 606 l 358 606 q 321 616 333 606 q 303 653 308 626 q 297 735 297 681 l 297 939 q 270 1083 297 1032 q 185 1156 243 1135 q 26 1176 126 1176 q -72 1171 -24 1176 l -72 957 q -8 963 -44 963 q 40 942 28 963 q 53 861 53 921 l 53 693 z "},"[":{"ha":478,"x_min":83,"x_max":436,"o":"m 436 35 l 436 -179 l 83 -179 l 83 1176 l 429 1176 l 429 963 l 328 963 l 328 35 l 436 35 z "},"]":{"ha":478,"x_min":42,"x_max":394,"o":"m 394 -179 l 49 -179 l 49 35 l 150 35 l 150 963 l 42 963 l 42 1176 l 394 1176 l 394 -179 z "},"(":{"ha":536,"x_min":78,"x_max":508,"o":"m 333 -179 q 140 131 201 -31 q 78 499 78 292 q 140 867 78 706 q 333 1176 201 1028 l 508 1056 q 339 499 339 826 q 508 -58 339 171 l 333 -179 z "},")":{"ha":536,"x_min":28,"x_max":458,"o":"m 28 -58 q 197 499 197 171 q 28 1056 197 826 l 203 1176 q 397 867 335 1028 q 458 499 458 706 q 397 131 458 292 q 203 -179 335 -31 l 28 -58 z "},"—":{"ha":1389,"x_min":174,"x_max":1215,"o":"m 174 517 l 1215 517 l 1215 306 l 174 306 l 174 517 z "},"–":{"ha":694,"x_min":0,"x_max":694,"o":"m 0 517 l 694 517 l 694 306 l 0 306 l 0 517 z "},"-":{"ha":631,"x_min":111,"x_max":519,"o":"m 111 517 l 519 517 l 519 306 l 111 306 l 111 517 z "},"«":{"ha":1064,"x_min":125,"x_max":938,"o":"m 508 36 m 715 375 l 938 172 l 794 36 l 508 290 l 508 460 l 794 714 l 938 578 l 715 375 m 332 375 l 554 172 l 411 36 l 125 290 l 125 460 l 411 714 l 554 578 l 332 375 z "},"»":{"ha":1064,"x_min":126,"x_max":939,"o":"m 126 36 m 349 375 l 126 172 l 269 36 l 556 290 l 556 460 l 269 714 l 126 578 l 349 375 m 732 375 l 510 172 l 653 36 l 939 290 l 939 460 l 653 714 l 510 578 l 732 375 z "},"‹":{"ha":681,"x_min":125,"x_max":554,"o":"m 332 375 l 554 172 l 411 36 l 125 290 l 125 460 l 411 714 l 554 578 l 332 375 z "},"›":{"ha":681,"x_min":126,"x_max":556,"o":"m 126 36 m 349 375 l 126 172 l 269 36 l 556 290 l 556 460 l 269 714 l 126 578 l 349 375 z "},"„":{"ha":728,"x_min":24,"x_max":690,"o":"m 357 251 l 238 -210 l 24 -210 l 107 251 l 357 251 m 690 251 l 571 -210 l 357 -210 l 440 251 l 690 251 z "},"“":{"ha":728,"x_min":38,"x_max":704,"o":"m 251 1053 l 371 592 l 121 592 l 38 1053 l 251 1053 m 704 592 l 454 592 l 371 1053 l 585 1053 l 704 592 z "},"”":{"ha":728,"x_min":24,"x_max":690,"o":"m 24 592 m 107 1053 l 357 1053 l 238 592 l 24 592 l 107 1053 m 440 1053 l 690 1053 l 571 592 l 357 592 l 440 1053 z "},"‘":{"ha":394,"x_min":38,"x_max":371,"o":"m 38 592 m 121 592 l 371 592 l 251 1053 l 38 1053 l 121 592 z "},"’":{"ha":394,"x_min":24,"x_max":357,"o":"m 24 592 m 107 1053 l 357 1053 l 238 592 l 24 592 l 107 1053 z "},"‚":{"ha":394,"x_min":24,"x_max":357,"o":"m 24 0 m 107 251 l 357 251 l 238 -210 l 24 -210 l 107 251 z "},"ॽ":{"ha":688,"x_min":64,"x_max":621,"o":"m 621 636 q 551 426 621 500 q 335 339 481 353 l 335 0 l 121 0 l 121 507 l 254 507 q 372 537 338 507 q 407 636 407 567 q 367 734 407 704 q 240 764 328 764 l 64 764 l 64 936 l 240 936 q 526 862 431 936 q 621 636 621 788 z "},"।":{"ha":671,"x_min":328,"x_max":542,"o":"m 328 881 l 542 881 l 542 0 l 328 0 l 328 881 z "},"॥":{"ha":986,"x_min":328,"x_max":903,"o":"m 328 0 m 328 881 l 542 881 l 542 0 l 328 0 l 328 881 m 689 881 l 903 881 l 903 0 l 689 0 l 689 881 z "},"॰":{"ha":640,"x_min":50,"x_max":590,"o":"m 321 128 q 184 158 246 128 q 86 247 122 189 q 50 385 50 306 q 86 522 50 464 q 184 610 122 579 q 321 640 246 640 q 457 610 396 640 q 554 522 518 579 q 590 385 590 464 q 554 247 590 306 q 457 158 518 189 q 321 128 396 128 m 321 286 q 381 313 358 286 q 404 385 404 339 q 381 456 404 431 q 321 482 358 482 q 260 456 283 482 q 236 385 236 431 q 260 313 236 339 q 321 286 283 286 z "},"ॱ":{"ha":381,"x_min":64,"x_max":317,"o":"m 64 850 l 190 976 l 317 850 l 190 725 l 64 850 z "}," ":{"ha":306,"x_min":0,"x_max":0,"o":""},"‍":{"ha":0,"x_min":0,"x_max":0,"o":""},"":{"ha":833,"x_min":0,"x_max":0,"o":""},"¢":{"ha":764,"x_min":40,"x_max":750,"o":"m 750 53 q 574 -14 667 4 l 574 -133 l 371 -133 l 371 -18 q 125 108 210 4 q 40 381 40 211 q 125 651 40 550 q 371 775 210 753 l 371 890 l 574 890 l 574 774 q 693 742 633 765 l 693 522 q 574 561 636 550 l 574 203 q 682 253 628 218 l 750 53 m 292 382 q 371 213 292 254 l 371 544 q 292 382 292 504 z "},"¤":{"ha":764,"x_min":56,"x_max":700,"o":"m 56 271 l 143 360 q 121 467 121 413 q 143 574 121 521 l 56 663 l 183 792 l 272 703 q 378 724 325 724 q 483 703 431 724 l 572 792 l 700 663 l 613 574 q 635 467 635 521 q 613 360 635 413 l 700 271 l 572 142 l 483 231 q 378 210 431 210 q 272 231 325 210 l 183 142 l 56 271 m 378 360 q 447 391 418 360 q 476 467 476 422 q 447 542 476 511 q 378 574 418 574 q 308 542 338 574 q 279 467 279 511 q 308 391 279 422 q 378 360 338 360 z "},"$":{"ha":764,"x_min":19,"x_max":742,"o":"m 742 278 q 669 79 742 156 q 465 -17 597 3 l 465 -133 l 263 -133 l 263 -18 q 29 47 135 -6 l 29 269 q 263 194 136 213 l 263 369 q 81 470 143 404 q 19 657 19 536 q 92 860 19 786 q 297 950 164 935 l 297 1053 l 500 1053 l 500 944 q 685 883 593 931 l 685 668 q 500 732 603 715 l 500 551 l 511 549 q 688 449 633 514 q 742 278 742 385 m 297 739 q 256 679 256 726 q 265 638 256 653 q 297 613 274 624 l 297 739 m 465 199 q 497 222 489 207 q 506 256 506 236 q 497 285 506 274 q 465 307 489 297 l 465 199 z "},"€":{"ha":764,"x_min":28,"x_max":764,"o":"m 764 63 q 641 -3 708 18 q 488 -24 574 -24 q 156 271 214 -24 l 31 271 l 96 443 l 138 443 l 138 467 l 138 492 l 28 492 l 93 664 l 156 664 q 275 883 188 811 q 510 956 363 956 q 746 886 642 956 l 661 694 q 528 744 592 744 q 457 726 486 744 q 411 664 428 707 l 653 664 l 588 492 l 385 492 l 385 467 l 385 443 l 571 443 l 506 271 l 410 271 q 456 207 426 226 q 528 188 486 188 q 606 203 571 188 q 689 254 640 219 l 764 63 z "},"ƒ":{"ha":764,"x_min":132,"x_max":689,"o":"m 608 979 q 549 962 569 979 q 525 907 529 944 l 510 758 l 676 758 l 635 544 l 488 544 l 399 -325 l 157 -325 l 246 544 l 132 544 l 132 758 l 268 758 l 285 917 q 328 1081 296 1021 q 426 1167 361 1140 q 606 1193 492 1193 q 689 1188 649 1193 l 689 972 q 608 979 654 979 z "},"₹":{"ha":764,"x_min":35,"x_max":731,"o":"m 592 764 l 592 714 l 731 714 l 731 542 l 592 542 l 592 493 q 519 302 592 363 q 294 235 447 242 q 335 143 300 169 q 442 117 369 117 l 650 117 l 650 -56 l 442 -56 q 249 -28 328 -56 q 124 70 169 -1 q 79 271 79 142 l 79 489 l 293 489 l 293 407 q 359 428 340 410 q 378 493 378 447 l 378 542 l 35 542 l 35 714 l 378 714 l 378 764 l 35 764 l 35 936 l 731 936 l 731 764 l 592 764 z "},"£":{"ha":764,"x_min":51,"x_max":725,"o":"m 725 214 l 725 0 l 51 0 l 51 214 l 183 214 l 183 381 l 93 381 l 93 594 l 183 594 l 183 649 q 209 821 183 754 q 299 922 235 888 q 479 956 364 956 q 585 947 533 956 q 661 931 636 939 l 661 713 q 519 742 590 742 q 449 721 472 742 q 425 654 425 700 l 425 594 l 594 594 l 594 381 l 425 381 l 425 214 l 725 214 z "},"¥":{"ha":764,"x_min":1,"x_max":764,"o":"m 564 529 l 708 529 l 708 357 l 504 357 l 504 308 l 708 308 l 708 136 l 504 136 l 504 0 l 260 0 l 260 136 l 56 136 l 56 308 l 260 308 l 260 357 l 56 357 l 56 529 l 200 529 l 1 936 l 238 936 l 382 626 l 528 936 l 764 936 l 564 529 z "},"≈":{"ha":764,"x_min":36,"x_max":725,"o":"m 500 463 q 424 474 458 463 q 346 507 390 485 q 321 518 340 510 q 287 531 301 526 q 260 535 272 535 q 207 522 232 535 q 136 474 182 510 l 36 618 q 144 708 96 679 q 247 738 192 738 q 323 726 289 738 q 401 693 357 715 q 426 682 407 690 q 460 669 446 674 q 488 665 475 665 q 540 678 515 665 q 611 726 565 690 l 711 582 q 603 492 651 521 q 500 463 556 463 m 514 185 q 438 196 472 185 q 360 229 404 207 q 335 240 354 232 q 301 253 315 249 q 274 257 286 257 q 221 244 246 257 q 150 196 196 232 l 50 340 q 158 431 110 401 q 261 460 206 460 q 337 449 303 460 q 415 415 371 438 q 440 404 421 413 q 474 392 460 396 q 501 388 489 388 q 554 400 529 388 q 625 449 579 413 l 725 304 q 617 214 665 243 q 514 185 569 185 z "},"~":{"ha":764,"x_min":44,"x_max":719,"o":"m 508 351 q 433 363 467 351 q 354 396 399 374 q 329 407 349 399 q 295 419 310 415 q 268 424 281 424 q 215 411 240 424 q 144 363 190 399 l 44 507 q 152 597 104 568 q 256 626 200 626 q 331 615 297 626 q 410 582 365 604 q 435 571 415 579 q 469 558 454 563 q 496 554 483 554 q 549 567 524 554 q 619 615 574 579 l 719 471 q 612 381 660 410 q 508 351 564 351 z "},"÷":{"ha":764,"x_min":93,"x_max":671,"o":"m 93 54 m 254 306 l 510 306 l 510 54 l 254 54 l 254 306 m 93 575 l 671 575 l 671 361 l 93 361 l 93 575 m 254 896 l 510 896 l 510 644 l 254 644 l 254 896 z "},"=":{"ha":764,"x_min":93,"x_max":671,"o":"m 93 714 l 671 714 l 671 500 l 93 500 l 93 714 m 93 436 l 671 436 l 671 222 l 93 222 l 93 436 z "},">":{"ha":764,"x_min":78,"x_max":671,"o":"m 78 75 m 414 463 l 78 265 l 179 75 l 671 364 l 671 561 l 179 851 l 78 660 l 414 463 z "},"≥":{"ha":764,"x_min":78,"x_max":671,"o":"m 78 0 m 417 547 l 78 390 l 179 228 l 671 461 l 671 631 l 179 879 l 78 715 l 417 547 m 671 214 l 93 214 l 93 0 l 671 0 l 671 214 z "},"∆":{"ha":1138,"x_min":42,"x_max":1096,"o":"m 1096 0 l 42 0 l 410 1065 l 726 1065 l 1096 0 m 772 214 l 568 811 l 365 214 l 772 214 z "},"∞":{"ha":764,"x_min":-14,"x_max":778,"o":"m 543 715 q 713 646 649 715 q 778 467 778 576 q 713 287 778 357 q 543 217 649 217 q 442 241 488 217 q 367 310 397 265 q 297 256 336 275 q 210 238 257 238 q 95 267 146 238 q 15 349 44 296 q -14 467 -14 401 q 15 585 -14 532 q 95 667 44 638 q 210 696 146 696 q 297 676 257 696 q 367 624 338 657 q 442 691 397 667 q 543 715 488 715 m 529 396 q 578 415 560 396 q 596 467 596 435 q 578 517 596 499 q 529 536 560 536 q 480 517 499 536 q 461 467 461 499 q 480 415 461 435 q 529 396 499 396 m 224 417 q 264 430 249 417 q 279 467 279 443 q 264 503 279 490 q 224 517 249 517 q 183 503 199 517 q 168 467 168 490 q 183 430 168 443 q 224 417 199 417 z "},"∫":{"ha":764,"x_min":108,"x_max":656,"o":"m 506 1193 q 576 1188 543 1193 q 656 1174 608 1183 l 656 968 q 574 979 619 979 q 518 960 533 979 q 503 896 503 942 l 503 -137 q 442 -293 503 -239 q 258 -347 382 -347 q 188 -342 221 -347 q 108 -328 156 -337 l 108 -122 q 190 -133 144 -133 q 246 -115 231 -133 q 261 -50 261 -96 l 261 983 q 322 1139 261 1085 q 506 1193 382 1193 z "},"<":{"ha":764,"x_min":93,"x_max":686,"o":"m 350 463 l 686 265 l 585 75 l 93 364 l 93 561 l 585 851 l 686 660 l 350 463 z "},"≤":{"ha":764,"x_min":93,"x_max":686,"o":"m 347 547 l 686 390 l 585 228 l 93 461 l 93 631 l 585 879 l 686 715 l 347 547 m 93 214 l 671 214 l 671 0 l 93 0 l 93 214 z "},"¬":{"ha":764,"x_min":93,"x_max":671,"o":"m 671 575 l 671 179 l 454 179 l 454 361 l 93 361 l 93 575 l 671 575 z "},"−":{"ha":764,"x_min":93,"x_max":671,"o":"m 93 575 l 671 575 l 671 361 l 93 361 l 93 575 z "},"≠":{"ha":833,"x_min":93,"x_max":671,"o":"m 513 500 l 494 436 l 671 436 l 671 222 l 435 222 l 407 125 l 163 125 l 190 222 l 93 222 l 93 436 l 250 436 l 268 500 l 93 500 l 93 714 l 329 714 l 353 797 l 597 797 l 574 714 l 671 714 l 671 500 l 513 500 z "},"∂":{"ha":857,"x_min":24,"x_max":819,"o":"m 400 1072 q 710 791 601 949 q 819 424 819 633 q 713 97 819 218 q 408 -24 607 -24 q 127 72 231 -24 q 24 350 24 168 q 69 560 24 475 q 189 685 115 644 q 349 725 263 725 q 467 704 404 725 q 204 907 382 808 l 400 1072 m 415 190 q 533 247 490 190 q 575 407 575 303 q 572 458 575 425 q 414 511 493 511 q 310 476 351 511 q 268 350 268 440 q 308 228 268 265 q 415 190 347 190 z "},"%":{"ha":1438,"x_min":24,"x_max":1414,"o":"m 911 1074 l 1103 1074 l 524 -46 l 332 -46 l 911 1074 m 332 438 q 167 478 236 438 q 60 590 97 519 q 24 746 24 660 q 60 902 24 832 q 167 1013 97 972 q 332 1053 236 1053 q 497 1013 428 1053 q 603 902 567 972 q 639 746 639 832 q 603 590 639 660 q 497 478 567 519 q 332 438 428 438 m 332 596 q 430 639 396 596 q 464 746 464 682 q 430 853 464 811 q 332 894 396 894 q 234 852 269 894 q 199 746 199 810 q 234 639 199 682 q 332 596 269 596 m 1107 -24 q 942 17 1011 -24 q 835 128 872 58 q 799 285 799 199 q 835 441 799 371 q 942 551 872 511 q 1107 592 1011 592 q 1272 551 1203 592 q 1378 441 1342 511 q 1414 285 1414 371 q 1378 128 1414 199 q 1272 17 1342 58 q 1107 -24 1203 -24 m 1107 135 q 1205 178 1171 135 q 1239 285 1239 221 q 1205 392 1239 350 q 1107 433 1171 433 q 1009 391 1044 433 q 974 285 974 349 q 1009 178 974 221 q 1107 135 1044 135 z "},"‰":{"ha":2090,"x_min":24,"x_max":2067,"o":"m 911 1074 l 1103 1074 l 524 -46 l 332 -46 l 911 1074 m 332 438 q 167 478 236 438 q 60 590 97 519 q 24 746 24 660 q 60 902 24 832 q 167 1013 97 972 q 332 1053 236 1053 q 497 1013 428 1053 q 603 902 567 972 q 639 746 639 832 q 603 590 639 660 q 497 478 567 519 q 332 438 428 438 m 332 596 q 430 639 396 596 q 464 746 464 682 q 430 853 464 811 q 332 894 396 894 q 234 852 269 894 q 199 746 199 810 q 234 639 199 682 q 332 596 269 596 m 1107 -24 q 942 17 1011 -24 q 835 128 872 58 q 799 285 799 199 q 835 441 799 371 q 942 551 872 511 q 1107 592 1011 592 q 1272 551 1203 592 q 1378 441 1342 511 q 1414 285 1414 371 q 1378 128 1414 199 q 1272 17 1342 58 q 1107 -24 1203 -24 m 1760 -24 q 1594 17 1664 -24 q 1488 128 1525 58 q 1451 285 1451 199 q 1488 441 1451 371 q 1594 551 1525 511 q 1760 592 1664 592 q 1925 551 1856 592 q 2031 441 1994 511 q 2067 285 2067 371 q 2031 128 2067 199 q 1925 17 1994 58 q 1760 -24 1856 -24 m 1107 135 q 1205 178 1171 135 q 1239 285 1239 221 q 1205 392 1239 350 q 1107 433 1171 433 q 1009 391 1044 433 q 974 285 974 349 q 1009 178 974 221 q 1107 135 1044 135 m 1760 135 q 1858 178 1824 135 q 1892 285 1892 221 q 1858 392 1892 350 q 1760 433 1824 433 q 1662 391 1697 433 q 1626 285 1626 349 q 1662 178 1626 221 q 1760 135 1697 135 z "},"+":{"ha":764,"x_min":93,"x_max":671,"o":"m 671 361 l 490 361 l 490 178 l 274 178 l 274 361 l 93 361 l 93 575 l 274 575 l 274 756 l 490 756 l 490 575 l 671 575 l 671 361 z "},"±":{"ha":764,"x_min":93,"x_max":671,"o":"m 93 0 m 671 361 l 490 361 l 490 178 l 274 178 l 274 361 l 93 361 l 93 575 l 274 575 l 274 756 l 490 756 l 490 575 l 671 575 l 671 361 m 93 144 l 671 144 l 671 -69 l 93 -69 l 93 144 z "},"∏":{"ha":1138,"x_min":111,"x_max":1026,"o":"m 1026 -329 l 776 -329 l 776 839 l 361 839 l 361 -329 l 111 -329 l 111 1053 l 1026 1053 l 1026 -329 z "},"√":{"ha":972,"x_min":6,"x_max":1078,"o":"m 1078 1304 l 633 -240 l 436 -240 l 208 285 l 119 218 l 6 407 l 297 611 l 521 93 l 857 1304 l 1078 1304 z "},"∑":{"ha":1025,"x_min":111,"x_max":942,"o":"m 942 -115 l 942 -329 l 111 -329 l 111 -118 l 472 361 l 111 842 l 111 1053 l 914 1053 l 914 839 l 428 839 l 736 425 l 736 297 l 428 -115 l 942 -115 z "},"◌":{"ha":1069,"x_min":129,"x_max":940,"o":"m 536 742 q 496 758 513 742 q 479 799 479 775 q 496 838 479 821 q 536 856 513 856 q 576 838 558 856 q 593 799 593 821 q 576 758 593 775 q 536 742 558 742 m 358 697 q 319 714 336 697 q 303 754 303 731 q 319 794 303 778 q 358 811 336 811 q 399 794 382 811 q 415 754 415 778 q 399 715 415 732 q 358 697 382 697 m 708 697 q 669 715 686 697 q 651 754 651 732 q 669 794 651 778 q 708 811 686 811 q 749 794 732 811 q 765 754 765 778 q 749 714 765 731 q 708 697 732 697 m 229 568 q 189 585 206 568 q 172 625 172 601 q 189 665 172 649 q 229 682 206 682 q 269 665 253 682 q 286 625 286 649 q 269 585 286 601 q 229 568 253 568 m 840 568 q 800 585 817 568 q 783 625 783 601 q 801 665 783 649 q 840 682 818 682 q 881 665 864 682 q 897 625 897 649 q 881 585 897 601 q 840 568 864 568 m 186 392 q 146 408 163 392 q 129 449 129 425 q 146 489 129 472 q 186 506 163 506 q 226 489 210 506 q 243 449 243 472 q 226 409 243 426 q 186 392 210 392 m 883 392 q 844 409 861 392 q 828 449 828 426 q 844 489 828 472 q 883 506 861 506 q 924 489 907 506 q 940 449 940 472 q 924 408 940 425 q 883 392 907 392 m 229 217 q 189 233 206 217 q 172 274 172 250 q 189 313 172 297 q 229 329 206 329 q 269 313 253 329 q 286 274 286 296 q 269 234 286 251 q 229 217 253 217 m 840 217 q 801 234 818 217 q 783 274 783 251 q 800 313 783 296 q 840 329 817 329 q 881 313 864 329 q 897 274 897 297 q 881 233 897 250 q 840 217 864 217 m 358 85 q 319 101 336 85 q 303 142 303 118 q 319 181 303 165 q 358 197 336 197 q 399 181 382 197 q 415 142 415 164 q 399 102 415 119 q 358 85 382 85 m 708 85 q 669 102 686 85 q 651 142 651 119 q 668 181 651 164 q 708 197 685 197 q 749 181 732 197 q 765 142 765 165 q 749 101 765 118 q 708 85 732 85 m 536 42 q 496 58 513 42 q 479 99 479 75 q 496 139 479 122 q 536 156 513 156 q 576 139 558 156 q 593 99 593 122 q 576 59 593 76 q 536 42 558 42 z "},"◊":{"ha":764,"x_min":15,"x_max":764,"o":"m 764 468 l 489 0 l 292 0 l 15 468 l 290 936 l 488 936 l 764 468 m 514 467 l 389 679 l 265 469 l 390 257 l 514 467 z "},"|":{"ha":467,"x_min":111,"x_max":356,"o":"m 111 1176 l 356 1176 l 356 -179 l 111 -179 l 111 1176 z "},"¦":{"ha":467,"x_min":111,"x_max":356,"o":"m 111 1176 l 356 1176 l 356 654 l 111 654 l 111 1176 m 111 343 l 356 343 l 356 -179 l 111 -179 l 111 343 z "},"@":{"ha":1369,"x_min":65,"x_max":1304,"o":"m 929 222 q 925 196 925 208 q 933 170 925 179 q 956 161 942 161 q 1048 204 1008 161 q 1108 317 1088 247 q 1129 468 1129 388 q 1022 759 1129 657 q 725 861 915 861 q 485 792 596 861 q 307 598 374 722 q 240 317 240 474 q 351 -26 240 101 q 675 -153 461 -153 q 842 -127 763 -153 q 1011 -51 921 -101 l 1067 -190 q 874 -268 964 -242 q 675 -294 783 -294 q 358 -223 496 -294 q 142 -13 219 -151 q 65 317 65 125 q 155 673 65 517 q 396 916 244 829 q 725 1003 547 1003 q 1033 938 901 1003 q 1234 751 1164 872 q 1304 468 1304 631 q 1255 235 1304 338 q 1117 76 1206 133 q 917 19 1029 19 q 808 44 851 19 q 749 117 765 69 q 658 58 707 78 q 560 38 608 38 q 403 101 464 38 q 342 279 342 164 q 389 498 342 401 q 519 649 436 594 q 703 703 601 703 q 863 642 807 703 l 874 681 l 1064 681 l 929 222 m 603 197 q 688 223 649 197 q 763 299 726 249 l 821 499 q 721 544 776 544 q 622 511 665 544 q 555 421 579 478 q 531 296 531 364 q 603 197 531 197 z "},"&":{"ha":1131,"x_min":38,"x_max":1089,"o":"m 1089 214 l 1089 0 l 994 0 q 856 17 921 0 q 724 69 790 33 q 425 -24 582 -24 q 136 49 235 -24 q 38 267 38 122 q 85 436 38 365 q 218 563 133 507 q 131 803 131 679 q 171 953 131 890 q 282 1049 211 1017 q 443 1082 353 1082 q 671 1009 583 1082 q 758 806 758 936 q 703 649 758 722 q 560 519 649 576 q 717 365 653 421 q 797 692 796 499 l 1044 692 q 1006 451 1044 568 q 896 238 967 333 q 996 214 944 214 l 1089 214 m 443 885 q 392 863 407 885 q 378 801 378 840 q 389 742 378 771 q 424 679 400 714 q 488 740 465 704 q 511 810 511 776 q 443 885 511 885 m 285 275 q 425 188 285 188 q 539 207 483 188 q 360 394 469 272 q 299 337 313 361 q 285 275 285 313 z "},"¶":{"ha":1107,"x_min":49,"x_max":996,"o":"m 446 325 l 406 325 q 138 418 228 325 q 49 688 49 511 q 406 1053 49 1053 l 996 1053 l 996 -139 l 779 -139 l 779 842 l 663 842 l 663 -139 l 446 -139 l 446 325 z "},"©":{"ha":1299,"x_min":93,"x_max":1206,"o":"m 650 -24 q 369 48 497 -24 q 167 244 242 119 q 93 525 93 369 q 168 798 93 672 q 371 998 243 924 q 650 1072 499 1072 q 926 998 799 1072 q 1130 798 1054 924 q 1206 525 1206 672 q 1131 245 1206 371 q 928 48 1056 119 q 650 -24 800 -24 m 650 132 q 841 184 753 132 q 982 326 929 236 q 1035 528 1035 417 q 981 722 1035 632 q 839 864 928 811 q 650 917 750 917 q 457 863 546 917 q 316 720 368 810 q 264 525 264 631 q 316 324 264 414 q 456 183 368 235 q 650 132 544 132 m 678 215 q 494 256 569 215 q 381 367 419 297 q 343 525 343 438 q 428 747 343 661 q 678 833 513 833 q 753 827 721 833 q 822 806 786 821 l 822 631 q 678 664 760 664 q 574 626 613 664 q 535 528 535 588 q 572 424 535 461 q 678 386 608 386 q 758 396 719 386 q 842 425 797 406 l 869 264 q 774 228 824 240 q 678 215 724 215 z "},"®":{"ha":1001,"x_min":99,"x_max":903,"o":"m 501 1068 q 702 1014 610 1068 q 849 868 794 960 q 903 671 903 776 q 849 467 903 558 q 702 324 794 376 q 501 272 610 272 q 298 324 390 272 q 152 467 206 375 q 99 671 99 558 q 153 868 99 776 q 299 1014 207 960 q 501 1068 392 1068 m 779 674 q 740 809 779 746 q 638 910 701 872 q 501 947 574 947 q 362 910 426 947 q 260 808 297 872 q 222 671 222 744 q 260 528 222 592 q 361 429 297 465 q 501 393 425 393 q 640 429 576 393 q 742 530 704 465 q 779 674 779 594 m 667 732 q 599 610 667 643 l 686 469 l 549 469 l 476 589 l 443 589 l 443 469 l 322 469 l 322 872 l 499 872 q 622 838 578 872 q 667 732 667 804 m 443 771 l 443 690 l 472 690 q 528 699 513 690 q 543 732 543 708 q 528 762 543 753 q 472 771 513 771 l 443 771 z "},"§":{"ha":764,"x_min":29,"x_max":735,"o":"m 735 419 q 621 242 735 303 q 672 93 672 188 q 592 -81 672 -19 q 371 -143 511 -143 q 235 -134 296 -143 q 118 -103 175 -125 l 118 103 q 371 54 222 54 q 453 92 453 54 q 442 115 453 107 q 411 129 432 124 l 254 172 q 140 213 188 190 q 61 280 93 236 q 29 393 29 324 q 143 571 29 510 q 92 719 92 625 q 172 894 92 832 q 393 956 253 956 q 528 947 468 956 q 646 915 589 938 l 646 710 q 393 758 542 758 q 311 721 311 758 q 322 697 311 706 q 353 683 332 689 l 510 640 q 624 599 576 622 q 703 533 671 576 q 735 419 735 489 m 249 431 q 267 385 249 399 q 343 354 286 371 l 472 318 q 515 382 515 342 q 497 428 515 414 q 421 458 478 442 l 292 494 q 249 431 249 471 z "},"™":{"ha":1583,"x_min":56,"x_max":1472,"o":"m 586 867 l 422 867 l 422 300 l 219 300 l 219 867 l 56 867 l 56 1053 l 586 1053 l 586 867 m 1472 1053 l 1472 300 l 1269 300 l 1269 732 l 1131 542 l 1019 542 l 881 732 l 881 300 l 678 300 l 678 1053 l 856 1053 l 1075 753 l 1294 1053 l 1472 1053 z "},"°":{"ha":657,"x_min":38,"x_max":619,"o":"m 329 401 q 183 440 250 401 q 76 547 115 479 q 38 693 38 614 q 76 839 38 772 q 183 944 115 906 q 329 983 250 983 q 475 944 408 983 q 581 839 542 906 q 619 693 619 772 q 581 547 619 614 q 475 440 542 479 q 329 401 408 401 m 329 585 q 400 616 372 585 q 428 693 428 647 q 400 769 428 739 q 329 800 372 800 q 258 769 286 800 q 229 693 229 739 q 258 616 229 647 q 329 585 286 585 z "},"^":{"ha":763,"x_min":-7,"x_max":769,"o":"m 578 151 l 381 488 l 183 151 l -7 253 l 282 744 l 479 744 l 769 253 l 578 151 z "},"†":{"ha":644,"x_min":35,"x_max":610,"o":"m 610 696 l 444 696 l 444 65 l 200 65 l 200 696 l 35 696 l 35 924 l 200 924 l 200 1118 l 444 1118 l 444 924 l 610 924 l 610 696 z "},"‡":{"ha":644,"x_min":35,"x_max":610,"o":"m 444 696 l 444 507 l 610 507 l 610 279 l 444 279 l 444 -249 l 200 -249 l 200 279 l 35 279 l 35 507 l 200 507 l 200 696 l 35 696 l 35 924 l 200 924 l 200 1118 l 444 1118 l 444 924 l 610 924 l 610 696 l 444 696 z "},"ऽ":{"ha":674,"x_min":-28,"x_max":656,"o":"m -28 172 l 149 172 q 274 180 231 172 q 338 210 318 188 q 358 281 358 233 q 332 350 358 321 q 249 421 306 379 q 163 493 194 463 q 107 571 131 524 q 83 681 83 618 q 153 867 83 797 q 372 936 224 936 l 656 936 l 656 764 l 442 764 q 328 747 360 764 q 297 681 297 729 q 323 616 297 644 q 404 546 349 588 q 490 474 457 506 q 548 393 524 442 q 572 281 572 344 q 218 0 572 0 l -28 0 l -28 172 z "},"ॐ":{"ha":1297,"x_min":7,"x_max":1274,"o":"m 813 1000 l 686 1125 l 813 1251 l 939 1125 l 813 1000 m 813 763 q 568 827 642 763 q 494 1025 494 892 l 494 1053 l 694 1053 l 694 1025 q 722 954 694 974 q 813 935 750 935 q 903 954 875 935 q 931 1025 931 974 l 931 1053 l 1131 1053 l 1131 1025 q 1058 825 1131 888 q 813 763 985 763 m 954 714 q 1142 679 1072 714 q 1242 572 1211 644 q 1274 381 1274 499 q 1240 183 1274 257 q 1138 78 1206 110 q 961 47 1069 47 l 940 47 q 732 98 806 47 q 636 267 658 149 l 492 267 q 362 106 474 156 q 88 56 250 56 l 7 56 l 7 228 l 88 228 q 282 338 282 228 q 249 399 282 379 q 142 418 215 418 l 71 418 l 71 590 l 143 590 q 282 679 282 590 q 243 744 282 724 q 129 764 204 764 l 50 764 l 50 936 l 129 936 q 406 884 317 936 q 496 713 496 832 q 465 592 496 642 q 369 513 433 543 q 463 439 431 490 l 629 439 q 716 651 640 588 q 954 714 792 714 m 961 219 q 1036 254 1013 219 q 1060 381 1060 289 q 1035 506 1060 469 q 954 542 1010 542 q 868 506 894 542 q 842 381 842 471 q 867 253 842 288 q 949 219 892 219 l 961 219 z "},"̦":{"ha":903,"x_min":-599,"x_max":-304,"o":"m -554 -111 l -304 -111 l -371 -342 l -599 -342 l -554 -111 z "},"´":{"ha":903,"x_min":246,"x_max":657,"o":"m 382 1124 l 657 1124 l 489 911 l 246 911 l 382 1124 z "},"˘":{"ha":903,"x_min":215,"x_max":688,"o":"m 451 900 q 215 1090 215 900 l 215 1121 l 396 1121 l 396 1096 q 409 1050 396 1064 q 451 1036 422 1036 q 494 1050 481 1036 q 507 1096 507 1064 l 507 1121 l 688 1121 l 688 1090 q 451 900 688 900 z "},"ˇ":{"ha":901,"x_min":161,"x_max":740,"o":"m 740 1124 l 614 911 l 288 911 l 161 1124 l 394 1124 l 451 997 l 507 1124 l 740 1124 z "},"¸":{"ha":903,"x_min":275,"x_max":628,"o":"m 481 -61 q 590 -101 551 -62 q 628 -204 628 -140 q 578 -322 628 -278 q 431 -365 528 -365 q 349 -360 385 -365 q 275 -337 313 -354 l 275 -206 q 403 -235 339 -235 q 447 -228 435 -235 q 460 -210 460 -222 q 445 -190 460 -196 q 394 -183 431 -183 q 292 -199 338 -183 l 347 1 l 501 1 l 481 -61 z "},"ˆ":{"ha":901,"x_min":161,"x_max":740,"o":"m 507 911 l 451 1038 l 394 911 l 161 911 l 288 1124 l 614 1124 l 740 911 l 507 911 z "},"¨":{"ha":903,"x_min":192,"x_max":711,"o":"m 497 1121 l 711 1121 l 711 911 l 497 911 l 497 1121 m 192 1121 l 406 1121 l 406 911 l 192 911 l 192 1121 z "},"˙":{"ha":903,"x_min":331,"x_max":572,"o":"m 331 1121 l 572 1121 l 572 911 l 331 911 l 331 1121 z "},"`":{"ha":903,"x_min":246,"x_max":657,"o":"m 246 1124 l 521 1124 l 657 911 l 414 911 l 246 1124 z "},"˝":{"ha":901,"x_min":103,"x_max":799,"o":"m 551 1124 l 799 1124 l 631 911 l 415 911 l 551 1124 m 239 1124 l 486 1124 l 318 911 l 103 911 l 239 1124 z "},"¯":{"ha":901,"x_min":236,"x_max":665,"o":"m 236 1093 l 665 1093 l 665 943 l 236 943 l 236 1093 z "},"˛":{"ha":903,"x_min":289,"x_max":600,"o":"m 486 -365 q 338 -328 388 -365 q 289 -222 289 -290 q 319 -106 289 -164 q 413 0 350 -49 l 600 0 q 471 -182 471 -100 q 526 -231 471 -231 q 600 -214 563 -231 l 600 -346 q 486 -365 542 -365 z "},"˚":{"ha":901,"x_min":281,"x_max":621,"o":"m 451 889 q 322 924 364 889 q 281 1017 281 958 q 321 1109 281 1075 q 451 1143 361 1143 q 580 1109 539 1143 q 621 1017 621 1075 q 580 924 621 958 q 451 889 539 889 m 451 982 q 494 1017 494 982 q 451 1050 494 1050 q 407 1017 407 1050 q 451 982 407 982 z "},"˜":{"ha":901,"x_min":186,"x_max":715,"o":"m 186 910 q 226 1072 186 1028 q 338 1115 267 1115 q 418 1101 376 1115 l 469 1085 q 522 1072 511 1072 q 549 1115 549 1072 l 715 1115 q 675 953 715 997 q 564 910 635 910 q 483 924 525 910 l 432 940 q 379 953 390 953 q 353 910 353 953 l 186 910 z "},"ु":{"ha":0,"x_min":-643,"x_max":168,"o":"m -153 -482 q -643 -282 -415 -482 l -529 -150 q -358 -268 -444 -226 q -167 -310 -272 -310 q -46 -233 -46 -310 q -69 -187 -46 -204 q -139 -171 -93 -171 l -332 -171 l -332 1 l -108 1 q 91 -58 15 1 q 168 -224 167 -117 q 81 -417 168 -351 q -153 -482 -6 -482 z "},"ू":{"ha":0,"x_min":-537,"x_max":278,"o":"m -261 -468 q -460 -409 -385 -468 q -537 -243 -536 -350 q -451 -50 -537 -115 q -217 15 -364 15 q -1 -29 -92 15 q 150 -138 90 -74 q 278 -301 210 -203 l 115 -407 q 11 -265 53 -315 q -82 -186 -31 -215 q -203 -157 -133 -157 q -324 -233 -324 -157 q -300 -279 -324 -262 q -231 -296 -276 -296 l -107 -296 l -107 -468 l -261 -468 z "},"ृ":{"ha":0,"x_min":-447,"x_max":0,"o":"m -167 -418 q -379 -362 -311 -418 q -447 -186 -447 -307 q -382 -15 -447 -75 q -181 46 -317 46 l -83 46 l -83 -112 l -167 -112 q -226 -131 -204 -112 q -247 -186 -247 -149 q -153 -260 -247 -260 q -78 -246 -114 -260 q 0 -203 -42 -232 l 0 -371 q -167 -418 -85 -418 z "},"ॄ":{"ha":0,"x_min":-435,"x_max":33,"o":"m -119 -412 q 33 -369 -37 -412 l 33 -537 q -133 -571 -37 -571 q -335 -526 -269 -571 q -400 -382 -400 -481 q -321 -242 -400 -286 q -409 -181 -383 -219 q -435 -89 -435 -143 q -189 88 -435 88 q -92 81 -125 88 l -92 -78 q -175 -71 -129 -71 q -222 -82 -208 -71 q -235 -115 -235 -93 q -215 -151 -235 -139 q -140 -162 -194 -162 l -64 -162 l -64 -307 l -133 -307 q -200 -354 -200 -307 q -183 -400 -200 -387 q -119 -412 -167 -412 z "},"ॢ":{"ha":0,"x_min":-768,"x_max":14,"o":"m -100 -521 q 14 -482 -43 -521 l 14 -642 q -150 -675 -29 -675 q -293 -631 -237 -675 q -349 -511 -349 -586 q -327 -427 -349 -461 q -265 -353 -306 -393 q -226 -309 -239 -326 q -214 -274 -214 -292 q -260 -228 -214 -228 q -298 -246 -285 -228 q -311 -296 -311 -264 l -311 -347 l -461 -347 l -461 -296 q -476 -246 -461 -264 q -518 -228 -490 -228 q -562 -249 -547 -228 q -576 -310 -576 -271 q -451 -431 -574 -431 l -440 -431 l -440 -586 l -451 -586 q -694 -504 -621 -586 q -768 -303 -768 -422 q -713 -115 -768 -185 q -553 -46 -658 -46 q -392 -132 -444 -46 q -325 -71 -367 -92 l -325 97 l -111 97 l -111 -74 q -45 -145 -68 -99 q -22 -249 -22 -192 q -47 -362 -22 -319 q -110 -443 -71 -406 q -135 -471 -126 -460 q -143 -493 -143 -482 q -100 -521 -143 -521 z "},"ॣ":{"ha":0,"x_min":-768,"x_max":56,"o":"m -58 -757 q 56 -718 -1 -757 l 56 -878 q -108 -911 13 -911 q -253 -868 -199 -911 q -307 -751 -307 -825 q -274 -643 -307 -699 q -331 -582 -312 -614 q -349 -511 -349 -550 q -327 -427 -349 -461 q -265 -353 -306 -393 q -226 -309 -239 -326 q -214 -274 -214 -292 q -260 -228 -214 -228 q -298 -246 -285 -228 q -311 -296 -311 -264 l -311 -347 l -461 -347 l -461 -296 q -476 -246 -461 -264 q -518 -228 -490 -228 q -562 -249 -547 -228 q -576 -310 -576 -271 q -451 -431 -574 -431 l -440 -431 l -440 -586 l -451 -586 q -694 -504 -621 -586 q -768 -303 -768 -422 q -713 -115 -768 -185 q -553 -46 -658 -46 q -392 -132 -444 -46 q -325 -71 -367 -92 l -325 97 l -111 97 l -111 -74 q -45 -145 -68 -99 q -22 -249 -22 -192 q -47 -362 -22 -319 q -110 -443 -71 -406 q -135 -471 -126 -460 q -143 -493 -143 -482 q -100 -521 -143 -521 q 14 -482 -43 -521 l 14 -642 q -82 -672 -15 -664 q -101 -722 -101 -700 q -92 -749 -101 -740 q -58 -757 -82 -757 z "},"ॅ":{"ha":0,"x_min":-510,"x_max":126,"o":"m -192 986 q -436 1051 -362 986 q -510 1249 -510 1115 l -510 1276 l -310 1276 l -310 1249 q -282 1178 -310 1197 q -192 1158 -254 1158 q -101 1178 -129 1158 q -74 1249 -74 1197 l -74 1276 l 126 1276 l 126 1249 q 53 1049 126 1111 q -192 986 -19 986 z "},"ँ":{"ha":0,"x_min":-510,"x_max":126,"o":"m 0 986 m -192 986 q -436 1051 -362 986 q -510 1249 -510 1115 l -510 1276 l -310 1276 l -310 1249 q -282 1178 -310 1197 q -192 1158 -254 1158 q -101 1178 -129 1158 q -74 1249 -74 1197 l -74 1276 l 126 1276 l 126 1249 q 53 1049 126 1111 q -192 986 -19 986 m -318 1365 l -192 1492 l -65 1365 l -192 1240 l -318 1365 z "},"ॆ":{"ha":833,"x_min":-1811,"x_max":-917,"o":"m -1131 936 q -1156 1022 -1131 997 q -1244 1046 -1181 1046 l -1476 1046 q -1681 1077 -1608 1046 q -1783 1172 -1754 1108 q -1811 1342 -1811 1235 l -1811 1390 l -1597 1390 l -1597 1342 q -1587 1267 -1597 1293 q -1552 1229 -1578 1240 q -1476 1218 -1526 1218 l -1244 1218 q -1031 1189 -1101 1218 q -939 1101 -961 1160 q -917 936 -917 1043 l -917 867 l -1131 867 l -1131 936 z "},"े":{"ha":0,"x_min":-572,"x_max":-82,"o":"m -335 1038 q -370 1117 -349 1096 q -440 1138 -392 1138 l -572 1138 l -572 1310 l -440 1310 q -284 1290 -342 1310 q -187 1213 -226 1271 q -121 1038 -147 1154 l -82 867 l -296 867 l -335 1038 z "},"ै":{"ha":0,"x_min":-722,"x_max":-82,"o":"m -82 867 l -296 867 l -379 971 q -447 1018 -408 1008 q -576 1028 -486 1028 l -722 1028 l -722 1200 l -576 1200 q -415 1181 -472 1200 q -310 1115 -357 1163 l -325 1181 q -367 1236 -335 1222 q -465 1250 -399 1250 l -597 1250 l -597 1422 l -465 1422 q -310 1404 -368 1422 q -215 1335 -253 1386 q -153 1181 -176 1283 l -82 867 z "},"ं":{"ha":0,"x_min":-318,"x_max":-65,"o":"m -318 1099 l -192 1225 l -65 1099 l -192 974 l -318 1099 z "},"्":{"ha":0,"x_min":-340,"x_max":63,"o":"m -340 -224 l -218 -85 l 63 -301 l -61 -442 l -340 -224 z "},"़":{"ha":0,"x_min":-433,"x_max":-181,"o":"m -433 -162 l -307 -36 l -181 -162 l -307 -287 l -433 -162 z "},"ऺ":{"ha":0,"x_min":-297,"x_max":-83,"o":"m -297 1254 l -83 1254 l -83 851 l -297 851 l -297 1254 z "},"ॖ":{"ha":0,"x_min":-547,"x_max":164,"o":"m -192 -319 q -403 -274 -308 -319 q -547 -150 -497 -228 l -414 -43 q -309 -122 -362 -97 q -192 -147 -256 -147 q -74 -122 -128 -147 q 31 -43 -21 -97 l 164 -150 q 19 -274 114 -228 q -192 -319 -75 -319 z "},"ॗ":{"ha":0,"x_min":-547,"x_max":164,"o":"m -192 -319 q -403 -274 -308 -319 q -547 -150 -497 -228 l -414 -43 q -309 -122 -362 -97 q -192 -147 -256 -147 q -74 -122 -128 -147 q 31 -43 -21 -97 l 164 -150 q 19 -274 114 -228 q -192 -319 -75 -319 m -192 -583 q -403 -537 -308 -583 q -547 -414 -497 -492 l -414 -307 q -309 -386 -362 -361 q -192 -411 -256 -411 q -74 -386 -128 -411 q 31 -307 -21 -361 l 164 -414 q 19 -537 114 -492 q -192 -583 -75 -583 z "},"॑":{"ha":0,"x_min":-297,"x_max":-83,"o":"m -297 1392 l -83 1392 l -83 1026 l -297 1026 l -297 1392 z "},"॒":{"ha":0,"x_min":-535,"x_max":107,"o":"m -535 -278 l 107 -278 l 107 -478 l -535 -478 l -535 -278 z "},"॓":{"ha":0,"x_min":-624,"x_max":-162,"o":"m -624 1376 l -378 1376 l -162 1064 l -375 1064 l -624 1376 z "},"॔":{"ha":0,"x_min":-321,"x_max":140,"o":"m -106 1376 l 140 1376 l -108 1064 l -321 1064 l -106 1376 z "},"ः":{"ha":419,"x_min":82,"x_max":335,"o":"m 82 601 l 208 728 l 335 601 l 208 476 l 82 601 m 82 138 l 208 264 l 335 138 l 208 13 l 82 138 z "}}}
